<mxfile host="app.diagrams.net" modified="2023-01-05T15:08:32.434Z" agent="5.0 (Windows)" etag="lIVEsLYv2L6Vil7HF5Tm" version="20.7.4" type="github" pages="5">
  <diagram id="C5RBs43oDa-KdzZeNtuy" name="Page-1">
    <mxGraphModel dx="1961" dy="563" grid="1" gridSize="10" guides="1" tooltips="1" connect="1" arrows="1" fold="1" page="1" pageScale="1" pageWidth="827" pageHeight="1169" math="0" shadow="0">
      <root>
        <mxCell id="WIyWlLk6GJQsqaUBKTNV-0" />
        <mxCell id="WIyWlLk6GJQsqaUBKTNV-1" parent="WIyWlLk6GJQsqaUBKTNV-0" />
        <mxCell id="zkfFHV4jXpPFQw0GAbJ--0" value="Business Units" style="swimlane;fontStyle=2;align=center;verticalAlign=top;childLayout=stackLayout;horizontal=1;startSize=26;horizontalStack=0;resizeParent=1;resizeLast=0;collapsible=1;marginBottom=0;rounded=0;shadow=0;strokeWidth=1;" parent="WIyWlLk6GJQsqaUBKTNV-1" vertex="1">
          <mxGeometry x="100" y="90" width="160" height="138" as="geometry">
            <mxRectangle x="230" y="140" width="160" height="26" as="alternateBounds" />
          </mxGeometry>
        </mxCell>
        <mxCell id="zkfFHV4jXpPFQw0GAbJ--1" value="Name" style="text;align=left;verticalAlign=top;spacingLeft=4;spacingRight=4;overflow=hidden;rotatable=0;points=[[0,0.5],[1,0.5]];portConstraint=eastwest;" parent="zkfFHV4jXpPFQw0GAbJ--0" vertex="1">
          <mxGeometry y="26" width="160" height="26" as="geometry" />
        </mxCell>
        <mxCell id="zkfFHV4jXpPFQw0GAbJ--2" value="APP ID" style="text;align=left;verticalAlign=top;spacingLeft=4;spacingRight=4;overflow=hidden;rotatable=0;points=[[0,0.5],[1,0.5]];portConstraint=eastwest;rounded=0;shadow=0;html=0;fontStyle=1" parent="zkfFHV4jXpPFQw0GAbJ--0" vertex="1">
          <mxGeometry y="52" width="160" height="26" as="geometry" />
        </mxCell>
        <mxCell id="zkfFHV4jXpPFQw0GAbJ--6" value="Servers " style="swimlane;fontStyle=0;align=center;verticalAlign=top;childLayout=stackLayout;horizontal=1;startSize=26;horizontalStack=0;resizeParent=1;resizeLast=0;collapsible=1;marginBottom=0;rounded=0;shadow=0;strokeWidth=1;" parent="WIyWlLk6GJQsqaUBKTNV-1" vertex="1">
          <mxGeometry x="10" y="260" width="160" height="138" as="geometry">
            <mxRectangle x="130" y="380" width="160" height="26" as="alternateBounds" />
          </mxGeometry>
        </mxCell>
        <mxCell id="zkfFHV4jXpPFQw0GAbJ--7" value="Server Name" style="text;align=left;verticalAlign=top;spacingLeft=4;spacingRight=4;overflow=hidden;rotatable=0;points=[[0,0.5],[1,0.5]];portConstraint=eastwest;" parent="zkfFHV4jXpPFQw0GAbJ--6" vertex="1">
          <mxGeometry y="26" width="160" height="26" as="geometry" />
        </mxCell>
        <mxCell id="zkfFHV4jXpPFQw0GAbJ--8" value="Status" style="text;align=left;verticalAlign=top;spacingLeft=4;spacingRight=4;overflow=hidden;rotatable=0;points=[[0,0.5],[1,0.5]];portConstraint=eastwest;rounded=0;shadow=0;html=0;" parent="zkfFHV4jXpPFQw0GAbJ--6" vertex="1">
          <mxGeometry y="52" width="160" height="26" as="geometry" />
        </mxCell>
        <mxCell id="zkfFHV4jXpPFQw0GAbJ--10" value="System envirnonment " style="text;align=left;verticalAlign=top;spacingLeft=4;spacingRight=4;overflow=hidden;rotatable=0;points=[[0,0.5],[1,0.5]];portConstraint=eastwest;fontStyle=4" parent="zkfFHV4jXpPFQw0GAbJ--6" vertex="1">
          <mxGeometry y="78" width="160" height="26" as="geometry" />
        </mxCell>
        <mxCell id="Jc56urXTO-N7930z-ln7-0" value="APP ID" style="text;align=left;verticalAlign=top;spacingLeft=4;spacingRight=4;overflow=hidden;rotatable=0;points=[[0,0.5],[1,0.5]];portConstraint=eastwest;fontStyle=5" parent="zkfFHV4jXpPFQw0GAbJ--6" vertex="1">
          <mxGeometry y="104" width="160" height="26" as="geometry" />
        </mxCell>
        <mxCell id="zkfFHV4jXpPFQw0GAbJ--12" value="" style="endArrow=block;endSize=10;endFill=0;shadow=0;strokeWidth=1;rounded=0;edgeStyle=elbowEdgeStyle;elbow=vertical;" parent="WIyWlLk6GJQsqaUBKTNV-1" source="zkfFHV4jXpPFQw0GAbJ--6" target="zkfFHV4jXpPFQw0GAbJ--0" edge="1">
          <mxGeometry width="160" relative="1" as="geometry">
            <mxPoint x="80" y="173" as="sourcePoint" />
            <mxPoint x="80" y="173" as="targetPoint" />
          </mxGeometry>
        </mxCell>
        <mxCell id="zkfFHV4jXpPFQw0GAbJ--17" value="Applications" style="swimlane;fontStyle=0;align=center;verticalAlign=top;childLayout=stackLayout;horizontal=1;startSize=26;horizontalStack=0;resizeParent=1;resizeLast=0;collapsible=1;marginBottom=0;rounded=0;shadow=0;strokeWidth=1;" parent="WIyWlLk6GJQsqaUBKTNV-1" vertex="1">
          <mxGeometry x="180" y="260" width="160" height="169" as="geometry">
            <mxRectangle x="550" y="140" width="160" height="26" as="alternateBounds" />
          </mxGeometry>
        </mxCell>
        <mxCell id="zkfFHV4jXpPFQw0GAbJ--18" value="App Name" style="text;align=left;verticalAlign=top;spacingLeft=4;spacingRight=4;overflow=hidden;rotatable=0;points=[[0,0.5],[1,0.5]];portConstraint=eastwest;" parent="zkfFHV4jXpPFQw0GAbJ--17" vertex="1">
          <mxGeometry y="26" width="160" height="26" as="geometry" />
        </mxCell>
        <mxCell id="zkfFHV4jXpPFQw0GAbJ--19" value="Object State" style="text;align=left;verticalAlign=top;spacingLeft=4;spacingRight=4;overflow=hidden;rotatable=0;points=[[0,0.5],[1,0.5]];portConstraint=eastwest;rounded=0;shadow=0;html=0;" parent="zkfFHV4jXpPFQw0GAbJ--17" vertex="1">
          <mxGeometry y="52" width="160" height="26" as="geometry" />
        </mxCell>
        <mxCell id="zkfFHV4jXpPFQw0GAbJ--20" value="Asset Type" style="text;align=left;verticalAlign=top;spacingLeft=4;spacingRight=4;overflow=hidden;rotatable=0;points=[[0,0.5],[1,0.5]];portConstraint=eastwest;rounded=0;shadow=0;html=0;" parent="zkfFHV4jXpPFQw0GAbJ--17" vertex="1">
          <mxGeometry y="78" width="160" height="26" as="geometry" />
        </mxCell>
        <mxCell id="zkfFHV4jXpPFQw0GAbJ--22" value="Line of Business" style="text;align=left;verticalAlign=top;spacingLeft=4;spacingRight=4;overflow=hidden;rotatable=0;points=[[0,0.5],[1,0.5]];portConstraint=eastwest;rounded=0;shadow=0;html=0;" parent="zkfFHV4jXpPFQw0GAbJ--17" vertex="1">
          <mxGeometry y="104" width="160" height="26" as="geometry" />
        </mxCell>
        <mxCell id="Jc56urXTO-N7930z-ln7-1" value="APP ID" style="text;align=left;verticalAlign=top;spacingLeft=4;spacingRight=4;overflow=hidden;rotatable=0;points=[[0,0.5],[1,0.5]];portConstraint=eastwest;rounded=0;shadow=0;html=0;fontStyle=1" parent="zkfFHV4jXpPFQw0GAbJ--17" vertex="1">
          <mxGeometry y="130" width="160" height="26" as="geometry" />
        </mxCell>
        <mxCell id="zkfFHV4jXpPFQw0GAbJ--26" value="" style="endArrow=open;shadow=0;strokeWidth=1;rounded=0;endFill=1;edgeStyle=elbowEdgeStyle;elbow=vertical;" parent="WIyWlLk6GJQsqaUBKTNV-1" source="zkfFHV4jXpPFQw0GAbJ--0" target="zkfFHV4jXpPFQw0GAbJ--17" edge="1">
          <mxGeometry x="0.5" y="41" relative="1" as="geometry">
            <mxPoint x="260" y="162" as="sourcePoint" />
            <mxPoint x="420" y="162" as="targetPoint" />
            <mxPoint x="-40" y="32" as="offset" />
          </mxGeometry>
        </mxCell>
        <mxCell id="hACNqYAYREBasw3PpHh0-0" value="Business Unit to App to Server" style="rounded=0;whiteSpace=wrap;html=1;" parent="WIyWlLk6GJQsqaUBKTNV-1" vertex="1">
          <mxGeometry x="20" width="570" height="60" as="geometry" />
        </mxCell>
        <mxCell id="cxuJZ7cY7sC8axERj82p-0" value="Compute " style="rounded=0;whiteSpace=wrap;html=1;" parent="WIyWlLk6GJQsqaUBKTNV-1" vertex="1">
          <mxGeometry x="-730" width="570" height="60" as="geometry" />
        </mxCell>
        <mxCell id="-GhZ5hnbJG4GiWDYlXwf-0" value="Servers 0" style="swimlane;fontStyle=2;align=center;verticalAlign=top;childLayout=stackLayout;horizontal=1;startSize=26;horizontalStack=0;resizeParent=1;resizeLast=0;collapsible=1;marginBottom=0;rounded=0;shadow=0;strokeWidth=1;" parent="WIyWlLk6GJQsqaUBKTNV-1" vertex="1">
          <mxGeometry x="-640" y="70" width="280" height="182" as="geometry">
            <mxRectangle x="230" y="140" width="160" height="26" as="alternateBounds" />
          </mxGeometry>
        </mxCell>
        <mxCell id="-GhZ5hnbJG4GiWDYlXwf-1" value="Name" style="text;align=left;verticalAlign=top;spacingLeft=4;spacingRight=4;overflow=hidden;rotatable=0;points=[[0,0.5],[1,0.5]];portConstraint=eastwest;" parent="-GhZ5hnbJG4GiWDYlXwf-0" vertex="1">
          <mxGeometry y="26" width="280" height="26" as="geometry" />
        </mxCell>
        <mxCell id="Sm_HWyz5REnFkPzO1x1U-1" value="Managed System" style="text;align=left;verticalAlign=top;spacingLeft=4;spacingRight=4;overflow=hidden;rotatable=0;points=[[0,0.5],[1,0.5]];portConstraint=eastwest;rounded=0;shadow=0;html=0;fontStyle=1" parent="-GhZ5hnbJG4GiWDYlXwf-0" vertex="1">
          <mxGeometry y="52" width="280" height="26" as="geometry" />
        </mxCell>
        <mxCell id="-GhZ5hnbJG4GiWDYlXwf-2" value="Model" style="text;align=left;verticalAlign=top;spacingLeft=4;spacingRight=4;overflow=hidden;rotatable=0;points=[[0,0.5],[1,0.5]];portConstraint=eastwest;rounded=0;shadow=0;html=0;fontStyle=1" parent="-GhZ5hnbJG4GiWDYlXwf-0" vertex="1">
          <mxGeometry y="78" width="280" height="26" as="geometry" />
        </mxCell>
        <mxCell id="-GhZ5hnbJG4GiWDYlXwf-23" value="OS" style="text;align=left;verticalAlign=top;spacingLeft=4;spacingRight=4;overflow=hidden;rotatable=0;points=[[0,0.5],[1,0.5]];portConstraint=eastwest;rounded=0;shadow=0;html=0;fontStyle=1" parent="-GhZ5hnbJG4GiWDYlXwf-0" vertex="1">
          <mxGeometry y="104" width="280" height="26" as="geometry" />
        </mxCell>
        <mxCell id="-GhZ5hnbJG4GiWDYlXwf-24" value="DataCenter" style="text;align=left;verticalAlign=top;spacingLeft=4;spacingRight=4;overflow=hidden;rotatable=0;points=[[0,0.5],[1,0.5]];portConstraint=eastwest;rounded=0;shadow=0;html=0;fontStyle=1" parent="-GhZ5hnbJG4GiWDYlXwf-0" vertex="1">
          <mxGeometry y="130" width="280" height="26" as="geometry" />
        </mxCell>
        <mxCell id="-GhZ5hnbJG4GiWDYlXwf-25" value="Cluster" style="text;align=left;verticalAlign=top;spacingLeft=4;spacingRight=4;overflow=hidden;rotatable=0;points=[[0,0.5],[1,0.5]];portConstraint=eastwest;rounded=0;shadow=0;html=0;fontStyle=1" parent="-GhZ5hnbJG4GiWDYlXwf-0" vertex="1">
          <mxGeometry y="156" width="280" height="26" as="geometry" />
        </mxCell>
        <mxCell id="-GhZ5hnbJG4GiWDYlXwf-3" value="Servers 1" style="swimlane;fontStyle=0;align=center;verticalAlign=top;childLayout=stackLayout;horizontal=1;startSize=26;horizontalStack=0;resizeParent=1;resizeLast=0;collapsible=1;marginBottom=0;rounded=0;shadow=0;strokeWidth=1;" parent="WIyWlLk6GJQsqaUBKTNV-1" vertex="1">
          <mxGeometry x="-760" y="291" width="160" height="138" as="geometry">
            <mxRectangle x="130" y="380" width="160" height="26" as="alternateBounds" />
          </mxGeometry>
        </mxCell>
        <mxCell id="-GhZ5hnbJG4GiWDYlXwf-4" value="Server Name" style="text;align=left;verticalAlign=top;spacingLeft=4;spacingRight=4;overflow=hidden;rotatable=0;points=[[0,0.5],[1,0.5]];portConstraint=eastwest;" parent="-GhZ5hnbJG4GiWDYlXwf-3" vertex="1">
          <mxGeometry y="26" width="160" height="26" as="geometry" />
        </mxCell>
        <mxCell id="-GhZ5hnbJG4GiWDYlXwf-5" value="OS" style="text;align=left;verticalAlign=top;spacingLeft=4;spacingRight=4;overflow=hidden;rotatable=0;points=[[0,0.5],[1,0.5]];portConstraint=eastwest;rounded=0;shadow=0;html=0;" parent="-GhZ5hnbJG4GiWDYlXwf-3" vertex="1">
          <mxGeometry y="52" width="160" height="26" as="geometry" />
        </mxCell>
        <mxCell id="-GhZ5hnbJG4GiWDYlXwf-6" value="Product Name" style="text;align=left;verticalAlign=top;spacingLeft=4;spacingRight=4;overflow=hidden;rotatable=0;points=[[0,0.5],[1,0.5]];portConstraint=eastwest;fontStyle=4" parent="-GhZ5hnbJG4GiWDYlXwf-3" vertex="1">
          <mxGeometry y="78" width="160" height="26" as="geometry" />
        </mxCell>
        <mxCell id="-GhZ5hnbJG4GiWDYlXwf-8" value="" style="endArrow=block;endSize=10;endFill=0;shadow=0;strokeWidth=1;rounded=0;edgeStyle=elbowEdgeStyle;elbow=vertical;" parent="WIyWlLk6GJQsqaUBKTNV-1" source="-GhZ5hnbJG4GiWDYlXwf-3" target="-GhZ5hnbJG4GiWDYlXwf-0" edge="1">
          <mxGeometry width="160" relative="1" as="geometry">
            <mxPoint x="-660" y="183" as="sourcePoint" />
            <mxPoint x="-660" y="183" as="targetPoint" />
          </mxGeometry>
        </mxCell>
        <mxCell id="-GhZ5hnbJG4GiWDYlXwf-9" value="Servers 2" style="swimlane;fontStyle=0;align=center;verticalAlign=top;childLayout=stackLayout;horizontal=1;startSize=26;horizontalStack=0;resizeParent=1;resizeLast=0;collapsible=1;marginBottom=0;rounded=0;shadow=0;strokeWidth=1;" parent="WIyWlLk6GJQsqaUBKTNV-1" vertex="1">
          <mxGeometry x="-560" y="270" width="160" height="169" as="geometry">
            <mxRectangle x="550" y="140" width="160" height="26" as="alternateBounds" />
          </mxGeometry>
        </mxCell>
        <mxCell id="-GhZ5hnbJG4GiWDYlXwf-10" value="CI Name" style="text;align=left;verticalAlign=top;spacingLeft=4;spacingRight=4;overflow=hidden;rotatable=0;points=[[0,0.5],[1,0.5]];portConstraint=eastwest;" parent="-GhZ5hnbJG4GiWDYlXwf-9" vertex="1">
          <mxGeometry y="26" width="160" height="26" as="geometry" />
        </mxCell>
        <mxCell id="-GhZ5hnbJG4GiWDYlXwf-11" value="OS" style="text;align=left;verticalAlign=top;spacingLeft=4;spacingRight=4;overflow=hidden;rotatable=0;points=[[0,0.5],[1,0.5]];portConstraint=eastwest;rounded=0;shadow=0;html=0;" parent="-GhZ5hnbJG4GiWDYlXwf-9" vertex="1">
          <mxGeometry y="52" width="160" height="26" as="geometry" />
        </mxCell>
        <mxCell id="-GhZ5hnbJG4GiWDYlXwf-13" value="Model" style="text;align=left;verticalAlign=top;spacingLeft=4;spacingRight=4;overflow=hidden;rotatable=0;points=[[0,0.5],[1,0.5]];portConstraint=eastwest;rounded=0;shadow=0;html=0;" parent="-GhZ5hnbJG4GiWDYlXwf-9" vertex="1">
          <mxGeometry y="78" width="160" height="26" as="geometry" />
        </mxCell>
        <mxCell id="-GhZ5hnbJG4GiWDYlXwf-15" value="" style="endArrow=open;shadow=0;strokeWidth=1;rounded=0;endFill=1;edgeStyle=elbowEdgeStyle;elbow=vertical;" parent="WIyWlLk6GJQsqaUBKTNV-1" source="-GhZ5hnbJG4GiWDYlXwf-0" target="-GhZ5hnbJG4GiWDYlXwf-9" edge="1">
          <mxGeometry x="0.5" y="41" relative="1" as="geometry">
            <mxPoint x="-480" y="172" as="sourcePoint" />
            <mxPoint x="-320" y="172" as="targetPoint" />
            <mxPoint x="-40" y="32" as="offset" />
          </mxGeometry>
        </mxCell>
        <mxCell id="-GhZ5hnbJG4GiWDYlXwf-16" value="Servers 3" style="swimlane;fontStyle=0;align=center;verticalAlign=top;childLayout=stackLayout;horizontal=1;startSize=26;horizontalStack=0;resizeParent=1;resizeLast=0;collapsible=1;marginBottom=0;rounded=0;shadow=0;strokeWidth=1;" parent="WIyWlLk6GJQsqaUBKTNV-1" vertex="1">
          <mxGeometry x="-370" y="270" width="160" height="169" as="geometry">
            <mxRectangle x="550" y="140" width="160" height="26" as="alternateBounds" />
          </mxGeometry>
        </mxCell>
        <mxCell id="-GhZ5hnbJG4GiWDYlXwf-17" value="Name" style="text;align=left;verticalAlign=top;spacingLeft=4;spacingRight=4;overflow=hidden;rotatable=0;points=[[0,0.5],[1,0.5]];portConstraint=eastwest;" parent="-GhZ5hnbJG4GiWDYlXwf-16" vertex="1">
          <mxGeometry y="26" width="160" height="26" as="geometry" />
        </mxCell>
        <mxCell id="-GhZ5hnbJG4GiWDYlXwf-18" value="OS" style="text;align=left;verticalAlign=top;spacingLeft=4;spacingRight=4;overflow=hidden;rotatable=0;points=[[0,0.5],[1,0.5]];portConstraint=eastwest;rounded=0;shadow=0;html=0;" parent="-GhZ5hnbJG4GiWDYlXwf-16" vertex="1">
          <mxGeometry y="52" width="160" height="26" as="geometry" />
        </mxCell>
        <mxCell id="-GhZ5hnbJG4GiWDYlXwf-19" value="Model" style="text;align=left;verticalAlign=top;spacingLeft=4;spacingRight=4;overflow=hidden;rotatable=0;points=[[0,0.5],[1,0.5]];portConstraint=eastwest;rounded=0;shadow=0;html=0;" parent="-GhZ5hnbJG4GiWDYlXwf-16" vertex="1">
          <mxGeometry y="78" width="160" height="26" as="geometry" />
        </mxCell>
        <mxCell id="Sm_HWyz5REnFkPzO1x1U-0" value="" style="endArrow=block;endSize=10;endFill=0;shadow=0;strokeWidth=1;rounded=0;edgeStyle=elbowEdgeStyle;elbow=vertical;exitX=0.5;exitY=0;exitDx=0;exitDy=0;" parent="WIyWlLk6GJQsqaUBKTNV-1" source="-GhZ5hnbJG4GiWDYlXwf-16" edge="1">
          <mxGeometry width="160" relative="1" as="geometry">
            <mxPoint x="-330" y="251" as="sourcePoint" />
            <mxPoint x="-500" y="240" as="targetPoint" />
          </mxGeometry>
        </mxCell>
        <mxCell id="Sm_HWyz5REnFkPzO1x1U-2" value="Storage" style="rounded=0;whiteSpace=wrap;html=1;" parent="WIyWlLk6GJQsqaUBKTNV-1" vertex="1">
          <mxGeometry x="-730" y="510" width="570" height="60" as="geometry" />
        </mxCell>
        <mxCell id="Sm_HWyz5REnFkPzO1x1U-3" value="Servers 1" style="swimlane;fontStyle=0;align=center;verticalAlign=top;childLayout=stackLayout;horizontal=1;startSize=26;horizontalStack=0;resizeParent=1;resizeLast=0;collapsible=1;marginBottom=0;rounded=0;shadow=0;strokeWidth=1;" parent="WIyWlLk6GJQsqaUBKTNV-1" vertex="1">
          <mxGeometry x="-730" y="640" width="160" height="138" as="geometry">
            <mxRectangle x="130" y="380" width="160" height="26" as="alternateBounds" />
          </mxGeometry>
        </mxCell>
        <mxCell id="Sm_HWyz5REnFkPzO1x1U-4" value="Server Name" style="text;align=left;verticalAlign=top;spacingLeft=4;spacingRight=4;overflow=hidden;rotatable=0;points=[[0,0.5],[1,0.5]];portConstraint=eastwest;" parent="Sm_HWyz5REnFkPzO1x1U-3" vertex="1">
          <mxGeometry y="26" width="160" height="26" as="geometry" />
        </mxCell>
        <mxCell id="Sm_HWyz5REnFkPzO1x1U-5" value="OS" style="text;align=left;verticalAlign=top;spacingLeft=4;spacingRight=4;overflow=hidden;rotatable=0;points=[[0,0.5],[1,0.5]];portConstraint=eastwest;rounded=0;shadow=0;html=0;" parent="Sm_HWyz5REnFkPzO1x1U-3" vertex="1">
          <mxGeometry y="52" width="160" height="26" as="geometry" />
        </mxCell>
        <mxCell id="Sm_HWyz5REnFkPzO1x1U-6" value="Product Name" style="text;align=left;verticalAlign=top;spacingLeft=4;spacingRight=4;overflow=hidden;rotatable=0;points=[[0,0.5],[1,0.5]];portConstraint=eastwest;fontStyle=4" parent="Sm_HWyz5REnFkPzO1x1U-3" vertex="1">
          <mxGeometry y="78" width="160" height="26" as="geometry" />
        </mxCell>
        <mxCell id="Sm_HWyz5REnFkPzO1x1U-7" value="" style="endArrow=block;endSize=10;endFill=0;shadow=0;strokeWidth=1;rounded=0;edgeStyle=elbowEdgeStyle;elbow=vertical;" parent="WIyWlLk6GJQsqaUBKTNV-1" source="Sm_HWyz5REnFkPzO1x1U-3" edge="1">
          <mxGeometry width="160" relative="1" as="geometry">
            <mxPoint x="-840" y="726" as="sourcePoint" />
            <mxPoint x="-680" y="795" as="targetPoint" />
          </mxGeometry>
        </mxCell>
        <mxCell id="Sm_HWyz5REnFkPzO1x1U-8" value="SAN switch SW" style="swimlane;fontStyle=0;align=center;verticalAlign=top;childLayout=stackLayout;horizontal=1;startSize=26;horizontalStack=0;resizeParent=1;resizeLast=0;collapsible=1;marginBottom=0;rounded=0;shadow=0;strokeWidth=1;" parent="WIyWlLk6GJQsqaUBKTNV-1" vertex="1">
          <mxGeometry x="-740" y="813" width="160" height="169" as="geometry">
            <mxRectangle x="550" y="140" width="160" height="26" as="alternateBounds" />
          </mxGeometry>
        </mxCell>
        <mxCell id="Sm_HWyz5REnFkPzO1x1U-9" value="CI Name" style="text;align=left;verticalAlign=top;spacingLeft=4;spacingRight=4;overflow=hidden;rotatable=0;points=[[0,0.5],[1,0.5]];portConstraint=eastwest;" parent="Sm_HWyz5REnFkPzO1x1U-8" vertex="1">
          <mxGeometry y="26" width="160" height="26" as="geometry" />
        </mxCell>
        <mxCell id="Sm_HWyz5REnFkPzO1x1U-10" value="OS" style="text;align=left;verticalAlign=top;spacingLeft=4;spacingRight=4;overflow=hidden;rotatable=0;points=[[0,0.5],[1,0.5]];portConstraint=eastwest;rounded=0;shadow=0;html=0;" parent="Sm_HWyz5REnFkPzO1x1U-8" vertex="1">
          <mxGeometry y="52" width="160" height="26" as="geometry" />
        </mxCell>
        <mxCell id="Sm_HWyz5REnFkPzO1x1U-11" value="Model" style="text;align=left;verticalAlign=top;spacingLeft=4;spacingRight=4;overflow=hidden;rotatable=0;points=[[0,0.5],[1,0.5]];portConstraint=eastwest;rounded=0;shadow=0;html=0;" parent="Sm_HWyz5REnFkPzO1x1U-8" vertex="1">
          <mxGeometry y="78" width="160" height="26" as="geometry" />
        </mxCell>
        <mxCell id="Sm_HWyz5REnFkPzO1x1U-12" value="" style="endArrow=open;shadow=0;strokeWidth=1;rounded=0;endFill=1;edgeStyle=elbowEdgeStyle;elbow=vertical;" parent="WIyWlLk6GJQsqaUBKTNV-1" target="Sm_HWyz5REnFkPzO1x1U-8" edge="1">
          <mxGeometry x="0.5" y="41" relative="1" as="geometry">
            <mxPoint x="-680" y="795" as="sourcePoint" />
            <mxPoint x="-500" y="715" as="targetPoint" />
            <mxPoint x="-40" y="32" as="offset" />
          </mxGeometry>
        </mxCell>
        <mxCell id="Sm_HWyz5REnFkPzO1x1U-13" value="Servers 2" style="swimlane;fontStyle=0;align=center;verticalAlign=top;childLayout=stackLayout;horizontal=1;startSize=26;horizontalStack=0;resizeParent=1;resizeLast=0;collapsible=1;marginBottom=0;rounded=0;shadow=0;strokeWidth=1;" parent="WIyWlLk6GJQsqaUBKTNV-1" vertex="1">
          <mxGeometry x="-450" y="620" width="160" height="169" as="geometry">
            <mxRectangle x="550" y="140" width="160" height="26" as="alternateBounds" />
          </mxGeometry>
        </mxCell>
        <mxCell id="Sm_HWyz5REnFkPzO1x1U-14" value="Name" style="text;align=left;verticalAlign=top;spacingLeft=4;spacingRight=4;overflow=hidden;rotatable=0;points=[[0,0.5],[1,0.5]];portConstraint=eastwest;" parent="Sm_HWyz5REnFkPzO1x1U-13" vertex="1">
          <mxGeometry y="26" width="160" height="26" as="geometry" />
        </mxCell>
        <mxCell id="Sm_HWyz5REnFkPzO1x1U-15" value="OS" style="text;align=left;verticalAlign=top;spacingLeft=4;spacingRight=4;overflow=hidden;rotatable=0;points=[[0,0.5],[1,0.5]];portConstraint=eastwest;rounded=0;shadow=0;html=0;" parent="Sm_HWyz5REnFkPzO1x1U-13" vertex="1">
          <mxGeometry y="52" width="160" height="26" as="geometry" />
        </mxCell>
        <mxCell id="Sm_HWyz5REnFkPzO1x1U-16" value="Model" style="text;align=left;verticalAlign=top;spacingLeft=4;spacingRight=4;overflow=hidden;rotatable=0;points=[[0,0.5],[1,0.5]];portConstraint=eastwest;rounded=0;shadow=0;html=0;" parent="Sm_HWyz5REnFkPzO1x1U-13" vertex="1">
          <mxGeometry y="78" width="160" height="26" as="geometry" />
        </mxCell>
        <mxCell id="Sm_HWyz5REnFkPzO1x1U-17" value="Backup Appliance" style="swimlane;fontStyle=0;align=center;verticalAlign=top;childLayout=stackLayout;horizontal=1;startSize=26;horizontalStack=0;resizeParent=1;resizeLast=0;collapsible=1;marginBottom=0;rounded=0;shadow=0;strokeWidth=1;" parent="WIyWlLk6GJQsqaUBKTNV-1" vertex="1">
          <mxGeometry x="-440" y="820" width="160" height="169" as="geometry">
            <mxRectangle x="550" y="140" width="160" height="26" as="alternateBounds" />
          </mxGeometry>
        </mxCell>
        <mxCell id="Sm_HWyz5REnFkPzO1x1U-18" value="Name" style="text;align=left;verticalAlign=top;spacingLeft=4;spacingRight=4;overflow=hidden;rotatable=0;points=[[0,0.5],[1,0.5]];portConstraint=eastwest;" parent="Sm_HWyz5REnFkPzO1x1U-17" vertex="1">
          <mxGeometry y="26" width="160" height="26" as="geometry" />
        </mxCell>
        <mxCell id="Sm_HWyz5REnFkPzO1x1U-19" value="OS" style="text;align=left;verticalAlign=top;spacingLeft=4;spacingRight=4;overflow=hidden;rotatable=0;points=[[0,0.5],[1,0.5]];portConstraint=eastwest;rounded=0;shadow=0;html=0;" parent="Sm_HWyz5REnFkPzO1x1U-17" vertex="1">
          <mxGeometry y="52" width="160" height="26" as="geometry" />
        </mxCell>
        <mxCell id="Sm_HWyz5REnFkPzO1x1U-20" value="Model" style="text;align=left;verticalAlign=top;spacingLeft=4;spacingRight=4;overflow=hidden;rotatable=0;points=[[0,0.5],[1,0.5]];portConstraint=eastwest;rounded=0;shadow=0;html=0;" parent="Sm_HWyz5REnFkPzO1x1U-17" vertex="1">
          <mxGeometry y="78" width="160" height="26" as="geometry" />
        </mxCell>
        <mxCell id="Sm_HWyz5REnFkPzO1x1U-21" value="" style="endArrow=open;shadow=0;strokeWidth=1;rounded=0;endFill=1;edgeStyle=elbowEdgeStyle;elbow=vertical;" parent="WIyWlLk6GJQsqaUBKTNV-1" edge="1">
          <mxGeometry x="0.5" y="41" relative="1" as="geometry">
            <mxPoint x="-390" y="780" as="sourcePoint" />
            <mxPoint x="-360" y="832" as="targetPoint" />
            <mxPoint x="-40" y="32" as="offset" />
            <Array as="points">
              <mxPoint x="-190" y="789" />
            </Array>
          </mxGeometry>
        </mxCell>
        <mxCell id="Sm_HWyz5REnFkPzO1x1U-22" value="Network" style="rounded=0;whiteSpace=wrap;html=1;" parent="WIyWlLk6GJQsqaUBKTNV-1" vertex="1">
          <mxGeometry x="10" y="503" width="570" height="60" as="geometry" />
        </mxCell>
        <mxCell id="Sm_HWyz5REnFkPzO1x1U-23" value="Servers 1" style="swimlane;fontStyle=0;align=center;verticalAlign=top;childLayout=stackLayout;horizontal=1;startSize=26;horizontalStack=0;resizeParent=1;resizeLast=0;collapsible=1;marginBottom=0;rounded=0;shadow=0;strokeWidth=1;" parent="WIyWlLk6GJQsqaUBKTNV-1" vertex="1">
          <mxGeometry x="215" y="590" width="160" height="138" as="geometry">
            <mxRectangle x="130" y="380" width="160" height="26" as="alternateBounds" />
          </mxGeometry>
        </mxCell>
        <mxCell id="Sm_HWyz5REnFkPzO1x1U-24" value="VM" style="text;align=left;verticalAlign=top;spacingLeft=4;spacingRight=4;overflow=hidden;rotatable=0;points=[[0,0.5],[1,0.5]];portConstraint=eastwest;" parent="Sm_HWyz5REnFkPzO1x1U-23" vertex="1">
          <mxGeometry y="26" width="160" height="26" as="geometry" />
        </mxCell>
        <mxCell id="Sm_HWyz5REnFkPzO1x1U-25" value="IP Address" style="text;align=left;verticalAlign=top;spacingLeft=4;spacingRight=4;overflow=hidden;rotatable=0;points=[[0,0.5],[1,0.5]];portConstraint=eastwest;rounded=0;shadow=0;html=0;" parent="Sm_HWyz5REnFkPzO1x1U-23" vertex="1">
          <mxGeometry y="52" width="160" height="26" as="geometry" />
        </mxCell>
        <mxCell id="Sm_HWyz5REnFkPzO1x1U-26" value="MAC Address" style="text;align=left;verticalAlign=top;spacingLeft=4;spacingRight=4;overflow=hidden;rotatable=0;points=[[0,0.5],[1,0.5]];portConstraint=eastwest;fontStyle=4" parent="Sm_HWyz5REnFkPzO1x1U-23" vertex="1">
          <mxGeometry y="78" width="160" height="26" as="geometry" />
        </mxCell>
        <mxCell id="Sm_HWyz5REnFkPzO1x1U-27" value="" style="endArrow=block;endSize=10;endFill=0;shadow=0;strokeWidth=1;rounded=0;edgeStyle=elbowEdgeStyle;elbow=vertical;" parent="WIyWlLk6GJQsqaUBKTNV-1" source="Sm_HWyz5REnFkPzO1x1U-23" edge="1">
          <mxGeometry width="160" relative="1" as="geometry">
            <mxPoint x="-100" y="719" as="sourcePoint" />
            <mxPoint x="60" y="788" as="targetPoint" />
          </mxGeometry>
        </mxCell>
        <mxCell id="Sm_HWyz5REnFkPzO1x1U-28" value="Network" style="swimlane;fontStyle=0;align=center;verticalAlign=top;childLayout=stackLayout;horizontal=1;startSize=26;horizontalStack=0;resizeParent=1;resizeLast=0;collapsible=1;marginBottom=0;rounded=0;shadow=0;strokeWidth=1;" parent="WIyWlLk6GJQsqaUBKTNV-1" vertex="1">
          <mxGeometry y="806" width="160" height="169" as="geometry">
            <mxRectangle x="550" y="140" width="160" height="26" as="alternateBounds" />
          </mxGeometry>
        </mxCell>
        <mxCell id="Sm_HWyz5REnFkPzO1x1U-29" value="DNS Name" style="text;align=left;verticalAlign=top;spacingLeft=4;spacingRight=4;overflow=hidden;rotatable=0;points=[[0,0.5],[1,0.5]];portConstraint=eastwest;" parent="Sm_HWyz5REnFkPzO1x1U-28" vertex="1">
          <mxGeometry y="26" width="160" height="26" as="geometry" />
        </mxCell>
        <mxCell id="Sm_HWyz5REnFkPzO1x1U-30" value="IP Address" style="text;align=left;verticalAlign=top;spacingLeft=4;spacingRight=4;overflow=hidden;rotatable=0;points=[[0,0.5],[1,0.5]];portConstraint=eastwest;rounded=0;shadow=0;html=0;" parent="Sm_HWyz5REnFkPzO1x1U-28" vertex="1">
          <mxGeometry y="52" width="160" height="26" as="geometry" />
        </mxCell>
        <mxCell id="Sm_HWyz5REnFkPzO1x1U-31" value="Switch" style="text;align=left;verticalAlign=top;spacingLeft=4;spacingRight=4;overflow=hidden;rotatable=0;points=[[0,0.5],[1,0.5]];portConstraint=eastwest;rounded=0;shadow=0;html=0;" parent="Sm_HWyz5REnFkPzO1x1U-28" vertex="1">
          <mxGeometry y="78" width="160" height="26" as="geometry" />
        </mxCell>
        <mxCell id="Sm_HWyz5REnFkPzO1x1U-32" value="" style="endArrow=open;shadow=0;strokeWidth=1;rounded=0;endFill=1;edgeStyle=elbowEdgeStyle;elbow=vertical;" parent="WIyWlLk6GJQsqaUBKTNV-1" target="Sm_HWyz5REnFkPzO1x1U-28" edge="1">
          <mxGeometry x="0.5" y="41" relative="1" as="geometry">
            <mxPoint x="60" y="788" as="sourcePoint" />
            <mxPoint x="240" y="708" as="targetPoint" />
            <mxPoint x="-40" y="32" as="offset" />
          </mxGeometry>
        </mxCell>
        <mxCell id="Sm_HWyz5REnFkPzO1x1U-37" value="Backup Appliance" style="swimlane;fontStyle=0;align=center;verticalAlign=top;childLayout=stackLayout;horizontal=1;startSize=26;horizontalStack=0;resizeParent=1;resizeLast=0;collapsible=1;marginBottom=0;rounded=0;shadow=0;strokeWidth=1;" parent="WIyWlLk6GJQsqaUBKTNV-1" vertex="1">
          <mxGeometry x="300" y="813" width="160" height="169" as="geometry">
            <mxRectangle x="550" y="140" width="160" height="26" as="alternateBounds" />
          </mxGeometry>
        </mxCell>
        <mxCell id="Sm_HWyz5REnFkPzO1x1U-38" value="Software Version" style="text;align=left;verticalAlign=top;spacingLeft=4;spacingRight=4;overflow=hidden;rotatable=0;points=[[0,0.5],[1,0.5]];portConstraint=eastwest;" parent="Sm_HWyz5REnFkPzO1x1U-37" vertex="1">
          <mxGeometry y="26" width="160" height="26" as="geometry" />
        </mxCell>
        <mxCell id="Sm_HWyz5REnFkPzO1x1U-39" value="Hostname(Server)" style="text;align=left;verticalAlign=top;spacingLeft=4;spacingRight=4;overflow=hidden;rotatable=0;points=[[0,0.5],[1,0.5]];portConstraint=eastwest;rounded=0;shadow=0;html=0;" parent="Sm_HWyz5REnFkPzO1x1U-37" vertex="1">
          <mxGeometry y="52" width="160" height="26" as="geometry" />
        </mxCell>
        <mxCell id="Sm_HWyz5REnFkPzO1x1U-40" value="Model(Switch)" style="text;align=left;verticalAlign=top;spacingLeft=4;spacingRight=4;overflow=hidden;rotatable=0;points=[[0,0.5],[1,0.5]];portConstraint=eastwest;rounded=0;shadow=0;html=0;" parent="Sm_HWyz5REnFkPzO1x1U-37" vertex="1">
          <mxGeometry y="78" width="160" height="26" as="geometry" />
        </mxCell>
        <mxCell id="Sm_HWyz5REnFkPzO1x1U-41" value="" style="endArrow=open;shadow=0;strokeWidth=1;rounded=0;endFill=1;edgeStyle=elbowEdgeStyle;elbow=vertical;exitX=1.008;exitY=1.177;exitDx=0;exitDy=0;exitPerimeter=0;" parent="WIyWlLk6GJQsqaUBKTNV-1" source="Sm_HWyz5REnFkPzO1x1U-30" edge="1">
          <mxGeometry x="0.5" y="41" relative="1" as="geometry">
            <mxPoint x="240" y="810" as="sourcePoint" />
            <mxPoint x="380" y="825" as="targetPoint" />
            <mxPoint x="-40" y="32" as="offset" />
            <Array as="points">
              <mxPoint x="550" y="782" />
            </Array>
          </mxGeometry>
        </mxCell>
        <mxCell id="Sm_HWyz5REnFkPzO1x1U-42" value="" style="verticalLabelPosition=bottom;verticalAlign=top;html=1;shape=mxgraph.basic.tick;fillColor=none;strokeColor=#82b366;strokeWidth=6;" parent="WIyWlLk6GJQsqaUBKTNV-1" vertex="1">
          <mxGeometry x="380" y="109" width="360" height="320" as="geometry" />
        </mxCell>
        <mxCell id="Sm_HWyz5REnFkPzO1x1U-43" value="" style="verticalLabelPosition=bottom;verticalAlign=top;html=1;shape=mxgraph.basic.tick;fillColor=none;strokeColor=#82b366;strokeWidth=6;" parent="WIyWlLk6GJQsqaUBKTNV-1" vertex="1">
          <mxGeometry x="-570" y="880" width="360" height="320" as="geometry" />
        </mxCell>
        <mxCell id="Rz99RcxSJR_LgKvzdda6-0" value="LFC Data" style="rounded=0;whiteSpace=wrap;html=1;" parent="WIyWlLk6GJQsqaUBKTNV-1" vertex="1">
          <mxGeometry x="720" y="503" width="570" height="60" as="geometry" />
        </mxCell>
        <mxCell id="Rz99RcxSJR_LgKvzdda6-1" value="LFC" style="swimlane;fontStyle=0;align=center;verticalAlign=top;childLayout=stackLayout;horizontal=1;startSize=26;horizontalStack=0;resizeParent=1;resizeLast=0;collapsible=1;marginBottom=0;rounded=0;shadow=0;strokeWidth=1;" parent="WIyWlLk6GJQsqaUBKTNV-1" vertex="1">
          <mxGeometry x="925" y="600" width="160" height="138" as="geometry">
            <mxRectangle x="130" y="380" width="160" height="26" as="alternateBounds" />
          </mxGeometry>
        </mxCell>
        <mxCell id="Rz99RcxSJR_LgKvzdda6-2" value="Hardware" style="text;align=left;verticalAlign=top;spacingLeft=4;spacingRight=4;overflow=hidden;rotatable=0;points=[[0,0.5],[1,0.5]];portConstraint=eastwest;" parent="Rz99RcxSJR_LgKvzdda6-1" vertex="1">
          <mxGeometry y="26" width="160" height="26" as="geometry" />
        </mxCell>
        <mxCell id="Rz99RcxSJR_LgKvzdda6-3" value="Software" style="text;align=left;verticalAlign=top;spacingLeft=4;spacingRight=4;overflow=hidden;rotatable=0;points=[[0,0.5],[1,0.5]];portConstraint=eastwest;rounded=0;shadow=0;html=0;" parent="Rz99RcxSJR_LgKvzdda6-1" vertex="1">
          <mxGeometry y="52" width="160" height="26" as="geometry" />
        </mxCell>
        <mxCell id="Rz99RcxSJR_LgKvzdda6-4" value="HW/SW LFC Data" style="text;align=left;verticalAlign=top;spacingLeft=4;spacingRight=4;overflow=hidden;rotatable=0;points=[[0,0.5],[1,0.5]];portConstraint=eastwest;fontStyle=4" parent="Rz99RcxSJR_LgKvzdda6-1" vertex="1">
          <mxGeometry y="78" width="160" height="26" as="geometry" />
        </mxCell>
        <mxCell id="Rz99RcxSJR_LgKvzdda6-5" value="Support dates" style="text;align=left;verticalAlign=top;spacingLeft=4;spacingRight=4;overflow=hidden;rotatable=0;points=[[0,0.5],[1,0.5]];portConstraint=eastwest;fontStyle=4" parent="Rz99RcxSJR_LgKvzdda6-1" vertex="1">
          <mxGeometry y="104" width="160" height="26" as="geometry" />
        </mxCell>
        <mxCell id="Rz99RcxSJR_LgKvzdda6-6" value="" style="verticalLabelPosition=bottom;verticalAlign=top;html=1;shape=mxgraph.basic.tick;fillColor=none;strokeColor=#82b366;strokeWidth=6;" parent="WIyWlLk6GJQsqaUBKTNV-1" vertex="1">
          <mxGeometry x="460" y="630" width="360" height="320" as="geometry" />
        </mxCell>
        <mxCell id="Rz99RcxSJR_LgKvzdda6-7" value="" style="verticalLabelPosition=bottom;verticalAlign=top;html=1;shape=mxgraph.basic.tick;fillColor=none;strokeColor=#82b366;strokeWidth=6;" parent="WIyWlLk6GJQsqaUBKTNV-1" vertex="1">
          <mxGeometry x="-330" y="100" width="360" height="320" as="geometry" />
        </mxCell>
        <mxCell id="Rz99RcxSJR_LgKvzdda6-8" value="" style="verticalLabelPosition=bottom;verticalAlign=top;html=1;shape=mxgraph.basic.tick;fillColor=none;strokeColor=#82b366;strokeWidth=6;" parent="WIyWlLk6GJQsqaUBKTNV-1" vertex="1">
          <mxGeometry x="1010" y="610" width="360" height="320" as="geometry" />
        </mxCell>
      </root>
    </mxGraphModel>
  </diagram>
  <diagram name="Story 1" id="O_xcr1esb673R6JHNSCc">
    <mxGraphModel dx="1621" dy="394" grid="1" gridSize="10" guides="1" tooltips="1" connect="1" arrows="1" fold="1" page="1" pageScale="1" pageWidth="827" pageHeight="1169" math="0" shadow="0">
      <root>
        <mxCell id="HiX64u8pehBDS7wgLVIx-0" />
        <mxCell id="HiX64u8pehBDS7wgLVIx-1" parent="HiX64u8pehBDS7wgLVIx-0" />
        <mxCell id="HiX64u8pehBDS7wgLVIx-2" value="Business Units" style="swimlane;fontStyle=2;align=center;verticalAlign=top;childLayout=stackLayout;horizontal=1;startSize=26;horizontalStack=0;resizeParent=1;resizeLast=0;collapsible=1;marginBottom=0;rounded=0;shadow=0;strokeWidth=1;" parent="HiX64u8pehBDS7wgLVIx-1" vertex="1">
          <mxGeometry x="100" y="90" width="160" height="138" as="geometry">
            <mxRectangle x="230" y="140" width="160" height="26" as="alternateBounds" />
          </mxGeometry>
        </mxCell>
        <mxCell id="HiX64u8pehBDS7wgLVIx-3" value="Name" style="text;align=left;verticalAlign=top;spacingLeft=4;spacingRight=4;overflow=hidden;rotatable=0;points=[[0,0.5],[1,0.5]];portConstraint=eastwest;" parent="HiX64u8pehBDS7wgLVIx-2" vertex="1">
          <mxGeometry y="26" width="160" height="26" as="geometry" />
        </mxCell>
        <mxCell id="HiX64u8pehBDS7wgLVIx-4" value="APP ID" style="text;align=left;verticalAlign=top;spacingLeft=4;spacingRight=4;overflow=hidden;rotatable=0;points=[[0,0.5],[1,0.5]];portConstraint=eastwest;rounded=0;shadow=0;html=0;fontStyle=1" parent="HiX64u8pehBDS7wgLVIx-2" vertex="1">
          <mxGeometry y="52" width="160" height="26" as="geometry" />
        </mxCell>
        <mxCell id="HiX64u8pehBDS7wgLVIx-5" value="Servers " style="swimlane;fontStyle=0;align=center;verticalAlign=top;childLayout=stackLayout;horizontal=1;startSize=26;horizontalStack=0;resizeParent=1;resizeLast=0;collapsible=1;marginBottom=0;rounded=0;shadow=0;strokeWidth=1;" parent="HiX64u8pehBDS7wgLVIx-1" vertex="1">
          <mxGeometry x="10" y="260" width="160" height="138" as="geometry">
            <mxRectangle x="130" y="380" width="160" height="26" as="alternateBounds" />
          </mxGeometry>
        </mxCell>
        <mxCell id="HiX64u8pehBDS7wgLVIx-6" value="Server Name" style="text;align=left;verticalAlign=top;spacingLeft=4;spacingRight=4;overflow=hidden;rotatable=0;points=[[0,0.5],[1,0.5]];portConstraint=eastwest;" parent="HiX64u8pehBDS7wgLVIx-5" vertex="1">
          <mxGeometry y="26" width="160" height="26" as="geometry" />
        </mxCell>
        <mxCell id="HiX64u8pehBDS7wgLVIx-7" value="Status" style="text;align=left;verticalAlign=top;spacingLeft=4;spacingRight=4;overflow=hidden;rotatable=0;points=[[0,0.5],[1,0.5]];portConstraint=eastwest;rounded=0;shadow=0;html=0;" parent="HiX64u8pehBDS7wgLVIx-5" vertex="1">
          <mxGeometry y="52" width="160" height="26" as="geometry" />
        </mxCell>
        <mxCell id="HiX64u8pehBDS7wgLVIx-8" value="System envirnonment " style="text;align=left;verticalAlign=top;spacingLeft=4;spacingRight=4;overflow=hidden;rotatable=0;points=[[0,0.5],[1,0.5]];portConstraint=eastwest;fontStyle=4" parent="HiX64u8pehBDS7wgLVIx-5" vertex="1">
          <mxGeometry y="78" width="160" height="26" as="geometry" />
        </mxCell>
        <mxCell id="HiX64u8pehBDS7wgLVIx-9" value="APP ID" style="text;align=left;verticalAlign=top;spacingLeft=4;spacingRight=4;overflow=hidden;rotatable=0;points=[[0,0.5],[1,0.5]];portConstraint=eastwest;fontStyle=5" parent="HiX64u8pehBDS7wgLVIx-5" vertex="1">
          <mxGeometry y="104" width="160" height="26" as="geometry" />
        </mxCell>
        <mxCell id="HiX64u8pehBDS7wgLVIx-10" value="" style="endArrow=block;endSize=10;endFill=0;shadow=0;strokeWidth=1;rounded=0;edgeStyle=elbowEdgeStyle;elbow=vertical;" parent="HiX64u8pehBDS7wgLVIx-1" source="HiX64u8pehBDS7wgLVIx-5" target="HiX64u8pehBDS7wgLVIx-2" edge="1">
          <mxGeometry width="160" relative="1" as="geometry">
            <mxPoint x="80" y="173" as="sourcePoint" />
            <mxPoint x="80" y="173" as="targetPoint" />
          </mxGeometry>
        </mxCell>
        <mxCell id="HiX64u8pehBDS7wgLVIx-11" value="Applications" style="swimlane;fontStyle=0;align=center;verticalAlign=top;childLayout=stackLayout;horizontal=1;startSize=26;horizontalStack=0;resizeParent=1;resizeLast=0;collapsible=1;marginBottom=0;rounded=0;shadow=0;strokeWidth=1;" parent="HiX64u8pehBDS7wgLVIx-1" vertex="1">
          <mxGeometry x="180" y="260" width="160" height="169" as="geometry">
            <mxRectangle x="550" y="140" width="160" height="26" as="alternateBounds" />
          </mxGeometry>
        </mxCell>
        <mxCell id="HiX64u8pehBDS7wgLVIx-12" value="App Name" style="text;align=left;verticalAlign=top;spacingLeft=4;spacingRight=4;overflow=hidden;rotatable=0;points=[[0,0.5],[1,0.5]];portConstraint=eastwest;" parent="HiX64u8pehBDS7wgLVIx-11" vertex="1">
          <mxGeometry y="26" width="160" height="26" as="geometry" />
        </mxCell>
        <mxCell id="HiX64u8pehBDS7wgLVIx-13" value="Object State" style="text;align=left;verticalAlign=top;spacingLeft=4;spacingRight=4;overflow=hidden;rotatable=0;points=[[0,0.5],[1,0.5]];portConstraint=eastwest;rounded=0;shadow=0;html=0;" parent="HiX64u8pehBDS7wgLVIx-11" vertex="1">
          <mxGeometry y="52" width="160" height="26" as="geometry" />
        </mxCell>
        <mxCell id="HiX64u8pehBDS7wgLVIx-14" value="Asset Type" style="text;align=left;verticalAlign=top;spacingLeft=4;spacingRight=4;overflow=hidden;rotatable=0;points=[[0,0.5],[1,0.5]];portConstraint=eastwest;rounded=0;shadow=0;html=0;" parent="HiX64u8pehBDS7wgLVIx-11" vertex="1">
          <mxGeometry y="78" width="160" height="26" as="geometry" />
        </mxCell>
        <mxCell id="HiX64u8pehBDS7wgLVIx-15" value="Line of Business" style="text;align=left;verticalAlign=top;spacingLeft=4;spacingRight=4;overflow=hidden;rotatable=0;points=[[0,0.5],[1,0.5]];portConstraint=eastwest;rounded=0;shadow=0;html=0;" parent="HiX64u8pehBDS7wgLVIx-11" vertex="1">
          <mxGeometry y="104" width="160" height="26" as="geometry" />
        </mxCell>
        <mxCell id="HiX64u8pehBDS7wgLVIx-16" value="APP ID" style="text;align=left;verticalAlign=top;spacingLeft=4;spacingRight=4;overflow=hidden;rotatable=0;points=[[0,0.5],[1,0.5]];portConstraint=eastwest;rounded=0;shadow=0;html=0;fontStyle=1" parent="HiX64u8pehBDS7wgLVIx-11" vertex="1">
          <mxGeometry y="130" width="160" height="26" as="geometry" />
        </mxCell>
        <mxCell id="HiX64u8pehBDS7wgLVIx-17" value="" style="endArrow=open;shadow=0;strokeWidth=1;rounded=0;endFill=1;edgeStyle=elbowEdgeStyle;elbow=vertical;" parent="HiX64u8pehBDS7wgLVIx-1" source="HiX64u8pehBDS7wgLVIx-2" target="HiX64u8pehBDS7wgLVIx-11" edge="1">
          <mxGeometry x="0.5" y="41" relative="1" as="geometry">
            <mxPoint x="260" y="162" as="sourcePoint" />
            <mxPoint x="420" y="162" as="targetPoint" />
            <mxPoint x="-40" y="32" as="offset" />
          </mxGeometry>
        </mxCell>
        <mxCell id="HiX64u8pehBDS7wgLVIx-18" value="Business Unit to App to Server" style="rounded=0;whiteSpace=wrap;html=1;" parent="HiX64u8pehBDS7wgLVIx-1" vertex="1">
          <mxGeometry x="20" width="570" height="60" as="geometry" />
        </mxCell>
        <mxCell id="HiX64u8pehBDS7wgLVIx-19" value="Compute " style="rounded=0;whiteSpace=wrap;html=1;" parent="HiX64u8pehBDS7wgLVIx-1" vertex="1">
          <mxGeometry x="-730" width="570" height="60" as="geometry" />
        </mxCell>
        <mxCell id="HiX64u8pehBDS7wgLVIx-20" value="Servers 0" style="swimlane;fontStyle=2;align=center;verticalAlign=top;childLayout=stackLayout;horizontal=1;startSize=26;horizontalStack=0;resizeParent=1;resizeLast=0;collapsible=1;marginBottom=0;rounded=0;shadow=0;strokeWidth=1;" parent="HiX64u8pehBDS7wgLVIx-1" vertex="1">
          <mxGeometry x="-640" y="70" width="280" height="182" as="geometry">
            <mxRectangle x="230" y="140" width="160" height="26" as="alternateBounds" />
          </mxGeometry>
        </mxCell>
        <mxCell id="HiX64u8pehBDS7wgLVIx-21" value="Name" style="text;align=left;verticalAlign=top;spacingLeft=4;spacingRight=4;overflow=hidden;rotatable=0;points=[[0,0.5],[1,0.5]];portConstraint=eastwest;" parent="HiX64u8pehBDS7wgLVIx-20" vertex="1">
          <mxGeometry y="26" width="280" height="26" as="geometry" />
        </mxCell>
        <mxCell id="HiX64u8pehBDS7wgLVIx-22" value="Managed System" style="text;align=left;verticalAlign=top;spacingLeft=4;spacingRight=4;overflow=hidden;rotatable=0;points=[[0,0.5],[1,0.5]];portConstraint=eastwest;rounded=0;shadow=0;html=0;fontStyle=1" parent="HiX64u8pehBDS7wgLVIx-20" vertex="1">
          <mxGeometry y="52" width="280" height="26" as="geometry" />
        </mxCell>
        <mxCell id="HiX64u8pehBDS7wgLVIx-23" value="Model" style="text;align=left;verticalAlign=top;spacingLeft=4;spacingRight=4;overflow=hidden;rotatable=0;points=[[0,0.5],[1,0.5]];portConstraint=eastwest;rounded=0;shadow=0;html=0;fontStyle=1" parent="HiX64u8pehBDS7wgLVIx-20" vertex="1">
          <mxGeometry y="78" width="280" height="26" as="geometry" />
        </mxCell>
        <mxCell id="HiX64u8pehBDS7wgLVIx-24" value="OS" style="text;align=left;verticalAlign=top;spacingLeft=4;spacingRight=4;overflow=hidden;rotatable=0;points=[[0,0.5],[1,0.5]];portConstraint=eastwest;rounded=0;shadow=0;html=0;fontStyle=1" parent="HiX64u8pehBDS7wgLVIx-20" vertex="1">
          <mxGeometry y="104" width="280" height="26" as="geometry" />
        </mxCell>
        <mxCell id="HiX64u8pehBDS7wgLVIx-25" value="DataCenter" style="text;align=left;verticalAlign=top;spacingLeft=4;spacingRight=4;overflow=hidden;rotatable=0;points=[[0,0.5],[1,0.5]];portConstraint=eastwest;rounded=0;shadow=0;html=0;fontStyle=1" parent="HiX64u8pehBDS7wgLVIx-20" vertex="1">
          <mxGeometry y="130" width="280" height="26" as="geometry" />
        </mxCell>
        <mxCell id="HiX64u8pehBDS7wgLVIx-26" value="Cluster" style="text;align=left;verticalAlign=top;spacingLeft=4;spacingRight=4;overflow=hidden;rotatable=0;points=[[0,0.5],[1,0.5]];portConstraint=eastwest;rounded=0;shadow=0;html=0;fontStyle=1" parent="HiX64u8pehBDS7wgLVIx-20" vertex="1">
          <mxGeometry y="156" width="280" height="26" as="geometry" />
        </mxCell>
        <mxCell id="HiX64u8pehBDS7wgLVIx-27" value="Servers 1" style="swimlane;fontStyle=0;align=center;verticalAlign=top;childLayout=stackLayout;horizontal=1;startSize=26;horizontalStack=0;resizeParent=1;resizeLast=0;collapsible=1;marginBottom=0;rounded=0;shadow=0;strokeWidth=1;" parent="HiX64u8pehBDS7wgLVIx-1" vertex="1">
          <mxGeometry x="-760" y="291" width="160" height="138" as="geometry">
            <mxRectangle x="130" y="380" width="160" height="26" as="alternateBounds" />
          </mxGeometry>
        </mxCell>
        <mxCell id="HiX64u8pehBDS7wgLVIx-28" value="Server Name" style="text;align=left;verticalAlign=top;spacingLeft=4;spacingRight=4;overflow=hidden;rotatable=0;points=[[0,0.5],[1,0.5]];portConstraint=eastwest;" parent="HiX64u8pehBDS7wgLVIx-27" vertex="1">
          <mxGeometry y="26" width="160" height="26" as="geometry" />
        </mxCell>
        <mxCell id="HiX64u8pehBDS7wgLVIx-29" value="OS" style="text;align=left;verticalAlign=top;spacingLeft=4;spacingRight=4;overflow=hidden;rotatable=0;points=[[0,0.5],[1,0.5]];portConstraint=eastwest;rounded=0;shadow=0;html=0;" parent="HiX64u8pehBDS7wgLVIx-27" vertex="1">
          <mxGeometry y="52" width="160" height="26" as="geometry" />
        </mxCell>
        <mxCell id="HiX64u8pehBDS7wgLVIx-30" value="Product Name" style="text;align=left;verticalAlign=top;spacingLeft=4;spacingRight=4;overflow=hidden;rotatable=0;points=[[0,0.5],[1,0.5]];portConstraint=eastwest;fontStyle=4" parent="HiX64u8pehBDS7wgLVIx-27" vertex="1">
          <mxGeometry y="78" width="160" height="26" as="geometry" />
        </mxCell>
        <mxCell id="HiX64u8pehBDS7wgLVIx-31" value="" style="endArrow=block;endSize=10;endFill=0;shadow=0;strokeWidth=1;rounded=0;edgeStyle=elbowEdgeStyle;elbow=vertical;" parent="HiX64u8pehBDS7wgLVIx-1" source="HiX64u8pehBDS7wgLVIx-27" target="HiX64u8pehBDS7wgLVIx-20" edge="1">
          <mxGeometry width="160" relative="1" as="geometry">
            <mxPoint x="-660" y="183" as="sourcePoint" />
            <mxPoint x="-660" y="183" as="targetPoint" />
          </mxGeometry>
        </mxCell>
        <mxCell id="HiX64u8pehBDS7wgLVIx-32" value="Servers 2" style="swimlane;fontStyle=0;align=center;verticalAlign=top;childLayout=stackLayout;horizontal=1;startSize=26;horizontalStack=0;resizeParent=1;resizeLast=0;collapsible=1;marginBottom=0;rounded=0;shadow=0;strokeWidth=1;" parent="HiX64u8pehBDS7wgLVIx-1" vertex="1">
          <mxGeometry x="-560" y="270" width="160" height="169" as="geometry">
            <mxRectangle x="550" y="140" width="160" height="26" as="alternateBounds" />
          </mxGeometry>
        </mxCell>
        <mxCell id="HiX64u8pehBDS7wgLVIx-33" value="CI Name" style="text;align=left;verticalAlign=top;spacingLeft=4;spacingRight=4;overflow=hidden;rotatable=0;points=[[0,0.5],[1,0.5]];portConstraint=eastwest;" parent="HiX64u8pehBDS7wgLVIx-32" vertex="1">
          <mxGeometry y="26" width="160" height="26" as="geometry" />
        </mxCell>
        <mxCell id="HiX64u8pehBDS7wgLVIx-34" value="OS" style="text;align=left;verticalAlign=top;spacingLeft=4;spacingRight=4;overflow=hidden;rotatable=0;points=[[0,0.5],[1,0.5]];portConstraint=eastwest;rounded=0;shadow=0;html=0;" parent="HiX64u8pehBDS7wgLVIx-32" vertex="1">
          <mxGeometry y="52" width="160" height="26" as="geometry" />
        </mxCell>
        <mxCell id="HiX64u8pehBDS7wgLVIx-35" value="Model" style="text;align=left;verticalAlign=top;spacingLeft=4;spacingRight=4;overflow=hidden;rotatable=0;points=[[0,0.5],[1,0.5]];portConstraint=eastwest;rounded=0;shadow=0;html=0;" parent="HiX64u8pehBDS7wgLVIx-32" vertex="1">
          <mxGeometry y="78" width="160" height="26" as="geometry" />
        </mxCell>
        <mxCell id="HiX64u8pehBDS7wgLVIx-36" value="" style="endArrow=open;shadow=0;strokeWidth=1;rounded=0;endFill=1;edgeStyle=elbowEdgeStyle;elbow=vertical;" parent="HiX64u8pehBDS7wgLVIx-1" source="HiX64u8pehBDS7wgLVIx-20" target="HiX64u8pehBDS7wgLVIx-32" edge="1">
          <mxGeometry x="0.5" y="41" relative="1" as="geometry">
            <mxPoint x="-480" y="172" as="sourcePoint" />
            <mxPoint x="-320" y="172" as="targetPoint" />
            <mxPoint x="-40" y="32" as="offset" />
          </mxGeometry>
        </mxCell>
        <mxCell id="HiX64u8pehBDS7wgLVIx-37" value="Servers 3" style="swimlane;fontStyle=0;align=center;verticalAlign=top;childLayout=stackLayout;horizontal=1;startSize=26;horizontalStack=0;resizeParent=1;resizeLast=0;collapsible=1;marginBottom=0;rounded=0;shadow=0;strokeWidth=1;" parent="HiX64u8pehBDS7wgLVIx-1" vertex="1">
          <mxGeometry x="-370" y="270" width="160" height="169" as="geometry">
            <mxRectangle x="550" y="140" width="160" height="26" as="alternateBounds" />
          </mxGeometry>
        </mxCell>
        <mxCell id="HiX64u8pehBDS7wgLVIx-38" value="Name" style="text;align=left;verticalAlign=top;spacingLeft=4;spacingRight=4;overflow=hidden;rotatable=0;points=[[0,0.5],[1,0.5]];portConstraint=eastwest;" parent="HiX64u8pehBDS7wgLVIx-37" vertex="1">
          <mxGeometry y="26" width="160" height="26" as="geometry" />
        </mxCell>
        <mxCell id="HiX64u8pehBDS7wgLVIx-39" value="OS" style="text;align=left;verticalAlign=top;spacingLeft=4;spacingRight=4;overflow=hidden;rotatable=0;points=[[0,0.5],[1,0.5]];portConstraint=eastwest;rounded=0;shadow=0;html=0;" parent="HiX64u8pehBDS7wgLVIx-37" vertex="1">
          <mxGeometry y="52" width="160" height="26" as="geometry" />
        </mxCell>
        <mxCell id="HiX64u8pehBDS7wgLVIx-40" value="Model" style="text;align=left;verticalAlign=top;spacingLeft=4;spacingRight=4;overflow=hidden;rotatable=0;points=[[0,0.5],[1,0.5]];portConstraint=eastwest;rounded=0;shadow=0;html=0;" parent="HiX64u8pehBDS7wgLVIx-37" vertex="1">
          <mxGeometry y="78" width="160" height="26" as="geometry" />
        </mxCell>
        <mxCell id="HiX64u8pehBDS7wgLVIx-41" value="" style="endArrow=block;endSize=10;endFill=0;shadow=0;strokeWidth=1;rounded=0;edgeStyle=elbowEdgeStyle;elbow=vertical;exitX=0.5;exitY=0;exitDx=0;exitDy=0;" parent="HiX64u8pehBDS7wgLVIx-1" source="HiX64u8pehBDS7wgLVIx-37" edge="1">
          <mxGeometry width="160" relative="1" as="geometry">
            <mxPoint x="-330" y="251" as="sourcePoint" />
            <mxPoint x="-500" y="240" as="targetPoint" />
          </mxGeometry>
        </mxCell>
        <mxCell id="HiX64u8pehBDS7wgLVIx-42" value="Storage" style="rounded=0;whiteSpace=wrap;html=1;" parent="HiX64u8pehBDS7wgLVIx-1" vertex="1">
          <mxGeometry x="-730" y="510" width="570" height="60" as="geometry" />
        </mxCell>
        <mxCell id="HiX64u8pehBDS7wgLVIx-43" value="Servers 1" style="swimlane;fontStyle=0;align=center;verticalAlign=top;childLayout=stackLayout;horizontal=1;startSize=26;horizontalStack=0;resizeParent=1;resizeLast=0;collapsible=1;marginBottom=0;rounded=0;shadow=0;strokeWidth=1;" parent="HiX64u8pehBDS7wgLVIx-1" vertex="1">
          <mxGeometry x="-730" y="640" width="160" height="138" as="geometry">
            <mxRectangle x="130" y="380" width="160" height="26" as="alternateBounds" />
          </mxGeometry>
        </mxCell>
        <mxCell id="HiX64u8pehBDS7wgLVIx-44" value="Server Name" style="text;align=left;verticalAlign=top;spacingLeft=4;spacingRight=4;overflow=hidden;rotatable=0;points=[[0,0.5],[1,0.5]];portConstraint=eastwest;" parent="HiX64u8pehBDS7wgLVIx-43" vertex="1">
          <mxGeometry y="26" width="160" height="26" as="geometry" />
        </mxCell>
        <mxCell id="HiX64u8pehBDS7wgLVIx-45" value="OS" style="text;align=left;verticalAlign=top;spacingLeft=4;spacingRight=4;overflow=hidden;rotatable=0;points=[[0,0.5],[1,0.5]];portConstraint=eastwest;rounded=0;shadow=0;html=0;" parent="HiX64u8pehBDS7wgLVIx-43" vertex="1">
          <mxGeometry y="52" width="160" height="26" as="geometry" />
        </mxCell>
        <mxCell id="HiX64u8pehBDS7wgLVIx-46" value="Product Name" style="text;align=left;verticalAlign=top;spacingLeft=4;spacingRight=4;overflow=hidden;rotatable=0;points=[[0,0.5],[1,0.5]];portConstraint=eastwest;fontStyle=4" parent="HiX64u8pehBDS7wgLVIx-43" vertex="1">
          <mxGeometry y="78" width="160" height="26" as="geometry" />
        </mxCell>
        <mxCell id="HiX64u8pehBDS7wgLVIx-47" value="" style="endArrow=block;endSize=10;endFill=0;shadow=0;strokeWidth=1;rounded=0;edgeStyle=elbowEdgeStyle;elbow=vertical;" parent="HiX64u8pehBDS7wgLVIx-1" source="HiX64u8pehBDS7wgLVIx-43" edge="1">
          <mxGeometry width="160" relative="1" as="geometry">
            <mxPoint x="-840" y="726" as="sourcePoint" />
            <mxPoint x="-680" y="795" as="targetPoint" />
          </mxGeometry>
        </mxCell>
        <mxCell id="HiX64u8pehBDS7wgLVIx-48" value="SAN switch SW" style="swimlane;fontStyle=0;align=center;verticalAlign=top;childLayout=stackLayout;horizontal=1;startSize=26;horizontalStack=0;resizeParent=1;resizeLast=0;collapsible=1;marginBottom=0;rounded=0;shadow=0;strokeWidth=1;" parent="HiX64u8pehBDS7wgLVIx-1" vertex="1">
          <mxGeometry x="-740" y="813" width="160" height="169" as="geometry">
            <mxRectangle x="550" y="140" width="160" height="26" as="alternateBounds" />
          </mxGeometry>
        </mxCell>
        <mxCell id="HiX64u8pehBDS7wgLVIx-49" value="CI Name" style="text;align=left;verticalAlign=top;spacingLeft=4;spacingRight=4;overflow=hidden;rotatable=0;points=[[0,0.5],[1,0.5]];portConstraint=eastwest;" parent="HiX64u8pehBDS7wgLVIx-48" vertex="1">
          <mxGeometry y="26" width="160" height="26" as="geometry" />
        </mxCell>
        <mxCell id="HiX64u8pehBDS7wgLVIx-50" value="OS" style="text;align=left;verticalAlign=top;spacingLeft=4;spacingRight=4;overflow=hidden;rotatable=0;points=[[0,0.5],[1,0.5]];portConstraint=eastwest;rounded=0;shadow=0;html=0;" parent="HiX64u8pehBDS7wgLVIx-48" vertex="1">
          <mxGeometry y="52" width="160" height="26" as="geometry" />
        </mxCell>
        <mxCell id="HiX64u8pehBDS7wgLVIx-51" value="Model" style="text;align=left;verticalAlign=top;spacingLeft=4;spacingRight=4;overflow=hidden;rotatable=0;points=[[0,0.5],[1,0.5]];portConstraint=eastwest;rounded=0;shadow=0;html=0;" parent="HiX64u8pehBDS7wgLVIx-48" vertex="1">
          <mxGeometry y="78" width="160" height="26" as="geometry" />
        </mxCell>
        <mxCell id="HiX64u8pehBDS7wgLVIx-52" value="" style="endArrow=open;shadow=0;strokeWidth=1;rounded=0;endFill=1;edgeStyle=elbowEdgeStyle;elbow=vertical;" parent="HiX64u8pehBDS7wgLVIx-1" target="HiX64u8pehBDS7wgLVIx-48" edge="1">
          <mxGeometry x="0.5" y="41" relative="1" as="geometry">
            <mxPoint x="-680" y="795" as="sourcePoint" />
            <mxPoint x="-500" y="715" as="targetPoint" />
            <mxPoint x="-40" y="32" as="offset" />
          </mxGeometry>
        </mxCell>
        <mxCell id="HiX64u8pehBDS7wgLVIx-53" value="Servers 2" style="swimlane;fontStyle=0;align=center;verticalAlign=top;childLayout=stackLayout;horizontal=1;startSize=26;horizontalStack=0;resizeParent=1;resizeLast=0;collapsible=1;marginBottom=0;rounded=0;shadow=0;strokeWidth=1;" parent="HiX64u8pehBDS7wgLVIx-1" vertex="1">
          <mxGeometry x="-450" y="620" width="160" height="574" as="geometry">
            <mxRectangle x="550" y="140" width="160" height="26" as="alternateBounds" />
          </mxGeometry>
        </mxCell>
        <mxCell id="HiX64u8pehBDS7wgLVIx-54" value="Name" style="text;align=left;verticalAlign=top;spacingLeft=4;spacingRight=4;overflow=hidden;rotatable=0;points=[[0,0.5],[1,0.5]];portConstraint=eastwest;" parent="HiX64u8pehBDS7wgLVIx-53" vertex="1">
          <mxGeometry y="26" width="160" height="26" as="geometry" />
        </mxCell>
        <mxCell id="HiX64u8pehBDS7wgLVIx-55" value="OS" style="text;align=left;verticalAlign=top;spacingLeft=4;spacingRight=4;overflow=hidden;rotatable=0;points=[[0,0.5],[1,0.5]];portConstraint=eastwest;rounded=0;shadow=0;html=0;" parent="HiX64u8pehBDS7wgLVIx-53" vertex="1">
          <mxGeometry y="52" width="160" height="26" as="geometry" />
        </mxCell>
        <mxCell id="HiX64u8pehBDS7wgLVIx-56" value="Model" style="text;align=left;verticalAlign=top;spacingLeft=4;spacingRight=4;overflow=hidden;rotatable=0;points=[[0,0.5],[1,0.5]];portConstraint=eastwest;rounded=0;shadow=0;html=0;" parent="HiX64u8pehBDS7wgLVIx-53" vertex="1">
          <mxGeometry y="78" width="160" height="26" as="geometry" />
        </mxCell>
        <mxCell id="HiX64u8pehBDS7wgLVIx-57" value="Backup Appliance" style="swimlane;fontStyle=0;align=center;verticalAlign=top;childLayout=stackLayout;horizontal=1;startSize=26;horizontalStack=0;resizeParent=1;resizeLast=0;collapsible=1;marginBottom=0;rounded=0;shadow=0;strokeWidth=1;" parent="HiX64u8pehBDS7wgLVIx-1" vertex="1">
          <mxGeometry x="-440" y="820" width="160" height="169" as="geometry">
            <mxRectangle x="550" y="140" width="160" height="26" as="alternateBounds" />
          </mxGeometry>
        </mxCell>
        <mxCell id="HiX64u8pehBDS7wgLVIx-58" value="Name" style="text;align=left;verticalAlign=top;spacingLeft=4;spacingRight=4;overflow=hidden;rotatable=0;points=[[0,0.5],[1,0.5]];portConstraint=eastwest;" parent="HiX64u8pehBDS7wgLVIx-57" vertex="1">
          <mxGeometry y="26" width="160" height="26" as="geometry" />
        </mxCell>
        <mxCell id="HiX64u8pehBDS7wgLVIx-59" value="OS" style="text;align=left;verticalAlign=top;spacingLeft=4;spacingRight=4;overflow=hidden;rotatable=0;points=[[0,0.5],[1,0.5]];portConstraint=eastwest;rounded=0;shadow=0;html=0;" parent="HiX64u8pehBDS7wgLVIx-57" vertex="1">
          <mxGeometry y="52" width="160" height="26" as="geometry" />
        </mxCell>
        <mxCell id="HiX64u8pehBDS7wgLVIx-60" value="Model" style="text;align=left;verticalAlign=top;spacingLeft=4;spacingRight=4;overflow=hidden;rotatable=0;points=[[0,0.5],[1,0.5]];portConstraint=eastwest;rounded=0;shadow=0;html=0;" parent="HiX64u8pehBDS7wgLVIx-57" vertex="1">
          <mxGeometry y="78" width="160" height="26" as="geometry" />
        </mxCell>
        <mxCell id="HiX64u8pehBDS7wgLVIx-61" value="" style="endArrow=open;shadow=0;strokeWidth=1;rounded=0;endFill=1;edgeStyle=elbowEdgeStyle;elbow=vertical;" parent="HiX64u8pehBDS7wgLVIx-1" edge="1">
          <mxGeometry x="0.5" y="41" relative="1" as="geometry">
            <mxPoint x="-390" y="780" as="sourcePoint" />
            <mxPoint x="-360" y="832" as="targetPoint" />
            <mxPoint x="-40" y="32" as="offset" />
            <Array as="points">
              <mxPoint x="-190" y="789" />
            </Array>
          </mxGeometry>
        </mxCell>
        <mxCell id="HiX64u8pehBDS7wgLVIx-62" value="Network" style="rounded=0;whiteSpace=wrap;html=1;" parent="HiX64u8pehBDS7wgLVIx-1" vertex="1">
          <mxGeometry x="10" y="503" width="570" height="60" as="geometry" />
        </mxCell>
        <mxCell id="HiX64u8pehBDS7wgLVIx-63" value="Servers 1" style="swimlane;fontStyle=0;align=center;verticalAlign=top;childLayout=stackLayout;horizontal=1;startSize=26;horizontalStack=0;resizeParent=1;resizeLast=0;collapsible=1;marginBottom=0;rounded=0;shadow=0;strokeWidth=1;" parent="HiX64u8pehBDS7wgLVIx-1" vertex="1">
          <mxGeometry x="215" y="590" width="160" height="138" as="geometry">
            <mxRectangle x="130" y="380" width="160" height="26" as="alternateBounds" />
          </mxGeometry>
        </mxCell>
        <mxCell id="HiX64u8pehBDS7wgLVIx-64" value="VM" style="text;align=left;verticalAlign=top;spacingLeft=4;spacingRight=4;overflow=hidden;rotatable=0;points=[[0,0.5],[1,0.5]];portConstraint=eastwest;" parent="HiX64u8pehBDS7wgLVIx-63" vertex="1">
          <mxGeometry y="26" width="160" height="26" as="geometry" />
        </mxCell>
        <mxCell id="HiX64u8pehBDS7wgLVIx-65" value="IP Address" style="text;align=left;verticalAlign=top;spacingLeft=4;spacingRight=4;overflow=hidden;rotatable=0;points=[[0,0.5],[1,0.5]];portConstraint=eastwest;rounded=0;shadow=0;html=0;" parent="HiX64u8pehBDS7wgLVIx-63" vertex="1">
          <mxGeometry y="52" width="160" height="26" as="geometry" />
        </mxCell>
        <mxCell id="HiX64u8pehBDS7wgLVIx-66" value="MAC Address" style="text;align=left;verticalAlign=top;spacingLeft=4;spacingRight=4;overflow=hidden;rotatable=0;points=[[0,0.5],[1,0.5]];portConstraint=eastwest;fontStyle=4" parent="HiX64u8pehBDS7wgLVIx-63" vertex="1">
          <mxGeometry y="78" width="160" height="26" as="geometry" />
        </mxCell>
        <mxCell id="HiX64u8pehBDS7wgLVIx-67" value="" style="endArrow=block;endSize=10;endFill=0;shadow=0;strokeWidth=1;rounded=0;edgeStyle=elbowEdgeStyle;elbow=vertical;" parent="HiX64u8pehBDS7wgLVIx-1" source="HiX64u8pehBDS7wgLVIx-63" edge="1">
          <mxGeometry width="160" relative="1" as="geometry">
            <mxPoint x="-100" y="719" as="sourcePoint" />
            <mxPoint x="60" y="788" as="targetPoint" />
          </mxGeometry>
        </mxCell>
        <mxCell id="HiX64u8pehBDS7wgLVIx-68" value="Network" style="swimlane;fontStyle=0;align=center;verticalAlign=top;childLayout=stackLayout;horizontal=1;startSize=26;horizontalStack=0;resizeParent=1;resizeLast=0;collapsible=1;marginBottom=0;rounded=0;shadow=0;strokeWidth=1;" parent="HiX64u8pehBDS7wgLVIx-1" vertex="1">
          <mxGeometry y="806" width="160" height="169" as="geometry">
            <mxRectangle x="550" y="140" width="160" height="26" as="alternateBounds" />
          </mxGeometry>
        </mxCell>
        <mxCell id="HiX64u8pehBDS7wgLVIx-69" value="DNS Name" style="text;align=left;verticalAlign=top;spacingLeft=4;spacingRight=4;overflow=hidden;rotatable=0;points=[[0,0.5],[1,0.5]];portConstraint=eastwest;" parent="HiX64u8pehBDS7wgLVIx-68" vertex="1">
          <mxGeometry y="26" width="160" height="26" as="geometry" />
        </mxCell>
        <mxCell id="HiX64u8pehBDS7wgLVIx-70" value="IP Address" style="text;align=left;verticalAlign=top;spacingLeft=4;spacingRight=4;overflow=hidden;rotatable=0;points=[[0,0.5],[1,0.5]];portConstraint=eastwest;rounded=0;shadow=0;html=0;" parent="HiX64u8pehBDS7wgLVIx-68" vertex="1">
          <mxGeometry y="52" width="160" height="26" as="geometry" />
        </mxCell>
        <mxCell id="HiX64u8pehBDS7wgLVIx-71" value="Switch" style="text;align=left;verticalAlign=top;spacingLeft=4;spacingRight=4;overflow=hidden;rotatable=0;points=[[0,0.5],[1,0.5]];portConstraint=eastwest;rounded=0;shadow=0;html=0;" parent="HiX64u8pehBDS7wgLVIx-68" vertex="1">
          <mxGeometry y="78" width="160" height="26" as="geometry" />
        </mxCell>
        <mxCell id="HiX64u8pehBDS7wgLVIx-72" value="" style="endArrow=open;shadow=0;strokeWidth=1;rounded=0;endFill=1;edgeStyle=elbowEdgeStyle;elbow=vertical;" parent="HiX64u8pehBDS7wgLVIx-1" target="HiX64u8pehBDS7wgLVIx-68" edge="1">
          <mxGeometry x="0.5" y="41" relative="1" as="geometry">
            <mxPoint x="60" y="788" as="sourcePoint" />
            <mxPoint x="240" y="708" as="targetPoint" />
            <mxPoint x="-40" y="32" as="offset" />
          </mxGeometry>
        </mxCell>
        <mxCell id="HiX64u8pehBDS7wgLVIx-73" value="Backup Appliance" style="swimlane;fontStyle=0;align=center;verticalAlign=top;childLayout=stackLayout;horizontal=1;startSize=26;horizontalStack=0;resizeParent=1;resizeLast=0;collapsible=1;marginBottom=0;rounded=0;shadow=0;strokeWidth=1;" parent="HiX64u8pehBDS7wgLVIx-1" vertex="1">
          <mxGeometry x="300" y="813" width="160" height="169" as="geometry">
            <mxRectangle x="550" y="140" width="160" height="26" as="alternateBounds" />
          </mxGeometry>
        </mxCell>
        <mxCell id="HiX64u8pehBDS7wgLVIx-74" value="Software Version" style="text;align=left;verticalAlign=top;spacingLeft=4;spacingRight=4;overflow=hidden;rotatable=0;points=[[0,0.5],[1,0.5]];portConstraint=eastwest;" parent="HiX64u8pehBDS7wgLVIx-73" vertex="1">
          <mxGeometry y="26" width="160" height="26" as="geometry" />
        </mxCell>
        <mxCell id="HiX64u8pehBDS7wgLVIx-75" value="Hostname(Server)" style="text;align=left;verticalAlign=top;spacingLeft=4;spacingRight=4;overflow=hidden;rotatable=0;points=[[0,0.5],[1,0.5]];portConstraint=eastwest;rounded=0;shadow=0;html=0;" parent="HiX64u8pehBDS7wgLVIx-73" vertex="1">
          <mxGeometry y="52" width="160" height="26" as="geometry" />
        </mxCell>
        <mxCell id="HiX64u8pehBDS7wgLVIx-76" value="Model(Switch)" style="text;align=left;verticalAlign=top;spacingLeft=4;spacingRight=4;overflow=hidden;rotatable=0;points=[[0,0.5],[1,0.5]];portConstraint=eastwest;rounded=0;shadow=0;html=0;" parent="HiX64u8pehBDS7wgLVIx-73" vertex="1">
          <mxGeometry y="78" width="160" height="26" as="geometry" />
        </mxCell>
        <mxCell id="HiX64u8pehBDS7wgLVIx-77" value="" style="endArrow=open;shadow=0;strokeWidth=1;rounded=0;endFill=1;edgeStyle=elbowEdgeStyle;elbow=vertical;exitX=1.008;exitY=1.177;exitDx=0;exitDy=0;exitPerimeter=0;" parent="HiX64u8pehBDS7wgLVIx-1" source="HiX64u8pehBDS7wgLVIx-70" edge="1">
          <mxGeometry x="0.5" y="41" relative="1" as="geometry">
            <mxPoint x="240" y="810" as="sourcePoint" />
            <mxPoint x="380" y="825" as="targetPoint" />
            <mxPoint x="-40" y="32" as="offset" />
            <Array as="points">
              <mxPoint x="550" y="782" />
            </Array>
          </mxGeometry>
        </mxCell>
        <mxCell id="HiX64u8pehBDS7wgLVIx-78" value="" style="verticalLabelPosition=bottom;verticalAlign=top;html=1;shape=mxgraph.basic.tick;fillColor=none;strokeColor=#82b366;strokeWidth=6;" parent="HiX64u8pehBDS7wgLVIx-1" vertex="1">
          <mxGeometry x="380" y="109" width="360" height="320" as="geometry" />
        </mxCell>
        <mxCell id="HiX64u8pehBDS7wgLVIx-79" value="" style="verticalLabelPosition=bottom;verticalAlign=top;html=1;shape=mxgraph.basic.tick;fillColor=none;strokeColor=#82b366;strokeWidth=6;" parent="HiX64u8pehBDS7wgLVIx-1" vertex="1">
          <mxGeometry x="-570" y="880" width="360" height="320" as="geometry" />
        </mxCell>
        <mxCell id="HiX64u8pehBDS7wgLVIx-80" value="LFC Data" style="rounded=0;whiteSpace=wrap;html=1;" parent="HiX64u8pehBDS7wgLVIx-1" vertex="1">
          <mxGeometry x="720" y="503" width="570" height="60" as="geometry" />
        </mxCell>
        <mxCell id="HiX64u8pehBDS7wgLVIx-81" value="LFC" style="swimlane;fontStyle=0;align=center;verticalAlign=top;childLayout=stackLayout;horizontal=1;startSize=26;horizontalStack=0;resizeParent=1;resizeLast=0;collapsible=1;marginBottom=0;rounded=0;shadow=0;strokeWidth=1;" parent="HiX64u8pehBDS7wgLVIx-1" vertex="1">
          <mxGeometry x="925" y="600" width="160" height="138" as="geometry">
            <mxRectangle x="130" y="380" width="160" height="26" as="alternateBounds" />
          </mxGeometry>
        </mxCell>
        <mxCell id="HiX64u8pehBDS7wgLVIx-82" value="Hardware" style="text;align=left;verticalAlign=top;spacingLeft=4;spacingRight=4;overflow=hidden;rotatable=0;points=[[0,0.5],[1,0.5]];portConstraint=eastwest;" parent="HiX64u8pehBDS7wgLVIx-81" vertex="1">
          <mxGeometry y="26" width="160" height="26" as="geometry" />
        </mxCell>
        <mxCell id="HiX64u8pehBDS7wgLVIx-83" value="Software" style="text;align=left;verticalAlign=top;spacingLeft=4;spacingRight=4;overflow=hidden;rotatable=0;points=[[0,0.5],[1,0.5]];portConstraint=eastwest;rounded=0;shadow=0;html=0;" parent="HiX64u8pehBDS7wgLVIx-81" vertex="1">
          <mxGeometry y="52" width="160" height="26" as="geometry" />
        </mxCell>
        <mxCell id="HiX64u8pehBDS7wgLVIx-84" value="HW/SW LFC Data" style="text;align=left;verticalAlign=top;spacingLeft=4;spacingRight=4;overflow=hidden;rotatable=0;points=[[0,0.5],[1,0.5]];portConstraint=eastwest;fontStyle=4" parent="HiX64u8pehBDS7wgLVIx-81" vertex="1">
          <mxGeometry y="78" width="160" height="26" as="geometry" />
        </mxCell>
        <mxCell id="HiX64u8pehBDS7wgLVIx-85" value="Support dates" style="text;align=left;verticalAlign=top;spacingLeft=4;spacingRight=4;overflow=hidden;rotatable=0;points=[[0,0.5],[1,0.5]];portConstraint=eastwest;fontStyle=4" parent="HiX64u8pehBDS7wgLVIx-81" vertex="1">
          <mxGeometry y="104" width="160" height="26" as="geometry" />
        </mxCell>
        <mxCell id="HiX64u8pehBDS7wgLVIx-86" value="" style="verticalLabelPosition=bottom;verticalAlign=top;html=1;shape=mxgraph.basic.tick;fillColor=none;strokeColor=#82b366;strokeWidth=6;" parent="HiX64u8pehBDS7wgLVIx-1" vertex="1">
          <mxGeometry x="460" y="630" width="360" height="320" as="geometry" />
        </mxCell>
        <mxCell id="HiX64u8pehBDS7wgLVIx-87" value="" style="verticalLabelPosition=bottom;verticalAlign=top;html=1;shape=mxgraph.basic.tick;fillColor=none;strokeColor=#82b366;strokeWidth=6;" parent="HiX64u8pehBDS7wgLVIx-1" vertex="1">
          <mxGeometry x="-330" y="100" width="360" height="320" as="geometry" />
        </mxCell>
        <mxCell id="HiX64u8pehBDS7wgLVIx-88" value="" style="verticalLabelPosition=bottom;verticalAlign=top;html=1;shape=mxgraph.basic.tick;fillColor=none;strokeColor=#82b366;strokeWidth=6;" parent="HiX64u8pehBDS7wgLVIx-1" vertex="1">
          <mxGeometry x="1010" y="610" width="360" height="320" as="geometry" />
        </mxCell>
      </root>
    </mxGraphModel>
  </diagram>
  <diagram id="zk2DIU-1irIdsyS0nt8i" name="Page-2">
    <mxGraphModel dx="794" dy="394" grid="1" gridSize="10" guides="1" tooltips="1" connect="1" arrows="1" fold="1" page="1" pageScale="1" pageWidth="850" pageHeight="1100" math="0" shadow="0">
      <root>
        <mxCell id="0" />
        <mxCell id="1" parent="0" />
        <mxCell id="kNexMOKvwtK2jCZMazaB-1" value="&lt;div&gt;Big query information:&lt;/div&gt;&lt;div&gt;$400 initial trial free usage&lt;/div&gt;&lt;div&gt;initial trial start/end date: tbd wait til fake data created &lt;br&gt;&lt;/div&gt;&lt;div&gt;&lt;br&gt;&lt;/div&gt;&lt;div&gt;&lt;br&gt;&lt;/div&gt;" style="rounded=1;whiteSpace=wrap;html=1;" parent="1" vertex="1">
          <mxGeometry x="130" y="60" width="490" height="180" as="geometry" />
        </mxCell>
        <mxCell id="kNexMOKvwtK2jCZMazaB-2" value="&lt;div&gt;Types of queries to display knowledge of:&lt;/div&gt;&lt;div&gt;-select all&lt;/div&gt;&lt;div&gt;-where statement(story&lt;br&gt;&lt;/div&gt;&lt;div&gt;-Group by &amp;amp; having&lt;/div&gt;&lt;div&gt;-order by and limit&lt;/div&gt;&lt;div&gt;-date functions&lt;/div&gt;&lt;div&gt;-inner,outer, left right joins&lt;/div&gt;&lt;div&gt;-subqueries&lt;/div&gt;&lt;div&gt;-correlated subqueries&lt;/div&gt;&lt;div&gt;-case when clause&lt;/div&gt;&lt;div&gt;-window functions&lt;br&gt;&lt;/div&gt;" style="rounded=1;whiteSpace=wrap;html=1;" parent="1" vertex="1">
          <mxGeometry y="320" width="490" height="180" as="geometry" />
        </mxCell>
        <mxCell id="f1jmzRqwrOwJC-6ix-m3-2" value="&lt;div&gt;&#39;Where&#39; Story:&lt;/div&gt;&lt;div style=&quot;font-size: 10px;&quot;&gt;&lt;font style=&quot;font-size: 10px;&quot;&gt;-1. Filter out by lifecycle score&lt;/font&gt;&lt;/div&gt;&lt;div style=&quot;font-size: 10px;&quot;&gt;&lt;font style=&quot;font-size: 10px;&quot;&gt;-2 Filter by hardware&lt;/font&gt;&lt;/div&gt;&lt;div&gt;&lt;br&gt;&lt;/div&gt;" style="rounded=0;whiteSpace=wrap;html=1;strokeWidth=1;fillColor=none;" parent="1" vertex="1">
          <mxGeometry x="120" y="540" width="120" height="60" as="geometry" />
        </mxCell>
        <mxCell id="f1jmzRqwrOwJC-6ix-m3-3" value="&lt;div&gt;&#39;Group by&#39; Story:&lt;/div&gt;&lt;div style=&quot;font-size: 9px;&quot;&gt;&lt;font style=&quot;font-size: 9px;&quot;&gt;-1. Group by software having specific scores?&lt;br&gt;&lt;/font&gt;&lt;/div&gt;&lt;div style=&quot;font-size: 9px;&quot;&gt;&lt;font style=&quot;font-size: 9px;&quot;&gt;&lt;font style=&quot;font-size: 9px;&quot;&gt;-2 Having specific network contstrains &lt;/font&gt;&lt;br&gt;&lt;/font&gt;&lt;/div&gt;&lt;div&gt;&lt;br&gt;&lt;/div&gt;" style="rounded=0;whiteSpace=wrap;html=1;strokeWidth=1;fillColor=none;" parent="1" vertex="1">
          <mxGeometry x="320" y="540" width="120" height="60" as="geometry" />
        </mxCell>
        <mxCell id="f1jmzRqwrOwJC-6ix-m3-4" value="&lt;div&gt;&#39;Order by/Limit&#39; Story:&lt;/div&gt;&lt;div style=&quot;font-size: 9px;&quot;&gt;&lt;font style=&quot;font-size: 9px;&quot;&gt;-1. Lmit to only see top scores of something &lt;br&gt;&lt;/font&gt;&lt;/div&gt;&lt;div style=&quot;font-size: 9px;&quot;&gt;&lt;font style=&quot;font-size: 9px;&quot;&gt;&lt;font style=&quot;font-size: 9px;&quot;&gt;-2 &lt;/font&gt;order by specific column&lt;br&gt;&lt;/font&gt;&lt;/div&gt;&lt;div&gt;&lt;br&gt;&lt;/div&gt;" style="rounded=0;whiteSpace=wrap;html=1;strokeWidth=1;fillColor=none;" parent="1" vertex="1">
          <mxGeometry x="510" y="540" width="120" height="60" as="geometry" />
        </mxCell>
        <mxCell id="f1jmzRqwrOwJC-6ix-m3-5" value="&lt;div&gt;&#39;Date&#39; Functions:&lt;/div&gt;&lt;div style=&quot;font-size: 10px;&quot;&gt;&lt;font style=&quot;font-size: 10px;&quot;&gt;-1. Convert dates and look at dates and scores on each date?&lt;br&gt;&lt;/font&gt;&lt;/div&gt;&lt;div&gt;&lt;br&gt;&lt;/div&gt;" style="rounded=0;whiteSpace=wrap;html=1;strokeWidth=1;fillColor=none;" parent="1" vertex="1">
          <mxGeometry x="110" y="630" width="120" height="60" as="geometry" />
        </mxCell>
        <mxCell id="f1jmzRqwrOwJC-6ix-m3-6" value="&lt;div&gt;Joining all the tables&lt;br&gt;&lt;/div&gt;&lt;div&gt;&lt;br&gt;&lt;/div&gt;" style="rounded=0;whiteSpace=wrap;html=1;strokeWidth=1;fillColor=none;" parent="1" vertex="1">
          <mxGeometry x="330" y="640" width="120" height="60" as="geometry" />
        </mxCell>
        <mxCell id="f1jmzRqwrOwJC-6ix-m3-7" value="&lt;div&gt;Subqueries:&lt;/div&gt;&lt;div&gt;&lt;font style=&quot;font-size: 9px;&quot;&gt;-see examples:https://learnsql.com/blog/sql-subquery-examples/&lt;/font&gt;&lt;/div&gt;" style="rounded=0;whiteSpace=wrap;html=1;strokeWidth=1;fillColor=none;" parent="1" vertex="1">
          <mxGeometry x="520" y="630" width="120" height="60" as="geometry" />
        </mxCell>
        <mxCell id="f1jmzRqwrOwJC-6ix-m3-8" value="&lt;div style=&quot;font-size: 11px;&quot;&gt;&lt;font style=&quot;font-size: 12px;&quot;&gt;Correlated subqueries see &lt;/font&gt;&lt;font style=&quot;font-size: 8px;&quot;&gt;examples:https://learnsql.com/blog/sql-subquery-examples/&lt;/font&gt;&lt;br&gt;&lt;/div&gt;&lt;div&gt;&lt;br&gt;&lt;/div&gt;" style="rounded=0;whiteSpace=wrap;html=1;strokeWidth=1;fillColor=none;" parent="1" vertex="1">
          <mxGeometry x="110" y="730" width="120" height="60" as="geometry" />
        </mxCell>
        <mxCell id="f1jmzRqwrOwJC-6ix-m3-9" value="&lt;div style=&quot;font-size: 11px;&quot;&gt;&lt;font style=&quot;font-size: 12px;&quot;&gt;Case when Clause s &lt;/font&gt;&lt;font style=&quot;font-size: 8px;&quot;&gt;examples:https://www.w3schools.com/sql/sql_case.asp/&lt;/font&gt;&lt;br&gt;&lt;/div&gt;&lt;div&gt;&lt;br&gt;&lt;/div&gt;" style="rounded=0;whiteSpace=wrap;html=1;strokeWidth=1;fillColor=none;" parent="1" vertex="1">
          <mxGeometry x="330" y="730" width="120" height="60" as="geometry" />
        </mxCell>
        <mxCell id="f1jmzRqwrOwJC-6ix-m3-10" value="&lt;div style=&quot;font-size: 11px;&quot;&gt;&lt;font style=&quot;font-size: 12px;&quot;&gt;Window Functions &lt;/font&gt;&lt;font style=&quot;font-size: 8px;&quot;&gt;examples:https://www.w3schools.com/sql/sql_case.asp/&lt;/font&gt;&lt;br&gt;&lt;/div&gt;&lt;div&gt;&lt;br&gt;&lt;/div&gt;" style="rounded=0;whiteSpace=wrap;html=1;strokeWidth=1;fillColor=none;" parent="1" vertex="1">
          <mxGeometry x="520" y="730" width="120" height="60" as="geometry" />
        </mxCell>
      </root>
    </mxGraphModel>
  </diagram>
  <diagram id="IreJSy1I2UKciQ0AgojS" name="story2">
    <mxGraphModel dx="794" dy="394" grid="1" gridSize="10" guides="1" tooltips="1" connect="1" arrows="1" fold="1" page="1" pageScale="1" pageWidth="850" pageHeight="1100" math="0" shadow="0">
      <root>
        <mxCell id="0" />
        <mxCell id="1" parent="0" />
        <mxCell id="sXGw_LXwzpuTFuFGoAhU-1" value="&lt;div&gt;1. Queries showing the creation of the Full Stack table from the starting 15 tables (check)&lt;br&gt;&lt;/div&gt;&lt;div&gt;2. show most at risk applications, business units by score (check)&lt;br&gt;&lt;/div&gt;&lt;div&gt;3. editing table such that dates are date type, primary key, exportablility &lt;br&gt;&lt;/div&gt;&lt;div&gt;&lt;br&gt;&lt;/div&gt;&lt;div&gt;&lt;br&gt;&lt;/div&gt;" style="rounded=0;whiteSpace=wrap;html=1;" vertex="1" parent="1">
          <mxGeometry x="160" y="90" width="250" height="220" as="geometry" />
        </mxCell>
      </root>
    </mxGraphModel>
  </diagram>
  <diagram id="1fxJ_Vk6f80R5_GDXyoP" name="Page-5">
    <mxGraphModel dx="2284" dy="1854" grid="1" gridSize="10" guides="1" tooltips="1" connect="1" arrows="1" fold="1" page="1" pageScale="1" pageWidth="850" pageHeight="1100" math="0" shadow="0">
      <root>
        <mxCell id="0" />
        <mxCell id="1" parent="0" />
        <mxCell id="BfO4E3I-tlV9tZ-a3XpE-1" value="" style="shape=image;verticalLabelPosition=bottom;labelBackgroundColor=default;verticalAlign=top;aspect=fixed;imageAspect=0;image=data:image/png,iVBORw0KGgoAAAANSUhEUgAAAggAAADJCAYAAABG18pbAAAgAElEQVR4XuxdB3xUxfOf9A4JCaH33hGlCKgoCIiAIiAiKIpiwfq3/+xiw95QUREVKwJSRaSoSEekq/TeAySk9/znu8de9i737t67vMsl8NYP5nLZtztvdnZ2dmpAETeymoUBCwMWBiwMWBiwMGAYA2MmZdGj/cNcPpeRle3wfVhoCOXk5tm/C+ffg4KCxO8vTPzaoe9zd91U4rsnRt9A+QUF9n5REeHkPMebX03zPM5tPE5+8TiR4WEUEBBgf65p9UDxOQACwqlTpyg+Pl58kZqaSpUqVRKf8/LyKCQkhLKzsyk8PFx8l5ycTHFxceKz+pz6OT09naKjo0WfAn4ZICAzM5MiIyPdPnf69GmqUqWK6CP7y+fxnTqu1twpKSkUGxsrxsjJyaGwsDD7e+C7M2fOUOXKld3CYeHAogNrL1j8wOKJ1rmg52y875siTQFhytxF9kMXH7pf0JqWb9hq/65Hx3ZUt3qiQx9XvxSd2ufwdUB8fY/PqB2c4bh5wJVun48PSRYygRAQDM1kdbYwYGHAwoCFAQsDFgYEBlQNwpot2+xYwe1+xuJlDlgadEU3mvnbCvt3w/r0oDPpGQ59OrdpTuo4EWGh1CY601FAqNnaEPZdaSfcDeCgQTA0k9XZwoCfMJCfn29Xx/kJBLfTFhQWUvBZdaHaMSc3l0JZE1deWyHDLdWc5RVGCy4LA+UVA6qAsP6/XYqAEEbN6tfRBFvti04dWjTW7Lth2y5Sr/Lu+roaxMhceN5BQDh69CjVqFFDjKuqVKSKXjUPHD9+nKpVqyb6HjlyhGrWrCk+q2NINT+UEzARBAcHU1paGsXExJR4TmsM2V8eCrCPqOYN9Tn184kTJygx0aaykXDL98B3J0+epISEBLfwWzgof3QAcxfoSLWT+YthHM1Icjl1SGAwxYfH0rFjx+z7STWb+QteOa8W3InhVQTMtWrVKrGXrb1Q/vaCxRNj2H5uuyyUh3Phge8C7CYG9aZeM5FV9Pyf2m6/7ir7r0Zu9eM++YYFhGJlP/wTnNukn34xZS4MEl14TJztlonB31zbml8XBlRfFDwA/5pA9qMJdNx/tHjJ79Sr5+VizGz2Qfnu+x9o9C2j7HN89fU3NOqmkfbf4V/j0FgQDeR/oaGhQrjFply2fAVd3uMyezetgzaQAqlqRBzDZXPwQXOGO4/hDuY/K/5Aot+MmbNo8KBr7c99NPFTGnvXHfbfF/y6kPr26a3AncOfiwSDlIwDn+FzA40A/i1YuIj69ytmSFpwJ4TGlhvhSxcxWJ0sDJQjDDg4KRYVFkPGvCkvX/md/xLClxzZ8ljIUZv6txKvp46LPwYU8xhd4xUVOySK/gE2x0itZpkYyhGBWaB4xoB60D49M41uuySS/tyRQ6O62hxfZZs1Zx5VTYinVi1bUAo7pP66cDHNX7CABl0zkJ1V84Xj6uq1aykxoSr97/FH6N33P6SYSjEUx46t9erV5Zv0cbp55I3ikJ85ew7t3rOXGjaoT9dde419DnnQzt0+m15cOo5+v+VPigqNosCiAKoaWUVTQLjhk2R6Y2glmrIyk57qb9OmyfbdD1PZDBFKTZs2EY7Bv/+xlH5fupSaNG5MtflmD8fgVWvWsHARRE/+7zF66+33qF27NuxAnEPVq1ejpKSTNPLGG4TAsHLValq/YSPVr1/PpYAwecMk+uSvj2nZbasoNCiU4kMqiznLg3bGMyVYPSwMlC8MqAJCUdrGYuCCImnclDUOwKo3fyMaBIdxcb7HtC+BBHfjFe6Z59D/54PxpJodHrv1eorgy4VsDgKCqqJXVfBGTAzqGN6aGNQxvDUxqCYQIyYGCweOJqPyRge5bMeXh9j/fkrlAzmAhYQo+mJFBj3Zz/Gw9TX7gICAW/vo2aOodkxt2nhsA80d8YtdQIC6XpreVDx+8FsG7T6RT0+zcPDr1hwa0SXC16A6jA+48wry6K55Y6hjzY70x74/6Ieh04SAkJSUZDcxWHuhfO8Fo+p1iycS+RIHqomhTDe0DyezTAw+RK41tPkYUDUIz85Ko+Y1gunomUIa3imCasYWq9t2791Pq//aQI0b1qcL27dh1bl7VZo3kEoNQvuPWlNmfiY90OX/6J5O93nUINw0KZmubBVO24/l0/9dGUUJ0cVwr9uwhQB708YN6IK2rbwBy+MzEu4m7zWg7Pxs+njAp9S/6QBLg+ARc1YHCwPaGHCXB8EsvBUdKQ6NxJgBBqMYjMJhmRiMYszq71cMONvyJTBvL0ynh3rbcm6g/b5sFd8WkqhtmxbCQahFM23PYG9fSNMHwYOJQZ3v82WZwkwi29xfFlNqWjq1bN6EzR2VqX7d2t6Cp/mcFtyWicF0VFsDnkcYKAsBoazR6SAgqJ7/aqIhqHXhrKUmSlK9mtXn1M8y0RDUsDKEKiMjg6KiosR7aj2nfi/742CAPRj2UTWBkdYYKnwSbvkemFt9P60xLBw44qk80IFqYijrzeI8nycBAWYFGUmjRt6UV7ghIABOGZ1k8QNHHmXxg/LHD8rTueAuUZJZe15PFINZc2Gc2EAbD7OiGMzEqjWWzzAAhrBr335q1qihKXOcSC2krq+epF2ves5ihgnbPp9E342Jo9a12LShEeaYl5ZHtROrl3BS3HfoEDWqV08T7mnrstmXIpPmP2DLIuqp1X3sOG17MZEiw5xCODw86ApuCN55KblUm8OcLSdFT5i3/m5hoCQGznkNgrXoFgbKOwagjYJWCf/MagdOFVLd+JLhQq7Gz+L06WHBRXQqvZB2Hi+gro1DHbrhcIWGDOnE1YMWGjTADIdZteXlF9Gq3XnUvm4wxYQHUgGHOCP8UU9bsSuPujU2J/ESYEVa9IiICEtA0IN8q4+FAScMlIWAMHHaPIc8CHdfP8Cn6+BgYsjKyhIMAk1NKgTmBvU+vGaRpAZNNTeoz6mfVZU+GLu4pZyt64AxtJ5Tv5f95fN4Th1XawwVPgm3fA/n99Maw8JB+aQD0AL+eUsHqh8D1jglJ5iqVQrSpEeVDuSzkqZy8opox5FMCuMiJ02rBYsxICCA1p33AvYOaBCw/3OkgMKCCqlhYihnXXTsq0WPci9gDIy/9XA+NUssEuY/d/vJ1V5wxgHyJmCPo6/kARY/cORRFj8on/xACuLe8gOzzoW7v8zTrMVg1ile1iaGOpVzbJcGqxaDWUtojVPRMJCZW0SRHC5Z2nYirZCOc0QFtBGVI0qqAZL478f47/USgqhSeOnnw3hVY3SqG0r7ctbzFgYsDLjFQFloEMp6CRw0COpNQ5XGpITl6tbhrE1Qx1C1BVIDoKWFUJ9zdeNRNQjquFrPubr1qZKi+n5aY1g4cNTWnIt0cOWVV1Lt2rXpiy++cNCKlXYvYK+8/PLLNHToUFq2bJmoLHr99deL/W3WXujcubOouLpoka1SnLUXLBxYdGAzufljL9z1Ra7PNQhlLSDUjc0VFZwtDUJZY96ar1xgYNasWTRjxgz6+mvHGuylBS6bTQ9hwQGEn6H8s6DQ9tPMhpLlEHDWckZIq1kYsDDgXwyc8xoE/6LXmt3CgH8wkJ5TRNEGIwG0ID14upDScwqpeXUUlCruxfIBrd2TSy1rhZhiXsDIR1IKHZJD+Qd71qwWBiwMAAPnvICgpoPF7aRy5cpi5aVKX1XbqNXp1OfUz+np6cIzGk2aJ9SKkFrPqTkMZH/VvKFWhNQaQ407l3Crpgn1/bTGsHBAdD7gICisEkWzT0Bp6ODfU9EiqyNln7ZXCXW1F1CI7fDpPDqVGUBN4nNFtAOaN3vhaEoBRQdl2qujWntBG48WPyCHKrgWTyw2Q5h1LpRFHoSyFsWqBNv4mWViKGvMW/OVCwycyiikDfvzqFfL4gIlegE7zDf4/UkF1LJ2MMVGGDcfIAfDjPXZdOdlEaJypNH2JNeieGZADEWEGH/W6FxWfwsDFgbcY+Cc1yBYBGBhoCJg4MTJU1yFMd6voGZyDYMzOWkuYagWEe+QJEl2yuUQ31CulujvppXgKTo4kmLCbFlOrWZhwMKAMQyc8wLC0aNHqQZnUkNT1fxGqjmqY3hbzVEdw9tqjmqaWCPVHC0cEJVnHEAdiHwC/s72505AiAuKEZ6/znsB8cTIN+DvpiUghAWEUFZyhr2aY3mmA6OVDC1+4Jg22uKJJJKWwcSnRrypZjq1mqmevWBVc/Q3Z7PmP+8xoIaqukPGhk2bKDI8gvbu30+HDx2mcD6cZ86ezdkMM+n9t9+kx598mn6a9oPX+HQnIMQURdh9b+QECG1E4iHpc6A18XsffEgtWzSn+vXr0569e6lhgwb0yONPUHRUNN004kaa+/N8+vD9d7yGGw9qCQghRUEUHxXnd+GrVC9nPexXDIDOy2MriwvFOa9BKI8La8FkYUDFgFY1R7UPbpfp6RlUWFSIpAPiNo8sgWg4pEUeAv49jnMTeNt8JSDA+TeEMyNGczZG5OGQ2pKVq1ZzZco2/C5h9syJ3sJuCQjeYs73z4E2T3HBrIQq+upx+AoiLRohPv+rR7HTmpPPTAbfxqPOOtz6CiY942rWR8nIozpVfVtnZOzkDHp1iE1AkgUJ1ZTw8jvsa2hC1X5wGgVvU7/LBK/irKmexnM1h7vvsHbyogLtCfilOkcWw1J4FpbKlWxBBsJJUVWpqKoWIyYGdQxvTQzqGN6aGI4fP26vSmdElWThgMPnjhyhmjVrCsIob3Sgt5rj1KlTadiwYS55Cg7h4cOHU506dWjSpEl6+E6JPnoEBBWP8KKHecGTBmH8+PEC7gasOUBTE4RJIMBcgoKCXPo56HkZdwJCzpksu4mhPNOBURNDReEHBw4coLp16+pZRp/20RQQeNaE0FgKYV8aeS7gMIIALlN0+xQwD4NrwR0VEkmRgWHCdC6rlZp9Ljw+LYBeuc522AIfcq8jmg8Ne1biCHwM/9BkpB+EBNC1rOeCv+FCA8FB/Q5wS02q8xye5nUFC9ZRCizOsOD8xVlgRTH4k6qtuXVjQGoQVu7KpYX/5tifQ1Ki//WzSbv79u2j+++/X2RTa9WqFfXo0UNszIULF1KjRo1EcqFt27bRTTfdRD/++KPIRnjrrbfSv//+qxsOKSAUFBbQE4sfo9s73EHNEpqJ592ZGMIjImncXEfnxucHxtjnrVq1qsi42LFjRzp48KD4d9lll4lETgsWLKD//vuPvvrqK3rxxRfpjTfeoB9++IE2b96sG250lEx06b4/aMGu+fTiFa9wgahgskwMhtDok84y5C6Dc3M8NyeNOtQN4SRbRDddbKuRg7b0z2VsftrHh3Sw0ILhM+gmPz+PQxlTxEGUx58jWHMGoTS+SjytWr2aYuNiqUXz5rR+wwau/xEMZQDdNeY2cdi/9e77VI8Fk9G33CzmUA/aJxY9Rte3HkYdalwo/lYluJKDLw2EWBxauCGnZhXR+0vSqUZsENWtEkRXKtFB419/kw+bGtSmdWua8dNM6tatK+1nE2BMdAxFRUfRgYOHqH3bNrSX9286Cx2F/OJ4l1r8TBSHy69b9zddeGEHiuS9fJAro65e8xf3S6dPP5pgF5Yl3Dn5OfTUkifonk73U4O4BgQBISIgVLyrr9p9X2XR+zeHi6JswIkqEMiDGRpBaDTR3B3M+Ls8rPUKCXJevUKCHlikQGMJCL6iGmtcUzEgBYQ/tudSj2ahtGZvLnVuEEqjPk+hr26zmQywUSAcxMe7jnT4888/xcE7YsQIr2GTAkKT9xpQbkEu9Wp0JX1+zZdiPE8CQlp2oajVkMVZFjccyKOujYorQq5mRt6lSxeXcK1fv14wngsvtDFqbxuYKASb3lOuoEZxjSkkOIQ+vHqiJSB4i1ATn5MCwqPTU2kUCwU7juXTvC05NPmWYnMYzE242cGfZseuXXzARrM2rDZVS0yk35f+Sd354F2+YiWFs3Bw7cABdCIpiR1mj9E1A/vTlq3/0M+/LBAQ9+vbhw/lgywsbxepwJs3aypukpf3uMwuIHT85AI6kXGCBrccQm/3fU88505AuOrdU/TG0EqUnFFE367JpIk3FcM9/o23hEBTpUoc5ebkUtt2bWjhoiV0262jaOasOSy8NBMHOHxvhg6+jtC/c8eLWMhvSUGBQbRt+w5KOZNCzZo2oRMnkig1NY2OnThOObzXE6sm0qBrB9rhbvZ+I8rmSKPu9S6hbwf/UCYCwr1fZtIHo2yCnCshQX6n52CWan9nIUEVHKQmwZN2Qa/AIjUY6hzSlCQEhCQmJEiiaNI8gM+yJoFWoiT1OfWzmtBIMnYAK20xWs+p38v+WomStMZQEzlJuNXaCur7aY1h4aD80YGMYkhKL6JELlT0/ZosGt45wkFAwOH/119/CbpFnQIQ+SWXXCJMCh06dOCbSzc6duwYPfroo+Kwhfp55MiRhti8FBDu+3kspeaeodUHV9P2+3c7CAgqXaWmpgp/ggi20+ZzTecQruB4mnMwbOMDQBUQ5s6dS1u3bhW3B1mxEkLD2LFj6bHHHqMHHnhAaEFQhwGmiOnTpxuCG53lLavxe/UpryCPnrz0GbrzoruEgFCYmU+JfNCgWfyg7HEgveV3HM+ng8kFlMsa6/cWpdOC/ysp7LoyPxkmBo0HJI08+9tTtP/MPlpxYCXtemCvg4Ag+SluuFB5g6+v55wiEHzz2Jw+e2M2vTOsksMMWVnZYj/Cl8YXTcJ9x5zbKacgi9YcWkvb7ttpFxBwJlU5699h9rnw0HcF9Pr1RQ7+B1gj9Ubv6rB2dTBLrYErgcDTd3IOVXDQK7A4zwsTM2QCS4PgC2q1xjQdA1JQnLQsk8bPt9n2xIbhTIgbn7MJt9iU6CdLk8vvwMSg9pO2P5RJdi4Chr64xUCCx8aWzo3OL6LHB0F9RkYxhIVHUrOnTjgMt+tV24GMpgrh8jv5zvgJ2KH2U8ug47NkRPJdZQloVwtgOSmaTpamDahm9ZOD/nc0X2TplOmw/t22k36au4DuvWMUPffK2/TKs4/xoWTLyGlWc+eD4E6DoM4/b1MO9W9XLAgsWbqCAHvzpo1o6fI19NIzj5gFrn0cdz4IvjYxwEnxtaE2p0J585emBVffqYKDKyFBagjUZ+VBr3cOV/1UwcGVT4IqJMTE2MyfloBgOqlaA/oCA3qiGKBBeOmll6hp06Y0btw44ZB4xx130HfffSf8EVDcCPk+4KtwzTXXCB8E/A5/BAgRePaFF14QwsHtt9/u8jW8FRA8OSnCIejxxx8nOKtBswHfA2gNIBTExcWJf4DtggsuoJ9//pn2sjp25cqVrHI9QUuWLBEakk8++UQ8q9UsAcEXlGnOmK4EBHNGNjaKGQKCsRnN6e1PAQE+CNJJ0dUh7Oo7VUhw5ZPgzv9A7xye5nUlJEiBxUFAKG2JWyyxVe7ZwoEv6UAtF+6OpajmLXNYj+MoegQE5/0E2D0JCJjlEDtgoQS1r5o7ASEyMNwOo8UPHPdyWZR/B92yZEoxrK43o332ZybVYWfBvq2NqfT1CAjSk16GFcfG2mr3mNHunHKGXr4uhhKibeHJepsW3EW5RVQ1Ok5cAGSyMnnZUHOrqGusVTJaiw4e/CbXwUlRr7Og6szoznHRH9ENwLtV7lkv9Vn9/I4BvRqEmTNnimJjULXvYkeuxo0bE/xSsBmhLbjiiito6dKltGfPHuEUCJ+EgQMH6n4/PQKCOpjeREnQFiC6AupFMJju3bsLjQBUljCZQMBYvHgx3XbbbVS9enURyYB/RpqlQTCCrbLtC/qGvwoOJzOSDh1IDqAYdpqPizAngREOV+wr1XwHDOGmi8JuOGzNaNM3FtF1bQMgK5nSoIGDphD731ftHnZSnHDWSdFVKKJeZ0FfRTd4iqpwFWnh4KSIRVbjNKUdU0pYKnNWpSv1OfWzqi6Ttl71O63n1O/ljVG1FasSnNYYKnyuJEU1vabWGJ5uDBYOHG9YZUEHejQIiHV+5513aPTo0fT0008LpygICIjrRwgh1h5mCBy6CBtEv19++YXuu+8+3bxDj4DgvJ/0aBBuvPFGGjBggPA1gKPlhAkTBFwQaBC/jfwO2KNwWoRk/+CDDwrTiZGmV4Ng8QPbwVfWPBF8FzxX6wbriieqfFV97kx6FlWOtnnWqzzP29sz5hY3St5T6rkAYRZjYm55Q9eC39W5oO5rPLfzZDC14SJoZuAAY0CwxgHpy3Phvq+yhQ+C9D/QKyS4im7Q67jozpmxNNEN8MPCOgIO0L/lg2CEw1p9/YYBMKU9bJ9vzKmIzWhp2UV02esnaf2zNgdHvc2dgFCJIu2ezHI8CLi4YSGczKzW8IkTtO2lRArlKtNGmqaAUMCplmOsVMtGcFne++bkFxFyhFS0tuVwPrWpZZCw/fySrpwUXTkVuspXoDe6wZXjol5nRr3RDaomwcqD4GeisqY3hgGpqsemMEMFi9kRTlYnzhzVI24pcOxxlZAFWgFsPplS1dibl+y9cneuQ4hkacaT9lJ5OyzNWNaz5QcDFVVA2Hwwn9rWqVgCguqkCArQE8ngqp830Q3uoiX0wuLKmdHBSdFI3LNa7dFTHgQwchliZkYeBNjoYE9C82ceBAsHjlU/y4oOpF0MdCAJ2AgdqCpO5LpIKYih+vFBDrSkppjGzR92VzT5rKqqVOkAz8lUrq5ygmAfyDTBevaCCodMDWtPFrUtly6slWMKDhAdAbzKuGfnveUpJ4i1F/yzF6RNXYsnonaSLJtQFrlhzKAD0F4251IIDyk2YzjTo6v8OP4+Fx6dylkklUyKeqMHXDkzlkV0g6d5IXSAz1l5EMqPwG9B4gcM7DtZQPUTzNEglCX4v7OAcHnz4iyMZTm3NVf5xwD8WZAUDDdZ+NzA4RVhvuW5Iaz4s88+o7vuuosaNmwoQEXYb0Vo93zBToq32Pw93Pkf6I1u0JtxsTTRDa4cF9XvHJwUK8IiWDBaGDATA2+//bYoTqRV2MnMucweC86JCIlEhkWrWRhwxgCiX3AYNef6CzB5tW/f3l4HoLxiC8IBnHORLRSaO7RXXnmlvILrAJf0QfC2hoKnKAN/RDc4CAgyzSfeWlUVGanmqI7hbTVHdQxvqzkicYxMGWukapeFA07Fe/SoCAU8H+igZ8+e9Pzzz1MbLqUMOpFVLCsCDlB0ComeZPSFWn1R/WztBRKJpM5HfrD/4BGqV8dWmbUi4eBkYSK15SgGlY7L+7nwyA9FJTIpunMq9JSCuTTRDe7mdZWC2RUs0GCgCq1VzbFCyKcWkL7CwF42MTSogCaG3/7LpStaWCYGX9HFuTBuLkcxhFbEKIZDeRzm6LvKi75YWzgpvjq4wO48LTUJ7iIZAIdzP08mCL11GozO60pwsFIt+4JSrDErFAb2nyqgeuykWNHanzvz6NImFYuJVjQcV3R4K6yAUAHDHJ3LPauHv7soA70pk8siusEZFgcBQVXnqN7TRkwM6hjemhjUMbw1MSAXvfQmN2JisHBADmq984EOXloUQu8Or+zw3hWBDjq/fIp+vSdI1GdA0zIxWHuBRG2K85EfTFp8lDo2q0rtOGSwIuHggdkR9O2YWDp54qjd7FfezwVEMUy4xVY0y1UNBVd5CKTgoCeiAON6Ssust3aDq1wMrmCBWccyMVT0a8J5Bv/hY8epVvVqfn3rXC6TnMX15p1bbl4+xUdWdlkFMofzIIRxljx/tzM5nO/fVcsjzrpnq95mNf9gACHhx5KSqMbZktv+gYJIi0ZS09Kpdnx1ERKrtmzOThrOmff83bTgTk/JoJqJ1UrAbSa8pXVS9GRacJUK2ezaDc4Jm6woBjMpxBrL5xhQU257O1lKCjIalq6wjLtMirGB0fb0vCqMaqpbb2HPYEfKKE4bW5qmlUkxlEKoCgs3zsy/NHNZzxrDgJ5aI8ZG9K63u2JNVcPiStRiMIO2vYPU8Sl31RwjA8NKwG3GnHIMV5kUfZUKWQ2BdJWW2V2qZiMpmGVxOZFq2UhyGHg3StWm+pz6GRKPdMCQhC/V/UCq1nPuksPgOXVcrTFU+GRSG2Sykxnu1OQ3WmOofWRdBjVBjh4cSBOJmizKFQ5kkpqEhARBb844QMpL4BBSJvqq1QqN4kDW2DALB1WqVCkBs6/oAImKsDk8HWKLf/ud6nD44jvvfUB9+/YW4V2HDh2mjZs2Cdzt2buPEuLjOVqjOueoz6UXn3+WVWm2yA09TU8tBhUHmBPqQU/VHCd8PJGaNWlCp7iwFGDGurdv15aefOY5NiEcpeuHDGb406lO3dp08MBBMd7to2/RA7K9j7taDEVZBSIxijMNwlwok0X5ei+44w1qsii5F8APpK3UeS/E8xqjafEDs/eCJ56o7luZPE7lBygahiJc7tqvixaLxHNr165js0kiDR82lF546RVWa2cL3lib6X7M7aOpYYP6huhC7exOQIgPsRVBU5OGgb/JtLxak3408VNqwSGX9evXpbV/rWO6bkfvf/gRhQSHUP9+fWnxkt9p/Csveg0zHnQnIISzAIwbslwjV+eCmmxJjeRTP6t9JA4gIMHE8NrQInumVOeaDIDP3Xd6UzC7im5wJYjodWaUEQ+unBTxXjiTzvlaDDhcoeKNZIbrz5aczZXaCnJKgBBAAVQ1PK5EtTHAnc///K2aPpF5igqKSlZqCykK5kpxvq2SpiKrvNyw9AgIKtx6qzmWBW0aqeYIuI8cP+F3k45b5l8UTpWcTCM4QE+eTqbEBJuA4K9WRGwyyDhZYvrAgECqFBhFESwEqk0tEGcU5uUrVlH3bhcbfcxlfz0CgnwQNCKL+ngz+bZt2zlXQzNvHi3xjDsBIYx5lSwkJR9M5lwLcWezpJYWAOmkaLQ2gio4uIo8cOenoPokuBIIjEYyOMMiBZpzXkBQb/6lJYTSPK8lIGDMuKCYEolM1GpypZm3tM9qCQgYt0pwpRIbr7TzaT2vV7jQukUAACAASURBVED48MMP6Z577nE5zN69e2nVqlWETHO33HILffnll4bB9ZWAcO+99wq4W7RoIWBSTSq4HeMAgVQPpoHcDd40IwKCnuqZ3sDgzTNacIdTKMVGVnLQKpUXuLUEBLx/5QAWEFApT7Hn6xEQVqxYITShnTp1Emj8/PPPRflv2RYsWEDjx4+n3bt3iwyK3jRfCAiga5Qzb9q0qSZIpTVVGBEQsLdAJ67qpniDs7FfZNCHTk6Kzgeu3M9RUVFiCnn4641kcNVPFRJcmRbcaQg8zevgg6Aujpqv3lW5Z5WQ1efUz+omlYhRv9N6ztUYKqPUM4YKHw4V/C5VYHd9fYbyCopoVNdIurRpsdPYs8+PY/VcbcrKzhLqs0wu9ZrI6tY9fKDks/NZdXaMA8KSmFHHxETTVX360OHDh0WFPvT/b/sOQr5zfHfXHWOE1/CsOXOpJ5fqvX7IdYIgVAEhvzCfggOLC5KE5/Jt/KxHusSBmq9/5GfJFMb5yZ+8OoYaVS0Oy3vw4UepVYuWlJefx/MnU0ylGCrkdz5y9BgV8AZo0KC+UAnu37+fQkJDaMDVV4tDBtIhVGebt26loMAg2rxlCw2/YRjt3LmLVq9dS7fcNJIuu/QSAbcqIGSzc154cPHNRwo2ZUEH6to3feoE3dItkp7sF+2wn1HC+aGHHhLMsUOHDnTJJZcwDhrQ0qVLBX638vuCHqAynzlzpigNjb5grIsXL9bFG1QB4RRrV+Iji2+qMUURArfO+wk0ApPA0InJtHJXLh1+s6SjJWqMDBkyRKTIPcBVK6Ea79y5M3311Vf04osvivVavXq1UGNCmFi2bBm98MIL9M8//+iCG51UJpqRm05RoTb8hRQFUVRQhH2fAH4wH5h00P47mk+v/YL+AfThyGIfDjClTz77nE4nn6Z+ffvS1B+nU5MmjZmmAmnXnj1UhXG+a/ceat6sKWXnZFP1atXpv23bqDFnywNzBl6aNW0i9lTHiy7ig20PvfLa69Tvqr40eNC19vdS4c7K5zLMwTZtYFAuUdVYVoPy3pQ4V/nXon9z6Ie1WVQlKpDeGGqr4YK2Y8dOWsKmqJOMU6i7f/9jKR9eTSgnO4f2M+5Dw0IpNTWNarDKny/8At5169Zzlr+GFFcljpKhoUisKvBzNcMKPDz6xJN8i+9GI4YPE3M4Cwg5rD0MC7I584FOcFBgLSWOpQni/6am0rEzBXZY+7YOE/wK7eGHHxaH7JQpUwRNv/TSS9SxY0dBB5MmTRJ0PHfuXEImRdA1bs1LliwR9KO3qbhOy+GaJ2HFeJMmBnkuYE8C3+Cvt36RIuooyDaySwRd3dbGK2AGuu6666hr164iGRvMVoD7m2++EeXW0aZNmyboH9kT8T32spHmQNt5GRQVYjuIo0IiCRoE0Ig0KwFu4B74QfXItxfaaHvCiGLaxjuOvf9BYY4cPux6+uKrKby+XWn5ipXClAMTz9/rNwi6XZrW16HcszysPaVC1htRIIUJT+mRXTkuehvdAD4J/JzzGgRp5zudUSiKgMzblE1IkPP4VcWHy2w+zGF/BdM6xod7NG9e2Dk7s6Q+mzfcxV06C+YFJ7dB1w6kuT/Pp5qccfDCDhcIJrNy1WrBXOJZrdmqZQtaz4RTwARWjT2SRapTtiVLAWHVwZU0eOq1dH/nB+i+zg8yYUaJG4WzjVoKCKv35FKXhqE0Z2M2zdqQTZNvLS4bPHXadAEHmA0KBOHgg5265xU9aNqMn6jHpZfSAWYUxzmbXP9+VxH6N2MGA3jQbw0LA1nM3OCFfCkLBMuWrRCMPI4FH9jB8X5SQPh60xR6fNEjdGv70fRyr/Fi87nSfBjZ1Eb6qhqE0V+m0IjOEbR8Zy4NuSiCWtW0HWRgPMIWW7u2y6F37twpmCsYUTs+GLxpUkC4YdoQ+nP/n9Sr4ZU05bpvbYzwrICgjquaGL5amUVreD0vaRJKGblFdPslxU6Hs2bNomuvLT4UVcEY9mnJaOUNxBvYJROt+WaiOKyeu/wFuoXXEwJCfJRjuWdVIHt2VhrVjAukURdH0rZj+XRBXVsOBhwOmzZvYWEmRQgJOOwacDlu0Fs+/6127Vq0g4VOCNJV2Z4Julv65zLqcMEFhHfauHmzGAf+FUuXLReCNZ6Pi4vl7JZZ1K6tTVOiwl0tqhq90us1uqpJPworZME6OtbhJq4KCJOWZVJGThHd1j2S0vhnjcp82nPDPBCiYVPGfgcjrFWzpjg0ICBgj2zfsYOdQqOEcFOZHVu3b9vBAltH8XccDGi9r+zFe+gvkRq4erVq4tCAXwvgVgUE4LtNYht6/vIX6eI6Xe0CgisNwmIWanq1DKMPf8+gey6Poudmp9EL19giTCDUDho0yL70EBIhBKPhUMKhBiFYahhKQyP13+E9xOf9vV3up0e62lJ6SwFBjquaGBZszSEIMzOZRw26IJw+XZpJd1xmo28ILQMGDHAJDkIYN2zYIHyvRo0a5Q3IJWgEtP3iFS/TyHY32wUE1cQAuOUB+OLcNKoSHUi38oVjdxJKTRfnFwG/hIkXvLmwsIgaN25E6xnWPr2vpI0bNwm6wYXgozX1SmRSNMtZUF5u3QkJvqjdIPmMEBBUZxn19iOZssosVNW3+pz6Wb3FS0anblyt59SxZX+VUarjao2hmhQAN57BAqdlF9Hv23NoO9+GkCBHlRYlVfoyHE0KCHO2z2LhoYDu+flu2nT3P1Q1qiqFZgeSdKqSOJACAhgyigrtYeL9ZUs2zb2/pG0Vh7yzTdPrneb0oBQQXl32MjVPaC7gPvLICdFLCghlQQcqDQ7/NJlG8A0FGQVv7srOfHVsmxq3pkWLFgmGvX79eiEsdOnSRfxDAZiFCxeK+gUwQ0iBDExVPZg94U0KCBdMbEvPXvacAz6kgOC8n7CPMN9HzPRX7+EkR6y9SucD68FetlsOGmpDQNMDOEHD0Hj8/vvvolYEBL9vv/1W/LyIbyyXXXYZ3XHHHTRv3jxP4Dr8HQdtYVEBjZwxnPKZBiuHV6bPBk4WAkJEQJgQNNEAP25b8nY7anIKRYcFUH++EbaqFUx1qzgml4KTHA5EX/n5AO78wjx6aMGDtOPUdupQ4yIWEsZTQDYL4VUShYAgca7ymUempQoBYVjHcBZqQqlyhGOIHtYea2OWqllFthQQcllz8NryV+nXXQtoeJuRdE+ne+0CgqrmlrljoGHq2jiU3vw1nR7pE+0gIHzxxRfiBt6EnVlHjBghTFL4/e677xb08ueffwqhTWgHWfiCJkGmTtdLKMA1YB/43dVUK6YWJWUm0Yxhs8TjUkCQ5wLmwjvgEFu2gwVfpmtobG7oFOEgILz77ru0b98+qlevnqBt8Lo//viDbrjhBnERgWYM37dq1YqQRnzMmDE0e/ZsvSDbBYQCpu1RP43kMOQsqhpZlSYO+MwuIOAcwVxogBtrjwMel40wJudrLoig1kzbtZ3Kvx87niT2QpU47egn+CC8fj0JXKBJ+707IUHt58oU4K7okyoQSMEBNCyFIL3zutMuSMfq80aDgAX5gwWE1xdkUL82YTSgfTjVO8vovp82hw4ePkI9LulC302bTe+Of84QcerprJoYPl//GdWrXJ96NbpSPOpOg4C/Q3Pw6Z+ZdGG9EHrwyii+7dluQt/8MJOSmBl0aNeGZsz5hd5//Xk9oBjqo5oYPljzHnWufTF1qmWzgfpLg6BlYoAwiFuhjAgBjBB4sWFwuEJ1D+YGs4MqCOMWgwYvcjBXMDy5yZ2RJQUEMNFnljxFD178ECVE2iJQPGkQ3JkY/v33X2rZsqXDdNIDH+8E/wloPWDGQpEpwA+48T6AVap78W5aTd7ET2WepAlrP6DnerwgunrSIMAsN/ijZHrgymhayxqQ/5017YDRjn/nY+rT81LasOkf6tmjGzVuWN8QfenpLOHedXon/fTfDHqs2xPiMU8ahJPphXTz5yn00qBKtON4Ht3Q0WaaOHL0OH006WsadeMQmj57Pt06cihVZ5OBmU3VIKw9vIb+PrKO7u5o842RJgZXGoQxX6XQ4ZRip+BrmE/defYmDvqtW7euA5jQioEeIIBu375dmCDkuDgAcDBCYwL6B+3geUk7KOLk3CSuM1lN/9ry8fQCaz1kc6dBGPJxMmWyVky2MawdG9TBdiDDXCB9a+TfpUCk0jYKkEH7B6EHcCNRj9QKQgBCXxzW8jKlwi7hTso4QR/99aGdtqWJQUuDkMMpqYcwbT/Mwti6fblCKJNt2cq1tG7jFrqgbSvWdv1DD44t9vdQ537omyx6a0S44DPOQoK72ggYw4zoBld5EoxGMqiwJJ/JoCqxNjycVwKCmQzA6FjunBQ9CQhG5zKzvzsnRX8JCFrvBw3Cs88+SxdffDGNHTtWOEahjOz3338vfBJwQ4f0vXHjRlHoCIwGDGfGjBnCRAOfBDh54eDTcnT0lZMi4HrzzTfFTQvvMX36dAE/GD8EF5jA7r//flG6F7crOKKtXLlS/ITjJdTKr776qp1BucLRueak6ElAMHMfGB3LnZOiOwHB3TxY/969e3OY41phq584cSLBNNW2bVtx64Zwe/nllwt7Pvrhlo7DA9om0D6ETGjX0G/gwIEuacUXToqg7bfeeot9P3aIwlE//vij8KfA3kMhLWS6/L//+z/hcwNzBAQhvBf28Pvvvy/MUfj9ySefFLQOzYiWYOP8vScBwei6uuqfzYnGrnsnAxYZw43lIM3mlJPK8NjePjCiaxCN7G4T7oSAoFb7kpId/ihV+qrqX403Vp9TP8t4UTUHgJrDQOs5MGkZiy1V7GoOADUOVWsMNW4VEh1gYJHaNBV8UlqhsCP3b+cYpuRpMdwJCLknM4X6DU3iAO8fDLWRSRn4YP8efGG4UBUbaVoCAsIzY4OihdquLOhA5rLwlAdBjze4kfd37qtHQHDeC2CQnvIgYB41Vr40MGo9605AyE/PtcfhA37kuDhx6jTVZLu6GY1NuNT/vVM0/0Hj4YdacOekZFG9mnXEjVniHMIdQtgSz+YVKS3sR88U0qRlGfRMf2OZJt0JCOF5IRTLN3rscXmDlLdnT/CqeR089fXm73oEBLnHcDsG7j3lQQAcKv/3Bi5Pz3iKYsD8UvMAuDPYx6WqiaGwl71+ipY+Zh5thxUEU15Wrj1NuC/ORvBulV+qtCX30zmvQQDDgNSMn2a0NE5lcITLlTczh28K+yfUf852UCwc4JYqq9LC/jdHPbXmfEBhxcETpRoS0j/glnbqUg2m42E9YY7y5o2DFsQPTQFu3Lt27RKqVwifuGHhBg74YcvF7QS3Kb1Nj4CgjqU3D8K4ceOE5gOww0EWfhG4JcJcAjyDFtatW0c33XSTeBfcoqAtMdKMaBBgo4VAbheyjUzkoi8EhIkrimhsd2MCqta0wBEiP7DOqtAIOpFwlxJk8fix1CLan8wOy/W8uR+WhAC2XQm3+lc9gi28+3EYw/MffiigbUQpgL6hjgc9f/311/TBBx8IZ1xED0CDZqTpERDkeHrzIIC2oeHCIY21Am1D2wXNAWDEBXTNmjU0fPhwat26NU2YMIGee86YmdeTgOBsYoCZBXQCejGjvbKI6EmbxbjUDbQNvDiHwpZ6YC8GOOcFBOAERCA0CSY0MDpUSkNEhBkNGwZMw1UzE+7kzEKKi7T5LpjR3MFtxvjOY+gRELDhERaIKIXJkycLZgTGCVX8nXfeKYRESMbYeFBjXnXVVYIxqZ7hnmD3lYDw8ssvCwdF3NyhioUJ5PXXXxemETiaQV0Moeaaa64RwuRHH31ETz31lCdwHf5uREDAgxAS8M+slsVhcBEm7RvAhH3jSqNkFtyp7NiMVincnL2OsQCvzASp4lWPgPDrr78KoRcCInxWevToIegCQi4ER9ANhGSYx6ZOnSoEYvRBFIne5gsBAbTdnDMpQosGnwnAB5MDHG4hJCBkEwd4//79xd6EgGMWbbsyMQAXOA/MEg5SmLfGmshb3dG23nU0q58QENRqWaqK3kg1RziWSI9Zb6s5qmN4W81RVe96W83RHQ4gIBw8fIzq1balRVVxV55xcCIlhxJjbXHYqplIqxJgeaMDMFAUa2pQt44ptA/v9sEfnaYF/2dMLehOQKhEkSISQKUDqO1wIMh0xWYA3+KZE7T5eQ6hNVipWlNAKAiinLQs4ezmTNNm0UEQR0xEM/nJ2H/VnKJFg/7kByu2HqWLmldnjVuAsNlL9bSveCIE1hDWhphVrOmdRZyWmz3yEQZspGnRSBEzPmR8hXCq5mrJY899mEvMar3eOsXVHOOoWiVjlxktuPPS86h6XIJwdoS/A5qZ58Lp1ExKyQmlhlUdq2ZWlHNBddZ2dS6cFxoEs4gX45itQTATNndjIQ8EEsZU1CbVmVBHmnWr3XuqiBI4si/GhBsiTC0QDlyFzEG4gb3ZrBvL2n0F1Km+QelAY+FlJTmRFMWHXlHLOGcF8j+U94Z9guiHptVMssXpfGHQNGgEtGKWtnPbsQJqXr30dCKTDEED4KztBLwwHZhF25sOFVC72qWHWaJd5ioAnZvdoElG+HnzGsW5E8yew9/jWQKCv1fAml83BsA4zWKe6qR/78ujhomcdCfSe1UymKi7A9Zs2E+ws2xiTOmZnj2lqg+Fg3w28wabx/N104uRjrtO5HMGyABqkOA/QM2mEby/TGBkBBeu+rqjb7MEdsy7+VA+ta1trnDmC+HgFAuRwUEBJXJrlBbP5e35EiYGVc1gRJ2mqlS8NTGoY3hrYkDML+xaaN6qklzhAON9/PHHQn3crFkzETaEn3Asg50brTziQHq//vzzzwIfkPQv4Ex2gN0ZZhX+85EOzmQW0cINx2lAp2rCx6Q842Dr3mRq3SDO7Rr6ai+oiaDUObRMBUu2JFPPNnF2uy+0LXpMDL7mB9AG/vx3El3aKp4ZfaDD/j2X9sKG7cepfp2qwgfJTJ5olA70nAunCjnrJAsIWrRUHs6F6euyqF+rQE4MFmbHJzainr2gBweuzhNf7wXAb5kYSimeIb4YhytstXAGggDlbeGcUoJi6HE4N4EwEREBR7fBgwcLu7jVXGMA/qxHOR8+Qtyq8S29tlPmwPKCN9RIaFHD3NuW2e8GNWwo2/HLS0NiHOTfx2HZkLUFPlSclJdXtsOx9XAea52CKNGgfb8sXgS1JFB4CrVUUNcGDQ7H5amt4CyX9eODqJZTtsXyBKPZsFgmBoMYrag+CMkZRRQXVX4YtUG0+7X7mawiTnfN1d9YpViN8/nLTJZ+BaqCTI6wO3jcX3jhhaKwFLJBGkltbcZrIoLnwGkujMQycfPqIWxKMGPUijvGFlbj434ga5iUhzdBMjPcnD/99FO7Bhjpx8tDW8cmyHB2M2it1GkoD3CVBQxCQIDEhvAqNDUZkcxrrno6qomU1OfUz2pSDBmepqqjtJ5Tv5f91fA2dVytMVT4XFV4U99Pawx3OICAcPxkMtWoalPvVhQcJKXmUdVKNmea0uIAY5zPdJCRH0L/8C00tCidGteKZcErkFK4WJHcQ2W1F5AZD1n1rh08jEPIuIQwV6RT5/b1XnBHB//tS6JGdRJo+79bReVJVPNDTgfUyEBMvC/5wZHjpyg/JFYIBQmhmdS8ri3Mzxf8oCz3gkxYZxZPLAwIFlEaavOGJ5YGB2oSPsx9KLOS8EHQgsNsHEinYmeeGB0dwyGlG0QeEOStgHMmNMdyj5t5NjrjwBUfUfFRVjgAHJYGwaAYVnE1CJwHoQJHMRhcpjLtDpPElkN5lMSOS+24cFQCV4fzR9vMMKAanT/V5sgc8DfntL+oftlFLKBWBBo0PFbTjwEITIhC+O6774QvFVrj5m0okgVNfzVfOCnqfRek/IBp8U8uPNWvea5I1oTibsuXLxe5JmBORqK186lZAoLB1U7NKqQNBwrosmYVK7Tlm1VcZY1LJEPNajXfYQCe6ChbiwI1H01bSfB2Rnlko3Hd3kKI6Ibft+WKCoZl3d7iCoRDuSCSc7VHX8AB/wuU5+0gcBtEx47ailhBLQ1NRePGjalr166+mPqcGRMOf6gECedrGYlQqVJlQkKreZtyRHVGWSK7rF4aRcG+vyO2TP1WDp3OpyW8Z4Zyzgh/CkdlhWMj8wgBQc3ipZZLBdHAmU3+xMDq39Xn1M9qaV5ZrllVi2k9p34v+6vlntVxtcZwBf+xE0n2am164Hc1RjE8rKpkqTs8zHZD8oQDGZZ3KjtFRBDIOGL7c3z5iQmKtJfqlN/judPsWBjPVczkGAg10oMDV3jMzS/kTWeTDozg4GRWMiFJSgCHgKl0kHkmk+pUqylC+zzhAHOWBzowSsfe7AXMAeEAKvSOHTva1wvOeijxfCK1kA6eyqV6VUOpUdUgKsjPE46j7mjJ3V7A8/mHtzqMcTrL5rhYJbKAQjmxDVoBwxUk9nIR72nbDTEvj/0qQmx9tfdTcR/5rBxLPMfZKTHH4aiadOh0HjWuZptPjhfMt7LosBh7Sm5v6GAfl2fffjSH6sSHUnV2sKvEZZuD+R3UvYDPo0ePFgWtIBzA7wECgjdr6IwPM8YobzxR717ILgyh/Yz/w6dyqEeLSBHdo54LwBXOCD08XeLAHT/LoxCKYg2GJ57iPEZKXppLOg7nMuZxMZUFrUhzAuBfvotLMxcVcvlyrg7JGj8jPBETnStnoyc6OOc1COrGFBTkp2YkhamNefNWOcvc/QSymNYo3P6EtaLNDdMEHOhOsQNpFpfKhaocN7YalfV71+elJlHw6T1+f/VjVRtqwpAYXkUznbj6UC7z7AN8mzvFyYpwSCB9LXI9lKcoCL8j2s8AHE4uoBNpRSJhXATLlk0Si8o1n0Kq5U17AykuOoSOp7JPCgsDTasHm5ry289L4tPphYAgKydiJjhloAAKmry5qIes6lykPqd+Vp0apYSiSoRaz6nfywNSlXDUcbXGUB0+ADf+yffRwuTAQUOox2WXigIZ//DN49233qA97AB2iqvZQToOCw+jGlxyN/6sI6c3K+LuoA3OJKEWxW1cvpf6Hlrz9erbj67s2YsaNWrAYZeH6P8euI+2bP1HdM/idYzkvOYx0dFcKdKxhrwR+N3BHRsYLXKnVwQ6QOy9qsFR6VwLfld7QRXcjOwFmQTH+bblau5Clhx2HU6jtPwIwgWfIaeESqF8YJJdC4S9AM1DTvIxCks94HZJ7xj3MTWrX5PiK8dQ5zZNqUXD2jRj8SqKqxTNGoB8qhQVQV3bNzdCFiX6uhMQUN5YVi3EfmZ9FB1LyaPUnEDKzuOiUOkZ1Kx2ZaEd0FoLs/iBWXRQkXmiWTjYuD+LTqfl0hWt3adavnXMndSqRQsRpYDMhoMHXUPTZvxEcbFxrNkqoGqcArl9u7aloj93xZrm/V1Ag9qH2KtOyrUzgx+c63RgSIOAMqpxJubd9pYiXBIDS7TVo2yHrNpUJq8135NPP0s9e14hDpDlK1bSuOeeobV/raNNm7dQCy4ysoELpPS/+ipqUL++tyC7vYm7qg+vHj5ak9734EM0YvgNVKdObRr/+pv0wbtvC7h37NzFsNajXbv3UKeOF/E72JIiedPcCQiVA6JKlDEW1QvPCifezGfWM1pwhweEcgx8SYZ2KhnmHP1FbcyC03kcV3CjtDaLYhSNOg8phbTvVL6g88PJeVQv7BRdGH3ELTj3j59EjetWp7ZN61Mml5BN41K3F7ZsSDv3H6V6NarybbCIWjf2XojE5O4EhAemFNHDfWMpk7UkyFlfl+PI/elI6au1O9/G1VvNEXyqVauWdCHnkMFF8QSbfBs3bsT8aTfVq1NHRAng99I0I9UcSzPP+fasbgFB9QXwN5K0iCEuKKaEtkCPgIDbOnwDpC1Y1VTgXWVVReDAW7W/u4PWWwEBQgRuAxJuZ7MEpNvSwIx3NyogOOPOX7SiBXcgH7aJkfEOgqSqpfIXvHJeLbihpneuAigYNGsQwj1oENJZIIhgLRh8EJxbPgvF+ZwLOZhzIQdrVBXVgxN3AkJ8SGU7jeoZy+pTMTCgV0BAeDo0jVpVa4VWiWlZ6+96sGEJCHqwZLyPEBDUFJGoPhfHjnFo0iyAAxSHkFzAsd+cEbbTixuF0v09udqN0uYv+JX69e1j/+azz7+gMbfdav996o/Tadj1Q+y/j7xlNGWwirFKlThK5lscCt7UrFmDXnvlJfr9j6V05OgxhifWYUyVGAqK2PEvwJY/HQctYEWZUzR8xk0LJoYX56bRzA3Z9nlRjOWHO23viXKkeDcQMRK6IGMiQlpQchcqT8RxHz58WJRN3bdvn+iL0qSy+p0etKswH0s/RtWjbdUg0bJPpFN91k4AVlmNUmoQHvzhjAi7kQ04/3CE7QZ87733indD+VfgDWVTEWP++OOPi7SZL730kkj/ibVDNbrrr79e1Iw30lS4kzKSqGqUDbdoUoOg0g9i8xs0aCBC/oZNTCZEfax7pvgZPJeWls7mnGgxxptvv0u9WHujqhh37tpNTZQbxS2330FnUs7QwAH9qevFXeib775nJ9EwimW6aMrvs379BkpJPUOjRo6g5mdTSKtwn87iHAURtjwfuI0n8mfkCJDxxmoa0wNsY71rSgqlc6nfPx9PcEDVvPm/UP9+V9m/+3TSZLrj9tH236f/NJOGXDfI/vtNt9wmCtmAHpHyGsVuatSoTm++9ir9uWw5HTp8RNB9397FheRVuM+wY2vlcJtWo2qYzVkVAiHo5Axr83DzchYQXlhehZ7rbstEJ1ur3sPplsH9WUNSidIyMmnNhq10RdeOtHrjFprwwqP06Xcz6b/d++mdZx6k59/9jOYsXkb/LvrBCJk4aBDSc9MoOjTG/nxIVoAwoQF+HAbYP2pOE5V+1M9qZVbZH8K6FJSAA1klU2sMNX2sNNup5k41vlxrDC2eCH6BJtOZ47PWIF7UygAAIABJREFUGDLO/lzCAXgUaFHiAe//+PRUem1IJQfaAU8dOnSoSICEcEHk7rj66qvpt99+oy+++EKMMXPmTMGfUOZ54cKFtG7dOkP0p+6btJxUigmzwSDLPSNiAzSIZtGBfhzo1iCo9hoUNpm3KVtUPOvXtjicKjU1jd557wNKS08TvgywNzXjw2ve/Pls47+MApkQ/lr3t2CKEeER9Pr4l+nW2+8U6vvTp5NpxapVYvO/+PyztHfffvqMGXCf3r3EwQwh4oL27YQqCsSAQ7bDxLb0YJeHaGir66lBXEOKLgwXtk7VzCA1CDuP51MThveJGak0fnAlgpDz0UjzypR6omZJwF0+u4gOpR6irnW60o/X/yQec6dB2H4sn5qxU811XJr4p7FV6KGpqfT2MMcN6Gnu0vxdwt32o5aUwgdWvyZX08QBn4khXZkYpA35Tj5k7+wRRe05LwBKzz7c2yYQoEEorMJCaL26dekA+060bNmcfv11EX075UsaPOwG9gF5k5YtX0Hbtm2nN157he4cey/17tWLBl93Lfc/SN9+P5XyWFUJ35BrBw6gzyd/RUeOHaH2bdtRv6v6UssWze2aj8bv1af8wny6sc0IeqXXa3YBQU01rdL2Iz+mivCu/kzXU//Kohs5NFS2cS+/KpJMgcGEhYUzbTeh+QsWsNBysaD1dUzbEK4jWGgDbd825i4aOLC/ENb+5PeBcDL+5Rdp+44d9MVXX7NgdLlgWjj8oH5t0KC+He6abyZSeHA4je14Lz3S7TEhIABmFW5nDcLJrCCavyuSbm5j8+guyyY1CIC7clhlerT74zT6gtsFCJYGoSxXouzmctYgoBLm1xxO/UAvx0tjWUAk+RToLzI4UuyZuzqOtQsI2J9WM44BrwSEySsy2cmIVZMcwvTsgOKbgvHpvXsCxLA/ZR/9unsBjV/2Cs0ePo/aVGvrVkD4ZUsOXdUmjCYvz6TR3SMdBIQZM2bQpk2bBDC///479evXT9SAb9Wqlbjx/P333zRgwABawIfBbrabzZ4927A6TBJw988vputaXEdvrXyTDj9yXMzpTkCYszGbBrZnDci8NHqmf4yDgIAEJ1u3bhWFb3DL6dKlC+3cuVNoEfDzzjvvFOaRCRMmiLCvOXPmGEa4hPvSyV2pW91LaOGuBfT3XTZcuRMQIIB1rB9CVdhruFZsECfOKdu8ERLuy77oTk3jm9Lh1MM0f+SvHgWEGz9LpgvrhbB3drAQKMu61gHgBuO94qtLKTY8juLYtDD52i/1CQiZQXT7/ESaNeSowzr/tOB3FpoDacmKv9iHKIYuatuC5iz6k24Y2JuSTiVTEgvnV3bvTGs3/Usn+fPh4yeFNsFIg4BQyNq8638cQkmZSdStTncWyMZbAoIRJFawvq4EhFGTU2jufTZtnWzgrzB/QsMJR0XUs5k1axYNGTKEpk6dKrqNGDGCtmzZIrS1P/1kuzgZadg3hRy2eM33/TmPQxa15fPg7b7vWQKCESS66FuimiMORqij0dRqjpDApIkBt9qJf2TS1W3DKIHDkHBLRNu5ex9t2PwPJbM6uGnjBtS6RVOqmmAby8wmmf+i3b9y9rRQ6lHflt0KGgSovdRqjrhxQQ2P2+Dq3Xl2MGrGBdKjfYpvtWbC52osCTO8dieu+5ju6XSvvVvG0TMcidBIaD5QLbJGjRr2VLSTlmWKtL6yNefiPHdexu7sZdQk3HmFeTTp70/p7o732GeWAoKqot+1a5eIQ0cbNyeNmjG8b3MCnTVPF5sZvp8+h8LY7NGoQT2aMWc+jXvqYdPfRsKdU5BDX26YTHdedLeYQ5oYoFqWKkcU3qrDzlKyPT0zjbo1DqUvWBD+8S6bGQrt+2mzWTuWQY0b1ac2rPWomuDICM14CQl3Vn4WfbNpCo258E4xrLOJAQIhNGuqiWH+7kjq1yiTPtlQie68INUMcHSPITUIJzKO07wd81h7cJv92SAO40xkT3UcKBBY9VZzlHsBA3lbxU81U3hbyVCLJ8JkhKZVxU+F39sqfuUZB9AWgr9KEwNMuIMuCKf3l2SUMD3rJiQvO8p9k5x9mmb8O51u73CHGEmaGGCOAg2iWXSgHwdeaRC8XEPTHtNySHFnYnA3+TvvvMOhgPVoyZIlwpb/9NNP0+bNmwnf33PPPfTkk08K2z0OwkWLFom88u3bt6c+ffrQ9OnTRXIWEB3sa1qpOH3hpAgfA6RIhb0Oam+kBZ07d67QFFxzzTX0/vvvi/cBbJDMUTjn0KFD1LdvX8JBDnU5hMCxY8dqoseok6IapmbagnsxkBbcUkDQMjF4MZWpj2jBrcfEoAXISxO+oCi2l584eZpy2XH12ftH053/G081qiXQwSPHKZEFnaPHk+jIiZP0/fsv0dc/zad+l3cVGoUE9vNYsvIvqlOzGsVERdKDo29wOY3lpGgqGVSIwfQ6KYJPwd8Hwhocp59//nkaM2aMCCuH4ATH7z179oj6C9Dkfvvtt1wHYaPQMIB36UlvbDkp+oZkDAkIzl7UpQVJSpxGx9EiBleqej1RDJj/rrvuookTJxoFRXd/XwgImByOPT/++KNuOIx29LeA8OWKLLqlW7EfgF74teAOokBKiLDZ82VTHd/0ju+p38SlmXSXF5oeLbgTQmOFBs+dD4I7mGBe6Nmtoyewvf67JSB4jboK+6BeAQEvCCfEQYOKHXjNfmlLQDAbo7bxSpgYVK9f1cQANRLUNLhFQ7WJpqre1M+qh7IMIVPj+mXfd37Lp5vbnbGbNNQxZH81BE0d13lueIrDoxm3YlcmBnfo6969uyjIoTbY81evXi1sZShPC/sYIht++eUXGjduHK1ih0ojzd1Bq5oYpLpeTx6EDh06iOp4aoPfwbvvvkt//PEHXXXVVcIjuHfv3gJeRGWUxjvY+X1dmRgQxRDJWotCViVDLawmyMHh5ooO3NHSQ9My6e2hkQ5pnt3RgTSPqZ7nko5xe8GtBXSimhigVYG6GP1A/3IMT5VN1Tmc6XHC2jh67qpAB299d3vBHQ4g5AImwCijGFyZGLToccQDz9K3742z/xlhjRmscdq6fQ9Hf6TR1Vd0ox9/XkK9L+kkHCyfeuNjevOp+42Qt9s8CN6aGFTTlbcmBlX9761qWYsnejIxqPB7a2IozzhwNjFoEQwiGBAZJhsEiwMHDgiNAv4houGrr76im2++WUSNPfHEE8JvykjzJCAA/+q5IPe7dF5U11jFufr5fKQD3RoELBZuWnA2kXmwjSygq75r9+ZRpwald16D7R7/oKpSb1iYU48GAY4zN9xwg7BJv/fee/TNN98IFT1MDbVr1xYEC+EA5oSHHnpIqPAR7qiG93jChS80CDgs4NzTuXNneuONNwjOQAMHDqQHHnhAmEygxoNDEJwZp0yZIt4HIV7OOHIHu1ENAmgDc8jMgZ7w4unv8Iq+6WLjGgRX44JGgDP8c24y66YZtD1rfTZd28G8YklacOvNgxDSuCtNncDOvIuW0ub/dtHibyfQmCdeof49u1MkCwQvTZhMjevVobE3DaYuHVpTfPsrKW/XSk9L4/B3S4NgCF3nRGe9GgTsty+//FJcUlauXEl//fWX4K/QKOAC8cwzz1DDhg0Ff4IvVl2ObsJ+NNI8CQhWFIMRbBb3NSQgeDeF9lMrd+VSV3YG82WDgBCIJEgm1TVAjfkl/+XQrd2MOQq6O2grUaS4HarhmfApCGFHvtIkr1HxCschhOwZLUWsBXcwBVF0YIQhIcmbdV6zJ5c6N/QtjXgDl6tnEEp79EwhXcphkmXRwKDTTh6hmIxDpk13/6IEerpbMieTKjA0ppaAUJiVSVUr1bASJRnCZsXoDPqDNg9aObPavd+doRcGxogCSkaaJp8qCOJcItEW/RlBptJXCAiqqlSq8tBHZuZTs+OpyUnU59TPqqOajDFXawvIvqt351KzKhn2xEzqGLK/GqOujqs1twof4MZtGaohWc5UVU9LtR/eVf2s9pG5tmVylQIO7Vy0NZ16tooS9ee1xpDqTDUxiqrNkM9Bukaf6lzrAU2+F+aD0yPszqqNXFXRa82tqsYl3PtPF1G9KrY01KXFAcbA+kDSRxKm0tKB+t7q56U7cqhTnUIhhJSWDnCDUDNNqnSuBb/evYCSzt+vSqF7r7RFNXizF7RwIHGthQOsA9S10pSj0oQrOlBzx7uig993FlG7hFTOU2HLEeJuL+Dv6hyu6BERRNDsIakTmjt+4C0O3D3nzA98SQfu4NDLEysaDsBXgWPQvFzj0vDElYcrU58WAZSWmmI3ZavjSR6qhycCLpgVYFIE/mVSLXme+YofnEt04FcNguAYZdBkymGzp/ptWw515cyGKIHqbYPWAEKAcw0JGRJmhspbwrZ2D5t0GpbepIPxtOD2Fg+unpM5IMwc08yxTqQV0psL0un1oWWXuMoZftCHUXWsOxwcYQ1ITa4oaVaTyZ2c6dus8a1x/IsBs+lvJyfhQw4Ss5pFf6XDZJkLCHD6gFSHWz0+o0HS69GjR+nexE9Pc40oWr4zl6qySgw5Cspzy83nfOeBLJCYx/999rqzOKb6Wo6pLo9tDmcRRSrm4Z0izrmiQ4e5GFSt2ApAIOWRMCyYSo2BnccLOEGZLXW+1fyPASEgqKoWVQUJ6RCSvxpJoP5dfU79rKqD5RjyO/TDGMgtMGrUKIEBqNlbt27toAKW/eXz6KeOqzW3Cp+EWx1DD/ze4uBMRh7tOcWmGTbfXlg30J5YyhkHeBct+F3h0UwcHOJaA9VjbDn93cHhLQ700oEnHOQVBVNkaIB9zc3EAeY2SgerdufQSk60NbJzOFWrbMOdnjHc7QVPOJCFwcpiL2zfvp2acR0LRPTAUQzqWMSrQ20sacUX/KA84UAPT7FwQMIkava5IOkAeWeQ0Oi5556zF8bzNU/Uu5f9zRPLkh9InJe5BkGViVaxDwKKD52LLYdv63BoTEotohp8I2uQYEnFetYZdn+ktcbBhDBNhCPCvo7fb721uOiXnrFK06eQVUPIvgmtC2gUdUfO9QbbLAqAQTiA2Qshs/Aut5qFgbLAAASPK6/kCJqzaZnLYk5rDvcYEAKC6oikOhOqt34pvajONupz6mfVqVHe4tUKarIvPNRbJebaHazUMWR/VXuhOvlpza068UkpSL3Fqe+nNYYvcJCRG0D/HMrkaIpQiosKpPiwLKp0tqKhFhxm4gBk8Oqrr4rNh1TOGLtly5bUsWNHl/j3BQ5gD3RFB4ANOCgIiqR/9ybR7CnviEMKFS5tFRBriPTNsvqir+hgy6E8+mtvFkeOhHD9izAKC8ixR2n4ei9IHEhnQ3/tBZhOKD/DThP+oAN/48B5LSwcFFf/A258uRfyAiIFfywLnlgezgVPPNHfe8HSIPhRhNzKNRZQNht5/9k1oEyayuxYYCfA0Ka2/2/HGw/kUbVKQULbYjX/YcDyQfAf7q2ZiXZwnZ+mXL3WauUDA34VEPq8fYp+fcj8Yk7lA7X6oXjllVfEbRkhg8iAiNzj3XoNYkk6gEKDUT3Aty2Jw/Q4uR5V5cJbwWV8Pk/mVMpHkvPpaa5U6cuWnVdEp7gc7az1Ofwznx7pE0NTJn9CkydPFv4wyKQJTQWyhN52W3GhIV/CVB7HHvjBaZpyWxzFRvqa6srj21sw+RsDvd46SfPujy9VZJi/3+Fcml8ICIi3l3H4sPlKVa5UB0u1fQYXzog6W8HMDCTAvosD0EjL4FKeaXkZJR/h23C1yHgRHYG0y2jytqyaPNSUuOp768UBxlUrxGmNIeOv1TwIaly9+hy+hyMYBAQ0mFVg0jmTmk6h4VG04UAOHeQ8Bh24DHHVsHR7fLDW3ElJSR5xEMxzVVYSnGAtUL4bjoFl1Y5lnqS0rCKKCec5lWkL+QCvWdWWF0KqGuEgJMNB1bhoLRwc4+JDP++IEhEmt14cTJ0aR1FAYS7JjGqgAzkeClrJhtS8tWrVEr+62wu+oAP1XdQUwe5wkI/qiOwvYFbLL2AHVs7vYbRhLV21kKIgCsoLEDSrZy94gwPMW5q9IFNrlxd+UJFwoFb5NUozrvrDdyvM4Jkg1l+D/oJyAightkqFPBfKAx3o1iCoXuRmEIK3Y6TnZVJargsBgQesElzJfgB4O355fw6HeHp2IZ3kW/+h5EK+8QdweGWQoQyJqh+AP9/XXXbJ6pEJJXJDaMF6JKWA5nLoIXByMWddbMIOhTVj+WAqY22IP3Cpenj7Y345p7u1RCVKV+mt/QmvNbc5GCjvvATlniMDwyz683K5dQsIqkOH1lzQMMz4aSalcF6DAtZZN2C1+Y6dO+3hfj2vuJze/+BDmjzpEy/B5cPRjYCAlMXqbVCdxMyEQ14D7+JBsxLIZOYWURIn7jnDN/LMnCIKZ01AnTh2hnSRslRPIaiB1w2lLp06UZcuncRNesh1g+jdDyZQWCg2WxANv2EYRSs3b29w4u5QSQyvYqcbOXYav9cqTs/979F8SmRzCN6tVc1gqh1n3g3am/fw1zOgaWjHkK3QXXv0iaeoRfNmbEbKp+qJ1ajnFT1o567dtOS338VjNWpU5yJaWaKQFgQO1CapXasmXdK9m+5Xc7eW8SGVrVS3ujFZcTqC/uAw7KkmzYMPP0qt2CEavC4+vgoN7H81/b1+Ay1bvkK8LGrggPYyOSsoq5mEtqle3TrUq+cVupHhrhYD5/K06E83Jh07lqjmqKrg1WqOelRJBw4eEkwHKtGr+/Xl4hxrOKa1qlDZTvnmW0pk1f8F7dvR5T0u8xJc9wICyj2D0BBHi4bPYJ6nklOoKhOmP1tydiplF+SUBIFNIwUpOaIoFNrRo0eFLRzN2wp2qgnkZEoGnc4JoyOnc6hSVJi4ZeemHqX+Xeq5Rcfb777PB8nlIg12UVEhw3VMmD627dhBibyh8TdPjMETvt0dKm/9HEIX1Q+jY8kc7REVLvJKtK0TJpiMmspYq/KaigNvq/hp7QVPVfzUNfS2ip8eOgAj1SMgYC1r165FLVu0EELCwQOHRAry8W+8KZboq8mT6JcFv9LsufOob+8rqV27tiLa5Ko+vT0tof3v7tbS22qOenAA+kQrKzo4cOgw1WVc+rPlF3L4dNbpEiAUcWxuzRgb71Px4au9oLeaI+ivYYMGQhA9ztUbCzlffVRUJI17+VUB65eff0rzf/mVps34ia4dOIBat2pJ2Sz4QpDQ2zwVa4LJVz0XvKnmWN75gS/2gqkaBGfCdDZLgGghLW7atEmE13nT3GkQICDIsBA5tup/4M18Zj2jKSDwBGVpGkF8f1ZmhqamRb7v7t27Ragh1gtNzbmP36FRQg0AZMWUB6ZRXLk7VBLCqlAIayqspo0BvRqE//77TzjBagl0amSLt/g+HzQIerSo3uLPyHNaAgLGSAiNtScYMjKmN331ahC2bdsm6ra44hOuQrm9gcWTgGBVc/QGq+waBidFPY/KzQFvcDiSyIYbXSU4mXGDI9nDDz8sbsNNmjShXr16idKeH3zwAd19992irGcDliThpQ81JkoS47tZs2bpAUH0UQWE1JxU4fhUOdxWWMaVgKAyv4tfOSnSePZpFU4juhSXEE5Pz6AT7NhXvVoirft7A2eSa8DFauL4tsWu/fyqyVxLHKoxkZOB3/fZF15kFe0uata0KV3DEu+7731gc6bjvAZPPv4YwcFsO5tWataoSdcPuU7ApgoIpzJPUXhwGEWFRou/VQ6I8vqQ1Y04paOaywICQwH/D4Wn1DZs2DCh+enEZgb0X7FiBfXs2ZP+97//CcEAN+ObbrqJHn30Udq6dav499FHHxkCR27q/MI82p+ynxrGNbL7HbgyMRga/DzorAoIuexcmMVmplBeR3yuHFHsgIH9eN999wkmDTpdtmwZ9enTh3755RcaMmQIzZ8/n8aOHUs///wz/fjjj2KtnQVtT+iUa5mdz74gmUlUu1Id+yPniolB+nuAY3YYl0QNqgbRhyNiqYZSuwIH3qw5c+nqq/oKE1leXj79ywJa69atxM25iP9LS00TwjezElq/YSN98OHHwiw76uaR9OVXX4s9EB4eRt99/ZVwCp8xc5bQht48coSNzyoahH0p+6hGdA127AsTfyvLy4YqIOQxzcHMCQdDnA8q/eEsQJIzJN0CbwT9odTzTz/9RN9//73gqzBVACfjxo0T3+MSaaSp9JeUcYLqVK4rHocPQhhnZbUEBCPYLO5bwsSAKAB5a3RlYnh7YQY91DuKjqcWctx6II3+IoUm3xrr3exePCUFhCNph+miTy6g8b3eoE61O1PzhOZCQMBhhlstGjYVGiRXqNajwwLovcWcBIYFmnsuL/Zcv/7GkdSUE/HAf2HT5i0svCCRUB69+PwzBFv88888TQsXL6aDbEL57usv6Y6776V2bdvQPXffSRs3baY3336XTiefpka8AW65+Saa+OkkJvgsat+uHSXEx4uNLwWEX3ctoFtn3Uw/DJlGbaq3pbjwOMo8lirS26KpqkFvTQyqB7wr9ToOeBwWaDPWZ1NsRAD1bGFjMGXZ5KZu9G49KigqoGtbsJ9D3w8ECFJA8BUOVDrXUk9r7QVPJgZ1PG9NDHroQDUx/Lgui/7vh1Qa1jFCZIA8/KZtD5RVk2tZ881Eig+Pp9suHEMPXvyQmN5bE4MeHHhSq3raC0boQAoIKJ1+f88o+unvLPp6dRbNvKfYfDn/lwW0fcdOjqo4Tus3bmReGk8tOIU1IsOmTptOI4bfQAsWLmT/nWi6ddTNFBoWSosWLaZxzz9Lc3+eTx9/8pm4aI177hn65deFtHnLVt6rtenCCy6AeZ5G3TTCLiCMmH4D/b7vN/rfJU/RfZ0fELiWAoKKOzNxgDnkuaCaGGZvzKax35yhuy6LpIlLM/1Kf9Eh0TTmojvp0W6P2wUE7EP1XPDGxFDe+YEv9oJhDcK+kwW071QBfbcmk94fXlkQhRQQ9u3bx34Hq6hOnTo0ZcoUYUPv27evsGcOHjyYpk2bRkuWLKFrr72W9u/fLzQITfkWftFFF+nmY1JAOJTKh/Xmr+nDtRNowU2LqUXVFi41CPKAhHS7mqsZbjuaR0jx/PXtNttlWTUpICzevZA2Hd9Eb618g/65ZzvFRcT5VYOQwoma4PSHqpRqmzlzJm1kBgfpHrdOrCm0BCiqhZ8QaFA/Y/PmzTRv3jxx+zTa5KHS5bOLWMBrQQdTD9KSUX84CAhGxzyf+qsahGUczjnxjwz6dkwcgVlf077YcREaAdihoc2L4dBWhDQvZoH3/vvvp7Vr14rDC/sEtywwmT///JPeeOMNQ6jEWsJXpffXvViDcJIGtxxKT1/6jBjjXNMgrN2bB8Ui7T+ZT2/8mk5/PW0Lqy6rJjUId8y5nZolNBO85MgjJxwEhLKARdUgrOasuB+w4AT6+25NFt3YuVhDC3qCwAJeAVpDWCnOAaTyRg0QCLrQWMHGD58x/M0bbSTgueyL7pSdn0VXNupDL/d81dIglJIQDAsI0CDgsJVt2Y6cMk12pJoY/j6yjsP8Qqhd9XYCHFcmBtVjf+fxfFr8Xw41qx4iKtY1O5uxa+Ln31JIaDBrERrS8lV/0f8eGltKtJZ8XDUxrDq4kqpEVOHN3Vx09JeJAVoVHCr92oRTDqsIESJYlk01MSxgzUr/pgPs01smBs8roQoIUoPwze2x9PnyLMLPsmxyLVOyk2nNodXUp/FV9unPNQEBL7aSLxnbWLDGrR7mSlnyfcnSFbRs5V/U/eKOtHffARo5bBD7fphblVQ1MSza/Su1r96BqkbZhBR/mRikBmH63XH0Jp8RM/hnWTZJf+m5abRs/zK6qkk/Mb1lYijdKggBQU08o+bAltWroAGAPQ3/3DVoECZNmkSHDh0iOKbg+ZtvvpkWskoNvglPP/20qODYtm1bcTvFLfTff/8V0uPVV19NU6dOJdi+X375ZfHdXXfdJbQMavPkpIgbLwr7oAFuwOCtE13pUOv4tDsnxaIzttAyNHUtZM0BtR6FKvCofdXPqkOhdAJSK5GpKketd4TPCHxIoFaDw+JTTz1FH374Ie3Zs4e6desm7NY72c8CfgrQNsCPBPZErN3HH39sL/IDZ9QffviBJkyYUGIqPWGOvsKBSudaeNTaCzKhlYpnrTHU9ZLrqNaS0HpODx3A6VBPFAPWEpUaDx48KMIYsUYoygRTItYXGoUNGzaIsd566y2xZ+DxPXfuXOHciHWFtggNe9hVc7eWEXkh9uReZuNA7m1v94IROigvOSfcOSlKAcEIPzCCA6y95CWgF6ynp2gm0B/oB1oEPPPaa68J3g6TrgyThOYZY0Gj9e2339K6deuEj9P69evp9ttv98iKPTkpYl71XMAeVnmitzhQ80D4mx/4Yi8Y1iB4WilZNtZTP2//7klAcHaugpMiVKcI6zKjwUkzmVP21uBEPEaaOwHBXxoET/BDKMBh4qumR0Dw1dznwrh6oxjwrqtXr+acFl189trnQxQDBAQ4EJqV9OlMViE7lhJVV5wc9SyQHgFBzzil7aM3igHzwGwAJ2dfNU8CguWk6B3mhYCgJ0uinhAfaBAg+cHHAA0S4S729ocX62effSY0B7h94vtrrrmGHn/8cSFR4qaqt3kSECCVqsmHIOEh0Q9+mtGSMgJo9b4AGtCKUxqa0CDJwu4rCVjPWshp1b5an12BqEYxaL0CcjFA4sdaAZ8QsCD1P//886JuAdYPfiajR48Wfic33ngjYf2NNDMEBG9xoMJpBHd6niuLNQQcegUE+I2AQcuGNcUNE1oD7I2hQ4fS559/Ttddd53Q3I0ZM4a+/vprI0tJ7tbSk9rbl2toxlpIRIAHAm/QCukM/nKLw/WHAmh/cgANamMOLwEPgY0fadrNpmlXL6JXQOjatavgGRJn4CU7OJ8K8lwgnTDo7/333xeRNuBNqIUiZIOSAAAgAElEQVQyffp0U+hPmhjAZ/UmpTMbd2bQoL/GEAKCqmpRBQEJFBgKPusxMSBsceTIkcJkgJoIKCkM9SZUTHBCgYahQ4cOQkX93HPPCUJ47733dBODJwEBTi5SwpeHGyR/SZzq+6nvrQcHIGyRRyAnn6LCbRXHvBlDfU5qNmQ5bXU8qY5ViUMP/J7GUGtCaCEeOMQ6XnLJJfTSSy+JkDg4nEJIQOllmIoQsorv58yZQw888IDAhZGmR0DwFQ704FFrL8g101p7vbTkjn48rSFgAxx6TAxYy9mzZ4sQRghzYNZY2+uvv14IBCgWBg/vJ554QjgMw4nMzLWMDYy2q6FVnmIEj+WFDsBLAItq9isNHeQXcUE2Dk3VM4YnHODv4H84CLXG8zSGUX4G+vNkYgD9ffPNNyK8EYLqli1bqHfv3nTDDTeI0MZnn31W0B/MWzBZwqxsFv1JAQFnl3ougPaM8tXyzg/k+WwGLckxDJkYjrO9subZEEIjB4FW30d+TKU3r7f5C+ht3qZa1ju+p34QEFDYSDoleepfHv+OGxAkarNUpS/NS/OqGqOWgICMcCi85UkgLY+4LUuYwODOpKZSLDNZs9qj01J5LaMd4tj1jK25lgwjkvdIvw09Y51PfbwpWFde8AP6S+VItcpnfb7MgOuhqan0wjUxtgJuBpom/bFDfUKURX8GUOnQVQgI6o1SdaqSEhOkZhwmcORApUApMaqOHepnNXuhlFhVZw7Zd9KqIrqhDecl4FsMmjqGqwxbqnOX89wIlYE0ClhlPQbpVKRKVOr7qe+tBwe45UNASD6TTvGxNpi1xlBhlThQ8aL1nPq9JxxojaGaEFzhAGlH8T3+aa2hmmBKpQOp6VDneG1BJj3eN7LEGuqlA3XtcfsBvmDiwGdf4aC0dACYVRz4iw6wTjAFudqT6jvKPaDegtQ1lnTw/d8BHCKWzhXwbHlCjNCBK1rCjRaqb7kny9te8DcdBASHCg2CP/lBaXAAegI/gYOeXOPSnAsz/o2m4RfyJSyLE8+V8lzA/oQ2DOcC+LEvz4Xywg/cnUmezgVXdKBbg4CJpWrNDPsbxlu7N586NbCp6kvboDIqixsnwpryXWQeLC38Zfk81k+ajcxYy+/XZtPwTuaEckl/B7OcSssSr/6YC+sHJm3GOgL+IymFXAnTHIdejFdW+9IfuDdjTlRnDTYP3WaAZGgMs+lv14kCapxozAHcHcAW/RlazhKdDQkIpZuq5NOrOZa4i1OCHrPnMHM8ZCBEalrcxnDAIlTTakTfcDa5kUrqagsnFRcDh1lAQI4Qq/keA5deeqnw05oxY4bvJ6sgM+w4XkBNOR2+1coHBoSAoFZN81SxSq0Mpj5npIKd1qvDoxUx2WiuUuyqsb1ac3uqXKa+n9YYWjhAHDlC/yAYQD2PbJDe4kDrufKOAxlr61y8ydWaekozXNFxYMZeKI84UNeyLPhBecRBWfBE5IeBgx5+Qv0rq7iqc1cUfmDGXtDi7+cTDsrbXihzDQIWGx6rUIsiSRIabFjwlq8I7VxwUjQLz4g+QQgrGnxTEDIH7QoKOFmt4mEACc6QDAtt4MCBdPHFF1e8l6hgEKOwFnwQrGbDwIABA0SYPEIdreZ/DJS5gCBfec2aNVSl/oVcXdEcH4SyQqUlIJTENNLOOtdyKKv1sOYxFwPJXJsjLtIyMZiLVe3RLAHBETfHzhQaThxVVmt1Ps5TopqjJ5WimqZXqwqeJ9WyfA5Fk+pFcOjk2TTDqnrF2yp+nkwMeqq3ucMBBIRDh49R3do2U0hpceA8RkXAAWBW6eDDBUfpnr41SuBDLx2cCzg4V+jgcEoBBWQet+/JsuQH5yMdhEVEUyiXSNain4rID0qzF9IDq1HT6kEO+DjfcCDPQxWP/sKB3zQIiAa45LWTtPyJhAolmKH64XKunNe/nTle+xXq5TWA7f/eaZo2No4iQixVaUVfz7Ffp9CrQypzHgRrLX29lqgKuZer4w7raPESies7p5yhd4dXsniJr4lP5/iGBITUlEMUQ/t0Du2bbkXE2QwDSqpAz6TlUZVa3Uuk00QYzpHjJ6hW9Wq+AUjnqAVcCtdVO550kmqwJ7PeNKA6p3PbTSQ44ZwWlbn0rz+bFk6ysrIpOtKWV8Fq7jGQl5tFwZl/+x1NBQGuTYVJ6VFUvWbrMqVvXyLjwOEjVLeWrbCav5rWvtl/8BA1rFu3TMHKZ/oL3PVjmc7parLCINdC1vGCBKrZ4opzhv7KGtElTAyqCl4mukECBZGI5cyKsoavxHwZgVUoLch1/XXkfIdaG06QaIAbCZ7KQxY3d2mFc09m2qtWqmolb80sqvpfJr9Qkxap6ip/Lqg7nFSLiBcx9L7CgR5Tk9ZekJEcesxtycnJotaGjBcHPapJcbTUsXrpIDfjGIXk7fLnMoq5j4U004QhNDtQJKzxFQ4wsRYePe0FI3Sgpx5NWSyEu31TNSxO8DwVH2biAO8neQkiL4LzkinkSHGdj7J4f1dzHK9nK+/s3CJT91B04kWiaql6LmAPqzzRCB2oOFCTC5UHfmD2XtCtQRC539NWuV3/3Nx8WrrqX9qx9yglVGE1UXgInU7O4ARGgXT85BlKSc3giIVMMUblSpEUGRFG997ahyrFsPChs7kTECpRpD1blhxOzQSnNcXAQUOo95W9hBAUEhJMN48cQcuWr6BTp5PZ3+AQteJ6Evkc1nhlL++rkbnb1GVdzVElai2cDB42nN587VUO5TxAf/39Nw3i4kzYRD/8OF1EoIy+ZRRt2bpVfIbfRz7/fOqJx3Suoq2bnloMhgY8zzqLYjlpRyi8cK/bN3/l/VnUsF4itWxam/7beZgS4lhzxBaE31b8w+tXSB3bNaTsnP9v7zvAq6qytt/0RnpCEgi9S5ESURAFAUHRUbEgI4rDDIr64GD5RwZUFBu2EZVRsaDy2R1UrKAICCIgINKRFjokEEjv7V9rX06yE3Jyz7m5aWbt5wn3Jpyzzz7vbmu/qxUivkWkmp9RkcEYmNDZFprVCQgcatmIwGmr0gZ2sZV0z19+/Y0Shj7++FPc9Ncb0Z7ylfzf+x+ouCkpp06jQ/t2OL//eejbp7fLb9dQMmfy+Ms5fQgByT9V+y6PzluJPp1j0a9LHH7ZehixEUEUkbYUP64/gGLC5eJzWyOH8tu0ignBkWQKHR7sh2EJ7WzhU52AEBjV908x/mwB4qaL3SognDyVgc07DqIVLTRhIUFISc1Ealq2cn3z8/OhuPE5aiHi4k+/82acQItTaLB1Ork6ASG4NKAsPKeBj5XN8LvF36MTJSDiSczueoMuHIhDFPPgCNGJISHBSEtNIx/lWJrc7V2GvbEJCF98+RWuuvIK9b6bt2yhBa0P+G++FG66gISliygr57bt25VAxqFVefFkIctOEQHBDlpnX8sLdG7GUQSUHqi2ooWL1+O83h1wPDlNLcznntMai5ZtQjiFC09Ny0Kn9nG0eWXQvI1Cbh5lPSXhoTsJE3aKCAgOtH7ftBklJCynEpOZSfNi+NBLsHvPXuzdl4jm0VEqd0H/8xIQdybeix2MjWsblIBw6iACTqyofvyt3IUBPeKReCwN4cH+6Nw6Al/9vBthzfyRlpWHc9pFI/l0NtrEhiKdfmf7tF4dm9uCxq6AwH0TfCaUs60Hufni9IKsKmv0LfGmA3b926YoAYHjEHC8ai56HG0jfjvHw+cwxs4YBL5/245E9DjHsZFWTlGZmZWD3zbtQk/6/x+WrUNCn27o1MHeQuRMQOBNPuRM8hBuN7+DQQmb9e1vdELmNKmcnZALx2fgLJRGYbUFpyflQCatWrVyaYhUN6mRUVQWJEXvCyOfg545Thd49Gv173oQIyOXgZ6PQvf0MHsZzvjH79uhQwd1iR6shH/n+pii27hxo7J4N66zA44VAaG2MNDHuRmOZnPBUFnpOJvVofeX0Y96ng6z+6yMA2a8rAgIS5avR/9+5xBr58ivULmkUW6RnJw8yjGSSfS0F7p0tK/Hrk5ACCr2K5uT7sbAmNuuzgU748AKg8AHDH5Hg87m7LWczdYoe/fuVdk0eX3p37+/nelSdq0VAcHOemAHA2PusxqD539R5nGnAsLSNdvR95y2CA+tevxlZucpJoHZrKPJqWjfKppskOxtjs4EBGaSjX2B283qy4bAapn1ZZCHP0oKisE5hrhYWQ9qYy64xCB0fKYj/jX4FCZdkFphgKeTCuHfj7yKwKAAdO/WDkMu7INDR5Lx5vyvMWb0JWjbOg4/0mIVGxuJe6e9jFGXDsAVIwbg/PO644VXPsaLs6Y4nTCVBYRSlNKBx2FxXR2DwNbCJzPLDQUDfT3Qo6XDsGry5MnKBoAHDAeH+fjjj1Xa24kTJ6qOWb9+PViIYDq9NRkBccjlq4lyb2+DUdAHQkFxAQVH8S171/pSMSz4LQ9TPkrH0efPNuDk1M59iDXo16+fwoDjVgwePFilBOaIkobQ9P333yscRo8ejaefflqlfl65cmXZZKyuQ3VMCosL4ePlU3Z5c/+IOsmt4XTANeALKjMI8U90wpGH9pzV4rguV2Hi+L+gY7t4ZGXnYNPWvRhyUR98s3g1Ppr3KP7YfRArV29C967tMO2x1/HCk3cTI1SEe6fPwdofX7eEgC4gFJcUw8uzPFzun03FsP1oEbIpS6BRooM90S7K8b6cxp6F5y+++AKzZ89WawnPD15jeA5xSuN3330XUVFRmD59uhIU1q5dq9Yaq0WfN0UlRZTLodxANNIntM5srpSKQWMQWr19GQ7/ffFZr9Fu+P24+aqB6NouDsmn0vE7scyXX3wuFny/Hp/P+Sf2Hz2JzTsP4evlv2P4wB5ktB2m1tqpL3yKDf+baQkWXUAoJky8zmDCNgiVVQzcbj44cRKxtNxSvLSEmJ5z/HBhx/I1ma/5fsmPaN0qHvHx8fiEVKvRxAAxixwQwAnI/LF02TIMHzaUDtXZikF97oXZai9qRfd069YViYn7MXDABejR/RwsWvwD9u7dRwxeCZ56vPyd9L4sLqV54+EYR/6lPggLCq1340olIOgn1Mqnfm6skdzHYBDeWheG8X3TkVfkgUDfUhqgjsmiEgDRpxdJZ1UV1lPnE4XJbIS/f3lnWBoBZy4yBISM/Ax0ndMRUQFRWDdpI/y9/ZWAwJS34RGgFlCSHFmyMlISbztaSIKBD+56Px2v3uxgTSqHDdYzTxpt00/gdtprXGsMhDu/mYQv//gCbcPaYvXEdeq/dcHGSl8Y76dfa3ZfVf1pnBgKKYrb419nqfS+eaT5CdFc23RDOm5j5ffnCcGTmLP1uVoMTIa+Oxh/pOzETT3H4fmRs1V1hoBgNh5rioFerxUcjXfU73NHHWbPtjIOuE06gzD+4xZ4Z8xx2rw8EOJfLgzn5ReQSq/q+cZ9WFhUTLR4Cc0T1/vSEBBaPN8cnuRltPiWH9CjeS8FW1WblhXsrGBQl+PAYBCMNPVbjxSiZ7wPHvw8E09e6/AI0tkh/l1fS4x31t/LlbljzJtPtn2EexdPQXxwvFoDdaztrAdW+sJsHuoCwoQlffHW8N+RXeiFEN+islfLJbVyAKmUqyrMHBTR+PMldXNNPLkMAYHHH2/SC278HANaXQhDQGDGQx8r3JcsINzyViruH9mM8o94IT23hBJFlQtbl//lGrKPC1b5MoqLi3DlFaPw6tzX8eqcl/H6W/MozXoIWsS1wJ49ezDzkYfB118/+hr07NlDpWHftWu3UnlfcflleIXua0OHy8MUrfTEyRNoHhmNGQ9PL7PD4nb7ePrgtzs2ISowWgkIIQHBZYek+poLSkDQrXOrakhlAYEZhEnnp+KlVRGYN+YYRnbOVn1/4OBxbNm+DxFkBPXuh4uUEHAFsQQsNAwb3A+ffL4Mr7+zEDm5+bjjH9fQdSGk/4xH756OcL1WiiEgbD+xFcnZJ/DvJf/Cf0a+iIvaXKw2WqZdjayOuoDA8QtySOq/jfxsv747ApM/KBcQOFkKMwRMk3/44YcYOHCg6vTzzjsPd9xxh2oWXzNq1Ci88MILePvttxXlbqcYk3rAW/3x0MUzcPtX/8DR/5esqmhWQsLNGZdDs74wnqX3j36t2XdjYusT3BAQDAbh3hFBmP1DdgUmgU9CfOJp3ry5yjnBA30bGSVeeumlij3hCcdWuyyAcW6KZ555hibELjuQlE2OMZ9eh8s6Xo45617C73dsVXUYAkJVi6k7MLBSh9lcMBYaK/i7o/1mdXA7dAGBGYTXrz+OSQviKjAJexOPYOuOfdi197AyDC4qLMbqddvw+IMTlcpv5jPvYM4z95DNUDr69z2H5u53eGrGJFt9yQICM2PP/vI0svIzkZiaiE/HOJIQVSUgWMG/LuaClXYY1xgCAjORLFz/9Y00rHggsoKAsGLFCvz444/o1asX7rzzTkyYMEEZLV5wwQXo3LkzFi1apLxYmIVjL4CHH34YLVu2tIW1sZYMmz8EMwY/ivFfjMPBe49WwNrOemAHA36ILujkspHiGRsEZhDeGb4RE37sW4FJ2LnvGLbsOoxDx0+R6sAPmaTOWr91P6bd/hccPHYS02YvwOhhfdGzcyv06BSPeZ+twEvTb7aFCQsIhSWFeHzFo9RAYCvtD1+M/apMQNCzOvL7GgLCU99lYfOhAtw7ohmC/T3RvUXdRvblvswrysVr61/FvtN7SbjKxjvX/J8SEIL9m6l1lkt9zQW3qhhs9aiLFxsCAg/Sexb/E35E1T874j+qtupUDFMXZIAz1RklK68ECydHuNgK+7cZk/pQ+kH8Y+Hf8PKoV9At2mHn0BBVDPbf0P4dBia/HduAB5f+G/OufhctQxw2KaJicI6nVRWD85pqfoXBIPCp9sOtH2DBmM9JZeRgLf5sKobRr5xGkF85SxoX6onnbgipOYgWazDmTX5xPv76vzG4scdY+vmrurshqhgsvlaNLjMYhC92foZ5v7+F/9H4C/AOKBMQdHsDXcWw8VChEvCGdPVVaqIxCQ6POhYitu7YhTW//kY2dV2w4489uH3CTTVqY1U3G3359sa3sHjvojKhukGpGHSKXTeqMmhllrZYAnNmpMgMwhvvfokskhCX/rQB8S2jMX7s5fjm+9W4/dar8Mpbn2Po4L6Ii4lSBilxZIuQeOCoMpC66vKLsGT5OowYdj6efH6+klL/dfdfiZZxhPA1ijMjRb6OT7tcuN3848xI8ZZbbsHw4cMVa8AGinwafuutt5Rb37hx47Bw4UJ1mh40aJDSIb7zzjvKt53/dvPNNyudH6s2nn/+ecUwVDcQqvo/z6xyoyad2jf8dHUJX3fb1PtN/64bHRmnHl1FwIZUTJtVVzhZz7XXXqvwYxuMJ598Ek899ZQyTGLjKv4b2x/wyejNN99USX5Wr16Ne++9F4sXL1YTjPuB7RYYM9bJVi5WjBRrCwM+vXGfcTHD0WwuGIuNjrNZHXp/Gf2o+1+b3WdlHLB6x4qR4tU3/RtDL+6HffuPKtuC55+YjPsfnEP9Q0aOxObFxkTi+x9/RbOgQLz87D3KToFdGdZv3Enfc7Fs5W8Y2L+H+j7rEQejVrlUZ6SoM2TuxkDFZ6mmD53NBTvjwIqR4vz589XYZ9sDttP55z//qRi4rVu34tVXX8UTTzyh2EeeQ2y3Y6wX3E4eV3fddRdR1D2rnZtWjBTtrAd2MOCG6cbrhRnHnBopXjP5JQwf0J1cGE8r9vjFaeMw+Yn3EHhGzcwGiQuXbURIkD9WvvcgPvxmDX7dvA+3jRmCD+j7rHtvqBYP/k9nRoo854x9gdU+vL+wiqG+i1lfsoDgWexR5jxgZT2ojbngEoNQHagHDyehTStHnoLaKM4EBGMQGM+24ubI186bN69WM4g1NjdHxuS1115TNGltFSsCQm09+89Qb2UGobp32raTvIu6ue6m6wwvcXMsR2jJkiVKFVdbxYqAUFvP1uutbKRY3TM3bNuPhB72YhvYeQdnAoIZg2DnGdVdu3J3AS7ubN+uzlxA8CUjxZAa2WW4493cKiAwg/DLr1vRP+EcohfJ6CMzm05n2YiOClOnkG5d2mLAeT1wOi0DDz3+JibcPIpOpIUYPiTB8rvUhoDA0jzrDVni51MZ692HDBmihIZffvlFnYLXrVunJH62UZg7d646LdspjU1AYA8Gfnc+XbCum62uOY0zMybMtPAp5+uvv1Ynng0bNmDatGnqejtFBAQ7aJ19rVUB4dqbp2Pui/9SrB3fE0m2PzvJc+Hw0WTq3zwMGdQXHy1YgtF/GYyY5uGYMvVFvPHSVFuNEwHBAdeLL76IMWPGqHgqPGf4wDJz5kxMmjQJ3377Lf72t78p2x12qX7wwQfVesPsnJ3S2ASEq+6ajbefnKjGHzucRVMQvdUb9yimOT0zF4P6dcb8hasw6cZLVFC9e2Z9gHefus0OJE4ZhMoCAjMszCzzfKhJycqnUP6U4GzCOxlYNTWC1sqa1Oa4V9kWkW0X26XVxHCz5i2htrCRoh561yx7G9MxTlUMh47joSfexG3kUnXZ9ffDm4SEtq1jMfD8nujTq5MKlLR1x17l7vjZVyvw5stT8ennS4nWvNfyuzgTEJgx4A2eC3/n4kzFwLENRo4cqVwY//vf/yohgHOS33333coNiScw48JUIbsjsSHSH3/8UWZYaKXx1U3qnKSMsjgCrmbt0u9zltGSDaScxXPgheu6667DsGHD8Nhjjyl1wogRI3DbbbeRC083xbawj+6aNWvwv//9Dw888ICy4LZTrAgIdkIt28HALLSqlbngLNSyXkdtZrRk/K2oGAJih+Krj55RQsDyn3/H6h/mYuzfH8EtY0dSsJhAPPvyBwgKDMDj0yeiN83T2M5XITdpmZ2urDbUsk+uQ8DkxZiNrayGm66LuWBnHFhRMcyaNUsJBbxGfPPNN5gyZQpeeukl3HPPPeTeHYvly5crt0b+vPHGGzF06FDlAtmpk3VDbSsCQl3MBT48IPekUxVDYJ+JeO+ZSVixfhe++3kzdnw9C0NvnYVbrh6kYiM8/upCUm/5Y+4jfyPhtRk6X/YAcsiOwE5xxiBwyHN9X+AxyO7bhuBw+vRpFQuHix7zRQ+fzHWEhoWTx1cp7v84FSv3FuEfA31w32Xh6j5ddWtWhx7PwDA81NVgfB/HlWF1AddX00zHNR0HbmUQ7HQoX/vamnDcOaBiLAVndTgTEFxVMTh7rvH/BUWl2HasCH1bV+22Y1ZPY2MQrOLB172/Nhc3X2A9XLZRtxkm7CYX5RcmcRCcdIJiECjUcoCTUMt2+nIeuTDf1CedsunZO1mZMQgeZFIe6RveIILS2MGhqmutCAh2nnHwVDGOpxfjgvb2qGkrAoKddrh6rUPFwF4MP7laxVn3zd7UAXf3SixznbdasZmAEJS+FwHRCVWOPyvswebDhXjz5xys3VegPFfuvKQZRvX0Q0yIJ/woTXdtlfpmDoz3siwgsOFNaipFCctPrTEtYzz8nfXNMCA+FbuSitGNghZ11nxQ7QJfXOqBsMg2jqRSWuFT7SmSDjlEsDtKChkUctAlf0ptHBnkiRZhVcd8sPosNhqLiAivUTwBq88yrmNM2E/X0x18GFX60foC7D6ej9F9/NGrVc1w5onBP3w6NtxV7b5fU7meF7hsMm7Lzz5Oc7LqbKF2sXh1dRBuTchFkK976iv2CERUdMs/RV+ycd4Jyr7qQ9Ema1qY2f5xRwHFB/DAoI41mzNl85qM72LI+LiuktOp8ZdN4y9ljzLMrElJIdfRE/Tze3pLXNsphTwQimtSnbqX4yEU+YQgukX7asdfZl4pVuzOx/I/aB1LLsIhEtx60wHwchIEerbwQedYb1KZ17g5jbKCs7I5mqkYmFZl68+jRynZC9GFXHQaRf9u0ChmlKJOe+j3HTl6HPk+zZGUQVEPU3Pg5x9AQVxKaBP2Qlw4BVcqzSQKyhF6svKz2ZeY1SCVs3YxVc76JmOz0d/PrP063aRntDSoZZ3CP0xt9gxqjtTsUpwir4dY8tAIC/SEV1EmJawKNaVVDQy4Xfw8jtbFxWoWv8rX2snexu1npoUpLndgYNTBEvaL3yVjf3oA+rXxwdCOhWgX5xwDvT9ZOOA+YnUPf7ejYrCDgZXsbdXNBW6zlextrqoYrI4D7kNWfTF9zcUOpai/n3Ef61M9ck+Uhf52hoE+F/RnG9+ZwmUKtTYzWtZkLtgZB7ye8XjkcakbP+sYVLcmBoeEIvEkhSinOBSdY32Rl0P5AM7EPzFbE/X6DCqaBRVeN7gdxvhiDJiSbtu2rfI4q6u5wGsu7ws8FwwKv6pxwO3jtgaHhFFEW0rwRuHlOdpmYUEOOrYIRjMSlMzuc6Zq0jGojCOvqzwGt+47gaT8MPxObo0b9udh05ESxIZ44Pz2fjivnQ/ah2ThvC4Ozy6zzKDO5kJDWA/cPRcsMwiG+GOFlqlNUYmlu0OpJdh3ooikViA8iKPGESXdzBNB9MnRAINpsAVQKOX6bvNpEhqSiELkz2b+HHWS2kafAcQ+8HffMzE56oNOqot+zCVd3Sfr8+iklI8+JJEP6uSLHhSIJIj6p7pSH3jU5phtTHUfPl2MVhFN9LhksaPszJ3UnFIk04Enk0L68qm0tk+iDWHuFNFBITuf8vrklyCD4s1kkmmSj5eHYluZmnd3ySZDweQMZiBIZUOxbn4ntcCupCJad0vQig6W/UmFc2EHHxX1Uoo9BGwLCPaqr7+rmTZiIWLfSZJWibo6RYMnnha+ljRgOKxmc4qfzkyhL+mRePDW9sStColciux4LL2EBnWxCvMZG+KlBJ6oYC/SwcHxQ23zrD1VV513EEehe3pRFn7ZW4ARFP98HNkucCx7Zl3+TO9Z58C64YF8EuYNhuliVtUZyW3cUHWTqIKIAfCc3kvrTh7ZKjGLVmvL8AkAAB/OSURBVJt66voClSIjU9TCUtLJAym0rqZkEXuaResrra28xobTXHZHIfKY0kCTnQNhyoeNTbTxbzhQgK1HSA1AgiwftgZ28MWwbn7q8MGHLinuReAsFYNOuVVFr1uhUdjaszFQikcpnXMcxdJmc6wDh48hz7s52RcUYdvBTCTn+BLt5UkSaCk6xfghtlkBusaz24k1armmGHCbMjIyFQV5KrMQJ7KIgiNhIiklE/HNg8HR29iCuAslQKlMK+l9ZFChenAeK7RqXY2DWMKfvZ8W/3YcC7YGkC6wAJd0LMHkEZFqga1PFUNdYWBYKptRm3WFAVPEHPqXCwfK4sRlTQ2DqvrCDANf/0BsPFiIxKOncUmvKBJ0vZB0/FiZ5bnenzVdD7hP6mocMAaFJOBs3J2EQp9IleTOtyQL3dqEoXWENwXbyqfcHn7kipdT5iHm6r6w5UAGtiX74NfEAqzek4uT2XxQKEVC61Jc2TsUw7tTaPCMJApH3UKtvdlZjjVRV7MY2FZeB92tZmmKc+FPyyC4V44qry2fJNl8ykPC+naWapneOkWGi2yDwBQXqxNKSFfZJtKL1B5kO0G0Gv+EBbhHqq78XiTIq7awNM+f3J4MojOZkWBqL4AMpNmYMkL9sFqjcUjZ/F5sEMrYrk0spMUjH/vIODShrQ9ZEftjSBd7lt+1NR7+bPXyyay1qBgqdCsL60dSi7GHjKnDaR61iiB1Jp1WdTVmYxkHFHaG5pUjsy3PL1Z3htE7hZFqllV/NWVUud6dx4uw43ghdh4rVmwKs7ns/dUhxotUjD5K8G9N6yPbHagfUg0zWyql4SEgAkId9Qlv3hxUgzfwLJow/MkpY9mnNp8mj+OTssHR33gzjySbigj+CSRvCfpkrwl3FJ6onLmRKVCmQ1ngobTjSrjgT56nyo7jjD0HT+CGWJhNYYOv3cnFpEoihiWzlChG0OLji/5kdNSFLI+l2EeAF/ducU0TO5oCKujNSdJnU7wetXmFEl3OlDn/3lALz+l0dSigH0pKxwcUX9px/agbKUkiAmntYGEm0NezzO7JyrvwGsUeWyw0HjrloPV5nrFuP7egBKF06GGbgs4xvOHzdy+lLuT1KoTofymNHwElIOhxu/W43HrMbcN1Ro8J7e7483p9rsbg19tnpFrV8xBYiTveEDHIp7jcnJHyRFo+coq86TsxF5mU05xWAC9S3hfk5ZBnQqByXSzMz0JcVAhNYA94g9wog33ppFAC/zNWkXYw4NNTenYh8oq9kJZViHz65IU0nyJ9BQUFKLuB7KwMxEaFqtNIYV4mpTINUXYdruYhqOk4YPZhY2Imdp30VjErODEXL5ARAaWYPDxELfx2MOBp3lTmwp2UBv2pKz0QHuZIPtQQ5wJb6XOxkpekqvXAyEZ4mFiBYyk5KkiU8msvzSqzu6jPNTEtLR3eASFK/378JEV3pZC7zBBy2m5vbx9SiZaqzZmFeO/SPISHBCo8qsvr4RdIqkpiDA6fzMWpPG8cOZWP5ExPtemnZBSgxMNLzd+4UC+0CPdEG1IlxAQVolOLIKXO/DOOgz/DvlDTueAMA2EQGr+QZ/kNMkjtwIsEGxWl0CmAv5+mHzbWZNqvU1iWCpvcvn175SrFdiS8wPqFxavTCBtc+dEiYsWYkBkRQ9WRQYwJqzx8U9YrH212O2rf5VwyPnKccFiY8KU2+FD9tU01sqsqR4fkxFOcZIpdx3iS+A59Ge2jvZWleUtSCfFJiHXK9WG8arlD6cJSduXJy1CbhjvKEvLNv/Qc++qbAl/HJlW5+HiyAFu3XhEcY8AwbOMTNav9mKVjA+V42vwO7t+HNm3aWErk5g5M2aivgBk6akMBs4Q0N3KIxQumXEHjrx8BDmt+6z2zlKEu/7DxXVWF68ki1i+bvAOYheT5xaf5PcoYu0hZ8LOakyMAPDM4URmc9u7dG/v371c/PO8uHjxEHSikCAJWEFACglmuaUPSNj65Qru5w41G6HWY5SrX/65fb9Rh99nuaL876mgsGCQmJip/Zvb35exzHEOCmZypU6eqxcbAghelY6cLScggv3vlhVGIk2REyZtpBO0TMaHeiFYqEg+1ybLKgpmNnPQTKgskx324+ZbxtLkVl8WnMPqeT0qnMouQTvYTaSRUsABTSOxJsD+lxaZTE1O+IfSd9ZZqnaMAQRzSm7+XaPXpY0XvQw5py2FWFy1apDLrsbU+Z/BctswRWlgfg7uSCsloshDLd+YrnWo7EiDYanpQJz+iVb2UUBNAtC2/t9mY1ttRG+OgKDMFXqf2WZnrtXpNUnTViaACPf1pIwxSAqdearoeKNsbMnMvoLHB9gGHUgpJePWiPqITcCgLmw6hxGwcGO6AdteUEnpwCW3AxfTJgkg+teEU6d15vLIdUlpOEdkeeSuaPZQYq5hQh2uj8Rwe3+wGyCwcl0sG9Vdz7tEP/1C6+z0UqGdPMkkPFE2UhWV/7xJ0ifNDx+Ze6EDv1inWBx3pk9WQ1a3Hn3/+uco6+8knn2DOnDno3LmzCq/er1+/CnPZlTW9Ka2JTX1vVAJCVZPIbDLr15p9r2pzNxMyGmIdjb39rvansx3E1T7ktZAXVhYSjOCNfMIror9xBLWTpNdMpsApzGywkVNyWhFtvOSKStRm82APpdtsThRwLNGfbHBJUoHDHY8qdkRw86RFmww16YSWwYIFCTCpOcX0nQLb0O8sUESSwSirXNjIjA1GvTwddVReIK1gxyc0h82Gw9/75z0FWEVGlKv3FSq7joEdvDG0W4AypOT2V/ZNdxXHynOSf89LTYJ/xqFqu+7KyU+gbYsYPPnPcQglNRSXJWs2o3vHVmgRHYF12/agfw/ruQCqepiZgOBb6k06/NBqBYTq1hTeKDn2yQHyLmKdeKtIb2UkyGoiFgqN03BN1yUeSyyYpuVCncrZfa+IorPyRhxGdkARJJiyTRCRXfQuHKOvfDyzDczuEyXYTb73O49RND76nkSCcxG555RQHay+6EgCJevqu5JtDNt4tCQmw4vGnxETpJjGsfcZQwd3rInGGNPVMNxvrq5trt5nZT45m4cNpY6miIGoGJztivL/DQoBPrWpzZmoWgdtS59M3SqvEqJgiXXIItWF+iQqNpONQumHNxRe5FlA4EWfmQimeHmBdniCOOrjDZ7rYWvvHDLEYjqYKd8Q1vkqi2tHsCtWizgrTGvzqTKVaG4WfLYcLcR+isvBxpV8d/eWPiqnR19S77DXi93CC5YVAeG6+5/F5LGj0Co2Cht37lMn3/CQIBxOPoXu7VvhwLETGD30fPj5uh5IxlRAKPGmjTXMNCsdG8kyC8XBhNhIlg0Cw2lDDuRgZ6TOsmucyyd7FgyZfmeVWgZt+AV0yg8gl2U2Yg2izwB6TVaXedNGf5yey9Q850TgIFGsk+e4JKz+YiGWDf6UuomEgziKn8L91IaEFNVGNvyjdvJnY/VqsDvm5PqmhYASEPQMU3aMUfT79O9VGadx/H+mrLmY3efMOE0Pb2pWhx0jRbM6BAN7xmmNeRzwZpmUkgYfNgqjDSGJjMKM7ympWfALCCT1AQsMnIXQC9l5JJGQQRcLJSgtRDPyI/UlYaGoIFdlpmOBoygvGwFBzRRrkkuGZUH+vg4XMpIBONqnZ0kBwkhnwidgxi4gKBRHaFPaceA0MoqbKcvxE3SULfbwVdFCWW/eKcabbCQ8yTuD43M4Qv2mF/ghrOSEUwahLpY0MwEhPcMTn/3mi5E9/JWtixf5uCu1DAoQHRagNteqxg8LasmnKayxT5Dql/TsAvK9JwM9ZqIIOIrEjqOncsl41lu50TG1n11AuPC1JJCxRT8fyEkZQJh7E5NDtHxACeIifBFMeSaiQnyUMOJTmoNW0WTQSxu+rAfma7OsiU1nTdT3aGEQ6mL1lGc0KQSYkcjk06tScRg/jt+ZJmdfc5p4pBYh2wX6hyPG8UmaNzdmFnizMhgLFizUCZU++TTNG98Bcjk7QELEGyuz8fDgbFzf7kS1+N754DOIohwmKalpSCEL+cKCQrRv3ZJyhYRhUMK5OHYihQz2inDDFcNwx/RZOHA0CT99/JqtPjMEhBKyCeFsnEbJpcA3X2/2w1V9AmjjdhirMqPCBrIc4fQEuRQyc6MM9+j9mcnhUzszQ6yDZxxYNWS41EUTXc9RUJXaSRmSNmD/Q1sIysWCQMNDQASEhtcn0iJBoEoEWLhIVfYVdGKmjXbaZxl4fFg2hkQnqetv+jIGXSMLMGOQvRTq7oCbBYRNSb9j1PsjcV6L/lgw9gv4ePpg7R8llC7XG7ddHISWHOqcE6+RbYkY0rsDdalDEKhdBJSAoGfAcjVjlV6HqxnsnGXtMgupaSeDnVmYYcGgYiZAGQdktEbeHJGRkWoG2gk7XldzgVNi6zYIRSVsuMfGcxUXjbseehaXXnQ+/jv/U7SIjcasf92FV95bgBaUeTQmMgI5efnkY5+v3BFnvPA6rhx+Ed6cNc3WysMCwnub56NH85644oPLsPmu7YgOpNTDZIPgSWyAK6HXZT2oOCfthFqWNdFeZlPZFyjCJmUjNjI1G2GqhUGwtQzKxYJAw0GgspHiY6vCsSPFFx9fk1yhkYePJZMzABlXBgVSzAfSyVNgoFwSCNgWP4tsGdhNlFUMkeEU7MrfT6kcWsY4Ut9aLSwgcHseWPL/0CWyCyb2u13dygJCdUaKVuuX6wQBQaDuERABoe4xlycKAm5BwKoXw6xX56Nbx7bIzslVrnejRw7GIy+8ga70tw1bdiqBYOiABPzw86+Y/58ZWPLzOuw9eBjjrr4MO/cdwNWXXuy0va56MTitWC4QBASBekPgrGyOrtKqeuYsV1UMeh126DR3Z+0SDFyn12UcUDz/Y+UZ/WpzLlRWMZitIs+98T56d+uEAmIJDh1Lwi3XjsKXP6xAcLMgCpEdgWbELPyyYTOyc/Nwz9/Hqmq+WboK/Xp2xWeLlmHyrWOcLlDVCQgeZIAYERGhGAYOPMOBqnRvI7MslrIeVBxLsibWbUZLHvT6GGyK+4IwCE6XPrlAEGiYCFhlEJgZGEE2CEZh90sOL30qLQP5BQVoGx+HvQeOoBUFU2JXzrUbt+HChF62XloYBFtwycWCQKNAQASERtFN0khB4GwErAoIPh0H4tUnpmLV+k1IS8/Ex/99Eg8+Nxd9unemkMTemDH7DYwaMgBDSM0w/MIEhJ87HIV7V9uCXAQEW3DJxYJAo0DgLBWDbslox3K7LmhVg66tTP24W8UgGFS0aJVxYM+Loa7mQmhoqKVIinZWoiX7A3FpO4pCZLNUF2rZg1OY14KKQdYDyvCalgZWNcmaKBjUxjgQBsHmQiiXCwINCQGOcJedlkIBlzjsUg0LBXi6/j0/LBhPCSZslmKvs8M0c4Km4KBgSkPezDTUss3HyOWCgCBQhwiIgFCHYMujBAF3I8CJbAoLC5UBoDvKMspcObQbJalwQ+EkPJxiuHImRzdULVUIAoJAHSCgBATdoljPd8CGTGxxzAsQT3QuWVlZ6kTARb9P/67nXTAycRk0dXX36XUY1+uZvPR6zZ6tt89ot/Ee/Gz9/czqEAwq4iTjgMIhN5G58P32fAxsXYDg4GA1x2UuCAYyDpruXBAGoQ6kMHmEICAICAKCgCDQ2BBQAoJ+wmY/ZS+KrMbFyH+t58HW/1+/T/9eVf5u/W9m91VVh/5sK3W4o/3uqEMwoKQ7RH8b9LLRj1b6UMZBOWPB89DArLbnAjN0zA7u3LkT3bp1U2uAzAXBQMaBd5OdC0pA0Bce/XtV0o7Zte6uoz6fLRiUC4dmEq+Mg4oYWcHD1THt6n2ujGNWy7FQV/mQIOOgUoILDRArfe9KX+iHtPrG3x3td0cddTkXKuPvjva7o466xEBUDI2N85H2CgK1iMB3W/Ixqpd7jBRrsZlStSAgCNQBAkpA0H1pdSM/g+otoGhrvr6+qjkZGRkICQlR3/X79O+6YZNBj+oGhmb36X83rtcpab1eszr09hnt1ilr/f3M6hAMKhqjyjgop/z/7HPhxtdT8fqNHmW+9TIXZC7wWi/joGliIAxCHUhh8ghBoLYQYAGa3QndVeatysM/Bvm7qzqUkPulF6kspAgCgkDjQ0AEhMbXZ9JiQaAMAZ0dq09YjmefrPLxgV7+CPGTQEn12TfybEHAVQSUgHD8+HHExcWpOlzNWKXX4WoGO70OO5nL9PtOnDiB5s2bq3cxVBJ6DAY9jLIeElcwAASDxoUBh1blse3vX/2Jf8Sov6BD+/YYcvFFaNu2Dc7t1RMcgRFwMA8c66SktASlxEZwvKUDBw+iW9cu2H/gILqf4/BmcFbMBATfUm94FgLh4eG2sznKelBxPMqaaC+bo+wLFcePK3ujMAjOVj75f0GggSLAFtFWBIThl12BB6dNxW8bN1JyJh/SJ2ejoCAfv6xZqzwWZjw0HS/PeUXVdTo1FddcfZXSOV8x6jIk9O1r6e1NBYQSb0Q0C3OrGsRSg+QiQUAQqDECIiDUGEKpQBCoHwSsCgh10ToREOoCZXmGIFC3CJyVzdFVFUNdZLBLpdMNU5Vc9Oe5O5ujYOC6qknGQcWx6aq6TcfRjFq2qmK47rrr0KtXL2INCsBzKCkpqez3iRMnYvv27SqU9OWXX44pU6Zg8+bNWLt2ra2VqDoBwaOwdrI5ynrgofpT1kTBoLbGgTAItpZBuVgQaDgI6AxC26knUFjsSNg0uIsvPrzNIUjXVWEBIT0vDb1f64lOkZ3x/fgfycLBA76iYqirLpDnCAJuR0AEBLdDKhUKAnWDgC4g/HaQMzoCXWK9Eexf0e1x5syZijGYP38+YmNjcdddd+Hdd9/Fueeeq+KbJCcno2XLlnjzzTeRm5uLn3/+2fYLsIDwxoa5+Hb3NwjyDcLsy19GTFCMCAi2kZQbBIGGg4BtLwbdElK3ErXjxWB2nzOrZT2wkVkdziw1dfWBWR3OVAyCASAY1D8GoaGhZUaKBoMQ4OOhGIR5fwur01WGBYScwhx0+28n+Hr6Ys+U/er5zCB4FlXvxSDrQUVrczM8qlI1yZroUSFgn+wL5mPJlb1RGIQ6XUblYYKA+xCwaqQ4d+5c5crIGwznWrj99tsxefJkdOzYEVu2bFF5F+Lj47FmzRo88sgj2EjeDryYvPTSS9iwYQMSEhKcNlqMFJ1CJBcIAo0OAREQGl2XSYMFAQcCVgWEb7/9Fj4+Pio+CLNjF154oRICOH4CsxD8uXv3bsVGDBo0CImJiepUxmqJdevWYcSIEU4hFwHBKURygSDQ6BBQAoIeZ5t1kAEBAepFjFSvfOrgBYYLB1gJCgpS3/X79O963gUjl4Iew97sPv3vxvV6Lga9XrM69PYZ7dZT1urvZ1aHYACli5Zx0LAx8PPzsxQH4fXXX8ekSZPKFieeUywMHDlyRAUTY1sEFgR69OihbBIWLFiAsWPH2lrMqhMQAr39y8aSrAfl6btlTfRUnjVGnh/ZF8z31PraG4VBsLUMysWCQMNBwCqDwOqFt99+G0uXLsXRo0excOFC3HfffYpJYCHj0UcfVczBNddcg8GDByu3OXZ7tFOEQbCDllwrCDQOBJSAoDME+mnbyF2tn+L12O/6fXbqMLtPr9t4pp4/W2+bq3W4o/3uqMPV9gsG5cwWTzFXcXRHH7qjDlfbz+OAoyDmENMTFBjottXmj6QidCVPCLululDLof7BygaCS1VrSk0wYPuJpj4OBINiZUcj48D9GAiDYHcllOsFgQaEAKsI2F6ABQZ3lEFzfLHq7gJ3VKUEGLZxYJWkOzNOuqVxUokgIAg4RUAEBKcQyQWCQMNFgJk2ZjL4ZO6OsmhrPi7v6eeOqpRQwMwBCwpSBAFBoPEhoAQEPUyj4WvLr2JQqHo2xPT0dHUq4KLfp3/XDQUNVYFu9GZ2n/5343pdvaHXa1aH3j7DAEanMPX3M6tDMCjPmibjIFiN9aYyF1hAuCA+pyx8r8wFmQs8/mUcNE0MhEFofEKdtFgQEAQEAUFAEKh1BERAqHWI5QGCQONBYPny5bjkkksaT4OlpYKAIFBrCNgOtcxx22NiYlSD9IxzdkItm2VidBZq2SxjlX6fs3CSKSkpiIqKqrb9zkItCwZQ8ftlHPz5MMguKEXm6WSVs4GLzAXBQMZBXJOdC8Ig1JrsJRULAo0PgW+25OPKXu4xUmx8by8tFgQEAR0BERBkPAgCgkAZAs8szsbUyxyRUqUIAoJA00ZACQg65a9T8Ib3AvtaB54JxmJGLet1GBnG2PWK/bONRDHBwQ6LcDMVg/73qjKXmakY9Pv09hnt1r0wzFQMgkHFfpFxADQWDDg6YosWLdTcsqNu09UHxvh/7OtM3JaQhbg4+7RqVZn02NVR1gMIBjQ2ZRw0PgyEQWjaAqK8fSNHYN3uXPTv7MidUl/ldF468ourDq60ZksArh3QrL6aJs8VBASBGiAgAkINwJNbBYH6RIAZuuWbMzG0d0h9NgPVCQiLVntjwvAwiaRYrz0kDxcEXENACQhJSUllVsunT59GRESEqs0INKQHOTp58iSio6PV/+v36d+NYEW8gHGgI46TrWejMrtP/7txvRFznqlKPQiSWR16+4x26xnD9Pczq0MwAASDho9BSEgIlm1Kx7A+YdXO/qnTHsLjM2fg2+8WY82vv+KhaVPB9+4/cAAPTHuQ5mgpnn3qCdz/wL+x8LNPba8k1QkI363yxHXneyEsLExFe5T1QDCQcRDaaOaCMAi2l0O5QRBoGAjwQmtFQMjIzETgmRTueXn5aNYsiPTB6RQC2QNeFAq5mEI1s5DAQnhoqH02wpmA8PcREcIgNIwhI60QBGwhIAKCLbjkYkGg4SBgVUCYPXs22rVrh8TERAwZMgRbt27Fzp07lQHxPffcgw8++AB5eXmYMWMGrrzySjz33HNgg+L4+HhLLysCgiWY5CJBoNEhoAQEPceBrk4wUgvraW11jwb9Pv277jVg5FLQaX6z+/S/G9fruRj0es3q0NtntFtPkay/n1kdggEgGDR8DHx9fcsYhE835CIrz5GwafvRIvznxnIm4L333sMFF1yA/fv3o3///srTgdV+K1aswA033KC8irZt24YxY8ao9NmbNm1SasS2bdtaWtB0AWHmT4+gbVhb3Np7grqXVQzjBgfB399f/S7rgWAg48ARZ6QxzAVhECwtgXKRINDwENAZBBYQLuvuBw509OziLGx6xGEnxOWLL77A6NGjy35nAaB3797qd91mx9U3NASED7e8j+k//hvPjHgOl3YYgYiASCUgiIrBVWTlPkGgfhFQAoJ+utfZAkPC0U/xemZE/T6zOngRY92mfoo3u0//u3G9cT/DpLfNrA69fVW130odgkFFrGUclEv7DWkuMAtg2CCwgDAmweHu+MIP2bhvRHmwozlz5qjQ2BdddBEeeOABjBw5Uv3O6gRmD3h+jhs3DnPnzsWzzz6rjIHtFENAWH90Heb8+iKWJi7F3ikHEOAToASE8UND4OPjo6qU9UAwkHHg3WjmgjAIdlZCuVYQaEAIWLVB0NVuRvPZ5sDPz08JB8b/G5s3C0HGDwvcQUHVR1YUG4QGNCikKYKAGxEQAcGNYEpVgkBdImBVQBg6dKhiCHbs2KHsDj766CMMHz4cEyZMwIgRI7B3717cd999+Omnn9C9e3esXLkSL7/8Mu6++26MHTtWuTNXV0RAqMtel2cJAnWHgBIQdJ93I8QxN8Gg63XjQCNcJv+/fp/+XTf+M1QFutGb2X16KGXjel01ocdSMKtDj5VgtFtXO2RkZCgf8OraLxgAgkHDx4BP9lbcHHmsb9++XW3+tVGcCQg3XuhHrpWOaIqyHggGMg4cjFxjmAvCINTGiil1CgJ1gIBVBuH+++/H+PHjlXdCt27dkJCQgIcfflh9HjlyROVd2LdvH6ZMmYKlS5di3bp1mDlzpuU3cCYgiJGiZSjlQkGgQSEgAkKD6g5pjCBgHQGrAsL06dOVnUHPnj2VkMDqBI55wAJC165d8f777yMyMhJPP/00Vq1ahc8++wyvvfaa5YaIgGAZKrlQEGhUCCgBQc/Cpmd4s5PNUa/D1axdeh12sjnayWBnls1RMKiYCVDGAdDQMeDwxZsTsxASVL/JmtILMlFQXFjlwpeR6ouEdqUIDw9XHgx2srvKelBxTsqaWK72Y08z9uJhI1uzLL+yL9jL7lrV3igMQqOS56SxgkBFBNgbge1qeMFsaMXT01PZ+wRQmGdeyKUIAoJA40JABITG1V/SWkGgAgLGqbyhwmKc8hpq+6RdgoAgYI6AEhA4WEqLFi3UVTrNYEfFoNfhqopBr8MOnabfxwFgYmJi1LsY/t26F4aZikEwgAqaI+NAMJBxIHOB108ZB4KBMAgiPgoCgoAgIAgIAoLAWQiIgCCDQhAQBAQBQUAQEASqFhB0Wl63CDXyHehBjnSKXr9P/24EI2L9KIdsZT2kHuTI7D7978b1bPXMxk5s5KQHOTKrQ2+f0W49b4P+fmZ1CAaoYBks4wAQDAQDXj1lHAgGTWkcCIMgUqMgIAgIAoKAICAIiIpBxoAgIAgIAoKAICAIOEdAMQh6tjf2q/b391d3GrGi9fTHurpBv0//rlP6RoY4PR+C2X36343r9XTPer1mdejtM9qt53PQ38+sDsEAEAwEA14DZBwIBjIOAtV+2BTngqgYnAtRcoUgIAgIAoKAINDkEFACgh4nQD/ps4EhGwjqJ3D9FK/fp3/XGQeDAdD/Znaf/nfjmTqDYKUOvX1GHcZ7cO/q72fWDsGgIk4yDqCMbWUuCAYyDmQu8D7SVMaBMAhNTiaUFxYEBAFBQBAQBJwj8P8BgIS+12hY0FQAAAAASUVORK5CYII=;" vertex="1" parent="1">
          <mxGeometry x="-670" y="-224.69" width="1360" height="525.69" as="geometry" />
        </mxCell>
      </root>
    </mxGraphModel>
  </diagram>
</mxfile>
